<svg xmlns="http://www.w3.org/2000/svg" version="1.1" xmlns:xlink="http://www.w3.org/1999/xlink" xmlns:svgjs="http://svgjs.dev/svgjs" width="1440" height="560" preserveAspectRatio="none" viewBox="0 0 1440 560"><g mask="url(&quot;#SvgjsMask1540&quot;)" fill="none"><rect width="1440" height="560" x="0" y="0" fill="url(&quot;#SvgjsLinearGradient1541&quot;)"></rect><path d="M-122.42 47.76 a170.18 170.18 0 1 0 340.36 0 a170.18 170.18 0 1 0 -340.36 0z" fill="rgba(189, 167, 206, 0.2)" class="triangle-float3"></path><path d="M123.98155752979065-57.14031137506201L-39.02812448457675-16.497432914317805 1.6147539761674636 146.5122491000496 164.62443599053486 105.86937063930539z" fill="rgba(189, 167, 206, 0.2)" class="triangle-float2"></path><path d="M-73.27 -1.4 a71.87 71.87 0 1 0 143.74 0 a71.87 71.87 0 1 0 -143.74 0z" fill="rgba(189, 167, 206, 0.2)" class="triangle-float1"></path><path d="M1259.38 -6.04 a62.58 62.58 0 1 0 125.16 0 a62.58 62.58 0 1 0 -125.16 0z" fill="rgba(189, 167, 206, 0.2)" class="triangle-float1"></path><path d="M1461.5836950517912 162.78479519263436L1487.86468517855-3.146846027348772 1321.933043958567-29.427836154107524 1295.6520538318082 136.5038050658756z" fill="rgba(189, 167, 206, 0.2)" class="triangle-float2"></path><path d="M1200.84 52.5 a179.66 179.66 0 1 0 359.32 0 a179.66 179.66 0 1 0 -359.32 0z" fill="rgba(189, 167, 206, 0.2)" class="triangle-float1"></path><path d="M-61.606860995876104 444.0763112874475L-9.692005940884897 603.8538060250332 150.08548879670087 551.938950970042 98.17063374170968 392.16145623245626z" fill="rgba(189, 167, 206, 0.2)" class="triangle-float1"></path><path d="M-130.09 503.42 a185.51 185.51 0 1 0 371.02 0 a185.51 185.51 0 1 0 -371.02 0z" fill="rgba(189, 167, 206, 0.2)" class="triangle-float3"></path><path d="M58.30360012210101 372.02683739221953L-62.54548633479238 488.72944362933106 54.157119902319174 609.5785300862244 175.00620635921257 492.87592384911295z" fill="rgba(189, 167, 206, 0.2)" class="triangle-float1"></path><path d="M1404.6482959276975 373.6317903110408L1268.7334408727063 472.3797126961763 1367.4813632578418 608.2945677511675 1503.396218312833 509.54664536603195z" fill="rgba(189, 167, 206, 0.2)" class="triangle-float3"></path><path d="M1260.7736705996158 551.3021560262347L1414.2493074835727 619.6339120629692 1482.5810635203072 466.15827517901226 1329.1054266363503 397.8265191422778z" fill="rgba(189, 167, 206, 0.2)" class="triangle-float1"></path><path d="M1202.69 498.64 a175.95 175.95 0 1 0 351.9 0 a175.95 175.95 0 1 0 -351.9 0z" fill="rgba(189, 167, 206, 0.2)" class="triangle-float2"></path></g><defs><mask id="SvgjsMask1540"><rect width="1440" height="560" fill="#ffffff"></rect></mask><linearGradient x1="84.72%" y1="139.29%" x2="15.28%" y2="-39.29%" gradientUnits="userSpaceOnUse" id="SvgjsLinearGradient1541"><stop stop-color="rgba(255, 255, 255, 1)" offset="0.09"></stop><stop stop-color="rgba(255, 255, 255, 1)" offset="0.26"></stop><stop stop-color="rgba(255, 255, 255, 1)" offset="0.57"></stop><stop stop-color="rgba(255, 255, 255, 1)" offset="0.9"></stop><stop stop-color="rgba(255, 255, 255, 1)" offset="1"></stop></linearGradient><style>
                @keyframes float1 {
                    0%{transform: translate(0, 0)}
                    50%{transform: translate(-10px, 0)}
                    100%{transform: translate(0, 0)}
                }

                <!-- .triangle-float1 {
                    animation: float1 5s infinite;
                } -->

                @keyframes float2 {
                    0%{transform: translate(0, 0)}
                    50%{transform: translate(-5px, -5px)}
                    100%{transform: translate(0, 0)}
                }

                .triangle-float2 {
                    animation: float2 4s infinite;
                }

                @keyframes float3 {
                    0%{transform: translate(0, 0)}
                    50%{transform: translate(0, -10px)}
                    100%{transform: translate(0, 0)}
                }

                <!-- .triangle-float3 {
                    animation: float3 6s infinite;
                } -->
            </style></defs></svg>