<svg width="950" height="750" viewBox="0 0 950 750" fill="none" xmlns="http://www.w3.org/2000/svg">
<path d="M590.568 368.997C590.568 480.027 500.56 570.034 389.531 570.034C278.501 570.034 188.494 480.027 188.494 368.997C188.494 257.967 278.501 167.96 389.531 167.96C500.56 167.96 590.568 257.967 590.568 368.997ZM199.111 368.997C199.111 474.163 284.365 559.416 389.531 559.416C494.696 559.416 579.95 474.163 579.95 368.997C579.95 263.831 494.696 178.578 389.531 178.578C284.365 178.578 199.111 263.831 199.111 368.997Z" fill="#ECEBEB"/>
<g filter="url(#filter0_d_11612_3575)">
<circle cx="387.978" cy="367.444" r="122.64" fill="white"/>
</g>
<circle cx="461.717" cy="185.036" r="15.5241" fill="#ECEBEB"/>
<circle cx="555.638" cy="260.328" r="15.5241" fill="#ECEBEB"/>
<circle cx="586.686" cy="381.416" r="15.5241" fill="#ECEBEB"/>
<circle cx="528.471" cy="504.057" r="15.5241" fill="#ECEBEB"/>
<circle cx="403.502" cy="561.496" r="15.5241" fill="#ECEBEB"/>
<circle cx="263.786" cy="519.581" r="15.5241" fill="#ECEBEB"/>
<circle cx="200.136" cy="417.122" r="15.5241" fill="#ECEBEB"/>
<circle cx="204.018" cy="291.376" r="15.5241" fill="#ECEBEB"/>
<circle cx="295.609" cy="192.798" r="15.5241" fill="#ECEBEB"/>
<rect x="256.88" y="151.211" width="7.76205" height="50.4533" transform="rotate(-35.9958 256.88 151.211)" fill="#ECEBEB"/>
<rect x="468.583" y="126.683" width="7.76205" height="50.4533" transform="rotate(8.94617 468.583 126.683)" fill="#ECEBEB"/>
<rect x="602.282" y="226.951" width="7.76205" height="50.4533" transform="rotate(57.9483 602.282 226.951)" fill="#ECEBEB"/>
<rect x="591.38" y="385.255" width="7.76205" height="50.4533" transform="rotate(-79.4449 591.38 385.255)" fill="#ECEBEB"/>
<rect x="533.413" y="511.589" width="7.76205" height="50.4533" transform="rotate(-53.3506 533.413 511.589)" fill="#ECEBEB"/>
<rect x="398.845" y="570.346" width="7.76205" height="50.4533" transform="rotate(-2.30725 398.845 570.346)" fill="#ECEBEB"/>
<rect x="254.588" y="527.524" width="7.76205" height="50.4533" transform="rotate(38.1448 254.588 527.524)" fill="#ECEBEB"/>
<rect x="144.644" y="443.428" width="7.76205" height="50.4533" transform="rotate(-112.677 144.644 443.428)" fill="#ECEBEB"/>
<rect x="149.683" y="283.365" width="7.76205" height="50.4533" transform="rotate(-75.4278 149.683 283.365)" fill="#ECEBEB"/>
<path d="M295.674 103.233C295.674 138.765 266.87 167.569 231.338 167.569C195.807 167.569 167.003 138.765 167.003 103.233C167.003 67.7019 195.807 38.8979 231.338 38.8979C266.87 38.8979 295.674 67.7019 295.674 103.233ZM178.951 103.233C178.951 132.166 202.406 155.62 231.338 155.62C260.271 155.62 283.725 132.166 283.725 103.233C283.725 74.3008 260.271 50.8464 231.338 50.8464C202.406 50.8464 178.951 74.3008 178.951 103.233Z" fill="#3CC1FE" fill-opacity="0.7"/>
<path d="M543.55 64.3354C543.55 99.8668 514.746 128.671 479.215 128.671C443.684 128.671 414.88 99.8668 414.88 64.3354C414.88 28.8039 443.684 0 479.215 0C514.746 0 543.55 28.8039 543.55 64.3354ZM426.828 64.3354C426.828 93.2678 450.283 116.722 479.215 116.722C508.147 116.722 531.602 93.2678 531.602 64.3354C531.602 35.4029 508.147 11.9485 479.215 11.9485C450.283 11.9485 426.828 35.4029 426.828 64.3354Z" fill="#FFC806" fill-opacity="0.7"/>
<path d="M715.435 195.996C715.435 231.527 686.631 260.331 651.1 260.331C615.569 260.331 586.765 231.527 586.765 195.996C586.765 160.464 615.569 131.661 651.1 131.661C686.631 131.661 715.435 160.464 715.435 195.996ZM598.713 195.996C598.713 224.928 622.168 248.383 651.1 248.383C680.032 248.383 703.487 224.928 703.487 195.996C703.487 167.063 680.032 143.609 651.1 143.609C622.168 143.609 598.713 167.063 598.713 195.996Z" fill="#9A0101" fill-opacity="0.7"/>
<path d="M769.298 401.47C769.298 437.002 740.494 465.805 704.963 465.805C669.432 465.805 640.628 437.002 640.628 401.47C640.628 365.939 669.432 337.135 704.963 337.135C740.494 337.135 769.298 365.939 769.298 401.47ZM652.576 401.47C652.576 430.403 676.031 453.857 704.963 453.857C733.896 453.857 757.35 430.403 757.35 401.47C757.35 372.538 733.896 349.083 704.963 349.083C676.031 349.083 652.576 372.538 652.576 401.47Z" fill="#F20000" fill-opacity="0.7"/>
<path d="M684.515 578.018C684.515 613.55 655.712 642.354 620.18 642.354C584.649 642.354 555.845 613.55 555.845 578.018C555.845 542.487 584.649 513.683 620.18 513.683C655.712 513.683 684.515 542.487 684.515 578.018ZM567.793 578.018C567.793 606.951 591.248 630.405 620.18 630.405C649.113 630.405 672.567 606.951 672.567 578.018C672.567 549.086 649.113 525.632 620.18 525.632C591.248 525.632 567.793 549.086 567.793 578.018Z" fill="#04668C" fill-opacity="0.79"/>
<path d="M467.071 684.745C467.071 720.276 438.267 749.08 402.736 749.08C367.204 749.08 338.401 720.276 338.401 684.745C338.401 649.214 367.204 620.41 402.736 620.41C438.267 620.41 467.071 649.214 467.071 684.745ZM350.349 684.745C350.349 713.677 373.803 737.132 402.736 737.132C431.668 737.132 455.123 713.677 455.123 684.745C455.123 655.813 431.668 632.358 402.736 632.358C373.803 632.358 350.349 655.813 350.349 684.745Z" fill="#37B34A" fill-opacity="0.7"/>
<path d="M252.62 620.909C252.62 656.44 223.817 685.244 188.285 685.244C152.754 685.244 123.95 656.44 123.95 620.909C123.95 585.377 152.754 556.573 188.285 556.573C223.817 556.573 252.62 585.377 252.62 620.909ZM135.898 620.909C135.898 649.841 159.353 673.295 188.285 673.295C217.218 673.295 240.672 649.841 240.672 620.909C240.672 591.976 217.218 568.522 188.285 568.522C159.353 568.522 135.898 591.976 135.898 620.909Z" fill="#653780" fill-opacity="0.7"/>
<path d="M142.161 426.797C152.411 460.818 133.142 496.707 99.1215 506.958C65.1008 517.208 29.2118 497.939 18.961 463.918C8.71026 429.898 27.9796 394.009 62.0003 383.758C96.0209 373.507 131.91 392.776 142.161 426.797ZM30.4015 460.471C38.7484 488.174 67.9721 503.864 95.6744 495.517C123.377 487.17 139.067 457.946 130.72 430.244C122.373 402.542 93.1496 386.851 65.4474 395.198C37.7451 403.545 22.0545 432.769 30.4015 460.471Z" fill="#9D7B00" fill-opacity="0.7"/>
<path d="M158.86 256.84C158.86 292.372 130.056 321.175 94.5243 321.175C58.9929 321.175 30.189 292.372 30.189 256.84C30.189 221.309 58.9929 192.505 94.5243 192.505C130.056 192.505 158.86 221.309 158.86 256.84ZM42.1375 256.84C42.1375 285.773 65.5919 309.227 94.5243 309.227C123.457 309.227 146.911 285.773 146.911 256.84C146.911 227.908 123.457 204.453 94.5243 204.453C65.5919 204.453 42.1375 227.908 42.1375 256.84Z" fill="#002D48" fill-opacity="0.7"/>
<path d="M619.822 550.373C614.646 550.373 609.585 551.908 605.281 554.784C600.977 557.66 597.623 561.747 595.642 566.53C593.661 571.312 593.142 576.575 594.152 581.652C595.162 586.729 597.655 591.392 601.315 595.052C604.976 598.713 609.639 601.206 614.716 602.215C619.793 603.225 625.056 602.707 629.838 600.726C634.621 598.745 638.708 595.39 641.584 591.086C644.46 586.782 645.995 581.722 645.995 576.546C645.988 569.606 643.228 562.953 638.321 558.047C633.414 553.14 626.761 550.38 619.822 550.373ZM619.822 592.652C619.225 592.652 618.641 592.475 618.144 592.143C617.648 591.811 617.261 591.339 617.032 590.788C616.804 590.236 616.744 589.629 616.86 589.043C616.977 588.457 617.264 587.919 617.687 587.497C618.109 587.074 618.647 586.787 619.233 586.67C619.819 586.554 620.426 586.613 620.978 586.842C621.53 587.07 622.001 587.458 622.333 587.954C622.665 588.451 622.842 589.035 622.842 589.632C622.842 590.433 622.524 591.201 621.958 591.767C621.391 592.334 620.623 592.652 619.822 592.652ZM621.835 580.391V580.572C621.835 581.106 621.623 581.618 621.246 581.996C620.868 582.373 620.356 582.585 619.822 582.585C619.288 582.585 618.776 582.373 618.399 581.996C618.021 581.618 617.809 581.106 617.809 580.572V578.559C617.809 578.025 618.021 577.513 618.399 577.135C618.776 576.758 619.288 576.546 619.822 576.546C623.152 576.546 625.862 574.281 625.862 571.512C625.862 568.744 623.152 566.479 619.822 566.479C616.493 566.479 613.782 568.744 613.782 571.512V572.519C613.782 573.053 613.57 573.565 613.193 573.943C612.815 574.32 612.303 574.532 611.769 574.532C611.235 574.532 610.723 574.32 610.345 573.943C609.968 573.565 609.756 573.053 609.756 572.519V571.512C609.756 566.517 614.271 562.453 619.822 562.453C625.374 562.453 629.889 566.517 629.889 571.512C629.889 575.886 626.426 579.548 621.835 580.391Z" fill="#333333"/>
<path fill-rule="evenodd" clip-rule="evenodd" d="M210.624 80.2505C209.346 81.5286 209.346 83.5832 209.346 87.6967V109.507C209.346 115.675 209.346 118.762 211.263 120.677C212.661 122.077 214.683 122.454 218.07 122.557V116.05C218.07 115.472 218.3 114.917 218.709 114.508C219.118 114.099 219.673 113.869 220.252 113.869C220.83 113.869 221.385 114.099 221.794 114.508C222.203 114.917 222.433 115.472 222.433 116.05V122.594H235.519V116.05C235.519 115.472 235.749 114.917 236.158 114.508C236.567 114.099 237.122 113.869 237.7 113.869C238.278 113.869 238.833 114.099 239.242 114.508C239.651 114.917 239.881 115.472 239.881 116.05V122.557C243.268 122.454 245.29 122.077 246.688 120.677C248.605 118.762 248.605 115.675 248.605 109.507V87.6967C248.605 83.5832 248.605 81.5286 247.327 80.2505C246.049 78.9724 243.995 78.9724 239.881 78.9724H218.07C213.957 78.9724 211.902 78.9724 210.624 80.2505ZM220.252 92.0588C219.673 92.0588 219.118 92.2886 218.709 92.6976C218.3 93.1066 218.07 93.6614 218.07 94.2399C218.07 94.8183 218.3 95.3731 218.709 95.7821C219.118 96.1911 219.673 96.4209 220.252 96.4209H237.7C238.278 96.4209 238.833 96.1911 239.242 95.7821C239.651 95.3731 239.881 94.8183 239.881 94.2399C239.881 93.6614 239.651 93.1066 239.242 92.6976C238.833 92.2886 238.278 92.0588 237.7 92.0588H220.252ZM220.252 105.145H237.7C238.278 105.145 238.833 104.915 239.242 104.506C239.651 104.097 239.881 103.543 239.881 102.964C239.881 102.386 239.651 101.831 239.242 101.422C238.833 101.013 238.278 100.783 237.7 100.783H220.252C219.673 100.783 219.118 101.013 218.709 101.422C218.3 101.831 218.07 102.386 218.07 102.964C218.07 103.543 218.3 104.097 218.709 104.506C219.118 104.915 219.673 105.145 220.252 105.145Z" fill="#333333"/>
<path d="M704.738 392.173H687.29C686.133 392.173 685.023 392.633 684.205 393.451C683.387 394.269 682.927 395.378 682.927 396.535V405.259C682.927 406.416 683.387 407.526 684.205 408.344C685.023 409.162 686.133 409.622 687.29 409.622H689.471V418.346C689.471 418.924 689.7 419.479 690.11 419.888C690.519 420.297 691.073 420.527 691.652 420.527H696.014C696.592 420.527 697.147 420.297 697.556 419.888C697.965 419.479 698.195 418.924 698.195 418.346V409.622H704.738L715.643 418.346V383.449L704.738 392.173ZM725.458 400.897C725.458 404.627 723.364 408.008 720.006 409.622V392.173C723.343 393.809 725.458 397.19 725.458 400.897Z" fill="#333333"/>
<g clip-path="url(#clip0_11612_3575)">
<path d="M61.3869 423.362C57.2623 423.362 53.9089 426.297 53.9089 429.905V462.621C53.9089 466.23 57.2623 469.165 61.3869 469.165H98.7765C102.901 469.165 106.254 466.23 106.254 462.621V429.905C106.254 426.297 102.901 423.362 98.7765 423.362H61.3869ZM68.8648 442.992C70.9329 442.992 72.6038 444.454 72.6038 446.263V456.078C72.6038 457.888 70.9329 459.35 68.8648 459.35C66.7967 459.35 65.1258 457.888 65.1258 456.078V446.263C65.1258 444.454 66.7967 442.992 68.8648 442.992ZM76.3427 436.449C76.3427 434.639 78.0136 433.177 80.0817 433.177C82.1498 433.177 83.8207 434.639 83.8207 436.449V456.078C83.8207 457.888 82.1498 459.35 80.0817 459.35C78.0136 459.35 76.3427 457.888 76.3427 456.078V436.449ZM91.2986 449.535C93.3667 449.535 95.0376 450.997 95.0376 452.807V456.078C95.0376 457.888 93.3667 459.35 91.2986 459.35C89.2305 459.35 87.5596 457.888 87.5596 456.078V452.807C87.5596 450.997 89.2305 449.535 91.2986 449.535Z" fill="#333333"/>
</g>
<path d="M399.065 678.179L397.935 675.413L396.801 678.179H399.065ZM388.666 665.097C387.075 665.097 385.55 665.729 384.425 666.854C383.3 667.979 382.668 669.504 382.668 671.095V698.358C382.668 699.949 383.3 701.474 384.425 702.599C385.55 703.724 387.075 704.356 388.666 704.356H402.346C400.886 702.078 400.112 699.428 400.116 696.722C400.116 694.79 400.503 692.949 401.203 691.27H388.666C388.232 691.27 387.816 691.097 387.509 690.791C387.202 690.484 387.03 690.068 387.03 689.634C387.03 689.2 387.202 688.784 387.509 688.477C387.816 688.17 388.232 687.998 388.666 687.998H403.118C404.442 686.298 406.138 684.924 408.075 683.979C410.011 683.034 412.138 682.543 414.293 682.545C416.999 682.541 419.649 683.315 421.927 684.774V671.095C421.927 669.504 421.295 667.979 420.17 666.854C419.046 665.729 417.52 665.097 415.929 665.097H388.666ZM396.3 698.903H388.666C388.232 698.903 387.816 698.731 387.509 698.424C387.202 698.118 387.03 697.701 387.03 697.268C387.03 696.834 387.202 696.418 387.509 696.111C387.816 695.804 388.232 695.632 388.666 695.632H396.3C396.733 695.632 397.15 695.804 397.456 696.111C397.763 696.418 397.935 696.834 397.935 697.268C397.935 697.701 397.763 698.118 397.456 698.424C397.15 698.731 396.733 698.903 396.3 698.903ZM399.449 670.471L404.352 682.471C404.516 682.873 404.514 683.324 404.346 683.724C404.179 684.124 403.859 684.441 403.457 684.605C403.055 684.77 402.604 684.768 402.204 684.6C401.804 684.432 401.487 684.112 401.323 683.71L400.4 681.451H395.466L394.542 683.71C394.372 684.103 394.054 684.414 393.658 684.576C393.261 684.738 392.817 684.738 392.42 684.576C392.024 684.413 391.707 684.102 391.537 683.709C391.368 683.315 391.36 682.871 391.514 682.471L396.422 670.471C396.545 670.171 396.754 669.914 397.024 669.733C397.294 669.552 397.611 669.455 397.935 669.455C398.26 669.455 398.577 669.552 398.847 669.733C399.116 669.914 399.326 670.171 399.449 670.471ZM412.112 671.088V673.815H414.839C415.273 673.815 415.689 673.987 415.995 674.294C416.302 674.601 416.474 675.017 416.474 675.45C416.474 675.884 416.302 676.3 415.995 676.607C415.689 676.914 415.273 677.086 414.839 677.086H412.112V679.813C412.112 680.246 411.94 680.662 411.633 680.969C411.326 681.276 410.91 681.448 410.477 681.448C410.043 681.448 409.627 681.276 409.32 680.969C409.013 680.662 408.841 680.246 408.841 679.813V677.086H406.114C405.681 677.086 405.264 676.914 404.958 676.607C404.651 676.3 404.479 675.884 404.479 675.45C404.479 675.017 404.651 674.601 404.958 674.294C405.264 673.987 405.681 673.815 406.114 673.815H408.841V671.088C408.841 670.654 409.013 670.238 409.32 669.932C409.627 669.625 410.043 669.453 410.477 669.453C410.91 669.453 411.326 669.625 411.633 669.932C411.94 670.238 412.112 670.654 412.112 671.088ZM426.289 696.722C426.289 693.541 425.025 690.49 422.776 688.24C420.526 685.99 417.475 684.726 414.293 684.726C411.112 684.726 408.061 685.99 405.811 688.24C403.561 690.49 402.298 693.541 402.298 696.722C402.298 699.904 403.561 702.955 405.811 705.205C408.061 707.454 411.112 708.718 414.293 708.718C417.475 708.718 420.526 707.454 422.776 705.205C425.025 702.955 426.289 699.904 426.289 696.722ZM415.384 697.813L415.386 703.272C415.386 703.561 415.271 703.839 415.067 704.043C414.862 704.248 414.585 704.363 414.296 704.363C414.006 704.363 413.729 704.248 413.524 704.043C413.32 703.839 413.205 703.561 413.205 703.272V697.813H407.741C407.452 697.813 407.175 697.698 406.97 697.493C406.766 697.289 406.651 697.012 406.651 696.722C406.651 696.433 406.766 696.156 406.97 695.951C407.175 695.747 407.452 695.632 407.741 695.632H413.203V690.179C413.203 689.89 413.318 689.613 413.522 689.408C413.727 689.204 414.004 689.089 414.293 689.089C414.583 689.089 414.86 689.204 415.065 689.408C415.269 689.613 415.384 689.89 415.384 690.179V695.632H420.843C421.132 695.632 421.41 695.747 421.614 695.951C421.819 696.156 421.934 696.433 421.934 696.722C421.934 697.012 421.819 697.289 421.614 697.493C421.41 697.698 421.132 697.813 420.843 697.813H415.384Z" fill="#333333"/>
<g clip-path="url(#clip1_11612_3575)">
<path d="M495.467 74.8469V79.7543H466.023V64.754L471.895 70.6102L474.202 68.3037L464.387 58.4889L454.572 68.3037L456.878 70.6102L462.751 64.754V79.7543C462.751 80.6219 463.096 81.4541 463.709 82.0676C464.323 82.6812 465.155 83.0259 466.023 83.0259H495.467C496.335 83.0259 497.167 82.6812 497.78 82.0676C498.394 81.4541 498.739 80.6219 498.739 79.7543V74.8469H495.467ZM498.739 48.6741V63.6744L504.611 57.8182L506.918 60.1247L497.103 69.9395L487.288 60.1247L489.594 57.8182L495.467 63.6744V48.6741H475.837V45.4025H495.467C496.335 45.4025 497.167 45.7472 497.78 46.3607C498.394 46.9743 498.739 47.8064 498.739 48.6741ZM467.658 53.5815H461.115C460.248 53.5815 459.415 53.2368 458.802 52.6233C458.188 52.0097 457.844 51.1776 457.844 50.3099V43.7667C457.844 42.899 458.188 42.0669 458.802 41.4533C459.415 40.8398 460.248 40.4951 461.115 40.4951H467.658C468.526 40.4951 469.358 40.8398 469.972 41.4533C470.585 42.0669 470.93 42.899 470.93 43.7667V50.3099C470.93 51.1776 470.585 52.0097 469.972 52.6233C469.358 53.2368 468.526 53.5815 467.658 53.5815ZM461.115 43.7667V50.3099H467.658V43.7667H461.115Z" fill="#333333"/>
</g>
<path d="M660.535 211.484V217.688H623.894V211.484C623.894 211.484 623.894 199.076 642.214 199.076C660.535 199.076 660.535 211.484 660.535 211.484ZM651.375 182.016C651.375 179.868 650.838 177.769 649.831 175.984C648.825 174.199 647.394 172.807 645.72 171.985C644.046 171.164 642.204 170.949 640.427 171.367C638.65 171.786 637.018 172.82 635.737 174.339C634.456 175.857 633.583 177.792 633.23 179.898C632.877 182.004 633.058 184.187 633.751 186.17C634.445 188.154 635.619 189.85 637.125 191.043C638.632 192.236 640.403 192.872 642.214 192.872C644.644 192.872 646.974 191.729 648.692 189.693C650.41 187.657 651.375 184.895 651.375 182.016ZM660.378 199.076C661.987 200.552 663.304 202.428 664.235 204.571C665.167 206.715 665.691 209.075 665.77 211.484V217.688H676.239V211.484C676.239 211.484 676.239 200.224 660.378 199.076ZM657.918 171.159C656.117 171.147 654.355 171.785 652.867 172.989C654.457 175.622 655.311 178.778 655.311 182.016C655.311 185.253 654.457 188.41 652.867 191.042C654.355 192.246 656.117 192.884 657.918 192.872C660.348 192.872 662.678 191.729 664.396 189.693C666.113 187.657 667.079 184.895 667.079 182.016C667.079 179.136 666.113 176.375 664.396 174.339C662.678 172.303 660.348 171.159 657.918 171.159Z" fill="#333333"/>
<path d="M115.306 273.014C115.306 273.448 115.134 273.864 114.827 274.171C114.52 274.478 114.104 274.65 113.67 274.65H74.4109C73.9771 274.65 73.561 274.478 73.2543 274.171C72.9475 273.864 72.7751 273.448 72.7751 273.014C72.7751 272.58 72.9475 272.164 73.2543 271.858C73.561 271.551 73.9771 271.378 74.4109 271.378H113.67C114.104 271.378 114.52 271.551 114.827 271.858C115.134 272.164 115.306 272.58 115.306 273.014ZM115.306 241.934V264.835C115.306 265.703 114.961 266.535 114.348 267.149C113.734 267.762 112.902 268.107 112.034 268.107H76.0467C75.1791 268.107 74.3469 267.762 73.7334 267.149C73.1198 266.535 72.7751 265.703 72.7751 264.835V241.934C72.7751 241.066 73.1198 240.234 73.7334 239.621C74.3469 239.007 75.1791 238.662 76.0467 238.662H112.034C112.902 238.662 113.734 239.007 114.348 239.621C114.961 240.234 115.306 241.066 115.306 241.934ZM101.402 253.385C101.402 253.109 101.332 252.839 101.199 252.597C101.067 252.356 100.875 252.152 100.643 252.004L91.6461 246.279C91.3988 246.122 91.1139 246.034 90.821 246.025C90.5282 246.016 90.2382 246.085 89.9815 246.226C89.7247 246.367 89.5104 246.575 89.3612 246.827C89.212 247.079 89.1332 247.366 89.1331 247.659V259.11C89.1332 259.403 89.212 259.691 89.3612 259.943C89.5104 260.195 89.7247 260.402 89.9815 260.543C90.2382 260.684 90.5282 260.754 90.821 260.744C91.1139 260.735 91.3988 260.647 91.6461 260.49L100.643 254.765C100.875 254.617 101.067 254.413 101.199 254.172C101.332 253.931 101.402 253.66 101.402 253.385Z" fill="#333333"/>
<path d="M204.548 612.024L191.461 598.938H174.013C172.856 598.938 171.746 599.398 170.928 600.216C170.11 601.034 169.651 602.143 169.651 603.3V638.197C169.651 639.354 170.11 640.464 170.928 641.282C171.746 642.1 172.856 642.559 174.013 642.559H200.186C201.343 642.559 202.452 642.1 203.27 641.282C204.088 640.464 204.548 639.354 204.548 638.197V612.024ZM180.556 636.016H176.194V616.386H180.556V636.016ZM189.28 636.016H184.918V622.93H189.28V636.016ZM198.005 636.016H193.642V629.473H198.005V636.016ZM191.461 614.205H189.28V603.3L200.186 614.205H191.461Z" fill="#333333"/>
<defs>
<filter id="filter0_d_11612_3575" x="205.337" y="188.804" width="365.281" height="365.281" filterUnits="userSpaceOnUse" color-interpolation-filters="sRGB">
<feFlood flood-opacity="0" result="BackgroundImageFix"/>
<feColorMatrix in="SourceAlpha" type="matrix" values="0 0 0 0 0 0 0 0 0 0 0 0 0 0 0 0 0 0 127 0" result="hardAlpha"/>
<feMorphology radius="10" operator="dilate" in="SourceAlpha" result="effect1_dropShadow_11612_3575"/>
<feOffset dy="4"/>
<feGaussianBlur stdDeviation="25"/>
<feComposite in2="hardAlpha" operator="out"/>
<feColorMatrix type="matrix" values="0 0 0 0 0 0 0 0 0 0 0 0 0 0 0 0 0 0 0.25 0"/>
<feBlend mode="normal" in2="BackgroundImageFix" result="effect1_dropShadow_11612_3575"/>
<feBlend mode="normal" in="SourceGraphic" in2="effect1_dropShadow_11612_3575" result="shape"/>
</filter>
<clipPath id="clip0_11612_3575">
<rect width="52.3455" height="52.3455" fill="white" transform="translate(53.9089 420.091)"/>
</clipPath>
<clipPath id="clip1_11612_3575">
<rect width="52.3455" height="52.3455" fill="white" transform="translate(454.572 37.2235)"/>
</clipPath>
</defs>
</svg>
