<svg width="736" height="724" viewBox="0 0 736 724" fill="none" xmlns="http://www.w3.org/2000/svg">
<g clip-path="url(#clip0_11612_4409)">
<path d="M368.057 724C164.848 724 0.11377 638.733 0.11377 533.553C0.11377 428.37 164.848 343.103 368.057 343.103C571.266 343.103 736 428.37 736 533.553C736 638.733 571.266 724 368.057 724Z" fill="#F5F5F5"/>
<path d="M616.481 60.9536L630.537 69.0701C630.537 68.4422 630.414 67.8144 630.414 67.2018V63.1282C630.414 55.8693 635.513 52.9441 641.775 56.5584C644.481 58.2364 646.794 60.4772 648.558 63.1282C649.584 54.0163 656.734 50.6317 665.4 55.6395C674.786 61.0608 682.396 74.2464 682.396 85.0888V91.2145C682.465 93.6473 681.973 96.0633 680.956 98.2743L692.639 105.013C694.47 106.212 695.994 107.825 697.087 109.722C698.18 111.619 698.812 113.746 698.932 115.932C698.932 119.959 696.114 121.583 692.639 119.577L616.481 75.5173C614.658 74.3242 613.139 72.7206 612.046 70.8352C610.954 68.9499 610.317 66.835 610.188 64.6597C610.188 60.5708 613.005 58.9475 616.481 60.9536Z" fill="#EBEBEB"/>
<path d="M548.867 91.3983L559.478 97.524C559.417 97.0619 559.386 96.5963 559.386 96.1303V93.0676C559.386 87.6005 563.229 85.4104 567.96 88.1211C569.997 89.3749 571.741 91.0514 573.074 93.0368C573.839 86.1608 579.198 83.5881 585.782 87.3707C592.871 91.4596 598.613 101.414 598.613 109.592V114.186C598.665 116.022 598.293 117.846 597.526 119.515L606.36 124.584C607.743 125.488 608.893 126.706 609.717 128.137C610.542 129.568 611.018 131.174 611.107 132.823C611.107 135.886 608.979 137.096 606.36 135.58L548.882 102.394C547.499 101.49 546.347 100.273 545.52 98.8417C544.693 97.4108 544.213 95.8054 544.121 94.155C544.105 91.1225 546.249 89.8821 548.867 91.3983Z" fill="#EBEBEB"/>
<path d="M143.076 518.238C98.8225 518.238 62.9503 497.518 62.9503 471.957C62.9503 446.399 98.8225 425.679 143.076 425.679C187.326 425.679 223.198 446.399 223.198 471.957C223.198 497.518 187.326 518.238 143.076 518.238Z" fill="#E0E0E0"/>
<path d="M481.191 671.503C489.107 675.546 469.097 689.635 459.204 684.2L284.52 581.93L263.712 559.969C263.508 559.744 263.381 559.46 263.353 559.158C263.324 558.858 263.394 558.553 263.554 558.294C263.712 558.038 263.952 557.839 264.234 557.728C264.518 557.62 264.828 557.604 265.12 557.687L305.267 569.939L481.191 671.503Z" fill="#E0E0E0"/>
<path d="M630.108 639.542L697.079 600.858C700.861 598.684 700.861 595.146 697.079 592.972L322.323 376.811C320.204 375.738 317.863 375.18 315.485 375.18C313.11 375.18 310.769 375.738 308.65 376.811L241.663 415.495C237.898 417.669 237.898 421.207 241.663 423.381L616.435 639.542C618.554 640.615 620.896 641.173 623.271 641.173C625.647 641.173 627.989 640.615 630.108 639.542Z" fill="#E0E0E0"/>
<path d="M199.007 432.477C198.973 432.1 198.839 431.735 198.619 431.425C198.4 431.115 198.1 430.872 197.751 430.717C196.815 430.241 195.779 429.993 194.727 429.993C193.676 429.993 192.639 430.241 191.704 430.717C191.357 430.874 191.06 431.12 190.838 431.427C190.618 431.738 190.484 432.1 190.448 432.477L198.257 472.526C198.288 472.784 198.387 473.035 198.542 473.247C198.697 473.459 198.906 473.627 199.144 473.735C199.805 474.074 200.537 474.252 201.281 474.252C202.023 474.252 202.757 474.074 203.416 473.735C203.656 473.627 203.863 473.459 204.018 473.247C204.175 473.035 204.274 472.784 204.305 472.526L199.007 432.477Z" fill="#4A044E"/>
<path d="M88.2012 432.477C88.2322 432.1 88.364 431.74 88.5836 431.43C88.8007 431.12 89.0953 430.874 89.439 430.717C90.3875 430.231 91.4366 429.978 92.5014 429.978C93.5687 429.978 94.6179 430.231 95.5637 430.717C95.9074 430.874 96.2047 431.12 96.4217 431.43C96.6388 431.74 96.7732 432.1 96.8042 432.477L89.0126 472.523C88.9816 472.784 88.886 473.03 88.7335 473.242C88.5785 473.454 88.3743 473.624 88.1391 473.735C87.475 474.074 86.741 474.252 85.9942 474.252C85.2499 474.252 84.516 474.074 83.8518 473.735C83.6141 473.624 83.4099 473.454 83.2574 473.242C83.1049 473.03 83.0094 472.784 82.9784 472.523L88.2012 432.477Z" fill="#4A044E"/>
<path d="M138.804 438.404C138.837 438.026 138.972 437.667 139.191 437.36C139.414 437.052 139.713 436.812 140.06 436.659C140.995 436.183 142.031 435.935 143.083 435.935C144.132 435.935 145.169 436.183 146.107 436.659C146.451 436.814 146.748 437.057 146.97 437.362C147.19 437.67 147.324 438.029 147.363 438.404L146.107 495.528C146.076 495.786 145.978 496.037 145.82 496.249C145.665 496.461 145.458 496.629 145.218 496.737C144.556 497.068 143.825 497.241 143.083 497.241C142.342 497.241 141.61 497.068 140.946 496.737C140.708 496.629 140.499 496.461 140.344 496.249C140.189 496.037 140.091 495.786 140.06 495.528L138.804 438.404Z" fill="#4A044E"/>
<path d="M66.3977 401.956H66.4727C66.4727 390.624 73.8844 379.292 88.8576 370.654C118.807 353.364 167.36 353.364 197.291 370.654C212.267 379.292 219.691 390.562 219.691 401.956V408.082C219.523 419.261 212.037 430.409 197.232 438.939C167.298 456.231 118.745 456.231 88.7982 438.939C74.0213 430.409 66.5192 419.261 66.3357 408.082L66.3977 401.956Z" fill="#86198F"/>
<path d="M197.306 370.654C227.24 387.943 227.24 415.983 197.306 433.273C167.373 450.563 118.822 450.563 88.873 433.273C58.9239 415.983 58.9239 387.943 88.873 370.654C118.822 353.364 167.36 353.364 197.306 370.654Z" fill="#86198F"/>
<path opacity="0.45" d="M197.306 370.654C227.24 387.943 227.24 415.983 197.306 433.273C167.373 450.563 118.822 450.563 88.873 433.273C58.9239 415.983 58.9239 387.943 88.873 370.654C118.822 353.364 167.36 353.364 197.306 370.654Z" fill="white"/>
<g opacity="0.05">
<path d="M126.278 394.56C116.724 400.074 116.724 409.017 126.278 414.469C135.832 419.92 151.327 419.982 160.866 414.469C170.407 408.955 170.42 400.012 160.866 394.56C151.312 389.107 135.832 389.032 126.278 394.56Z" fill="black"/>
</g>
<path d="M158.785 405.768C167.114 397.285 171.999 376.09 163.884 369.351H122.543C114.429 376.09 119.313 397.269 127.627 405.768L127.841 405.998L128.131 406.275C128.376 406.505 128.622 406.735 128.883 406.949L129.082 407.102L129.71 407.578C130.053 407.831 130.418 408.061 130.795 408.265C137.625 412.217 148.725 412.217 155.568 408.265C155.937 408.066 156.289 407.821 156.656 407.578L157.237 407.133L157.483 406.934C157.741 406.74 157.982 406.523 158.204 406.29L158.54 405.967C158.63 405.913 158.713 405.846 158.785 405.768Z" fill="#EBEBEB"/>
<path d="M126.187 366.642C116.77 372.078 116.77 380.9 126.187 386.336C135.604 391.772 150.87 391.772 160.3 386.336C169.732 380.9 169.717 372.078 160.3 366.642C150.883 361.204 135.604 361.204 126.187 366.642Z" fill="#FAFAFA"/>
<path d="M132.862 370.501C127.136 373.807 127.136 379.168 132.862 382.477C136.077 384.105 139.631 384.953 143.236 384.953C146.841 384.953 150.394 384.105 153.609 382.477C159.351 379.168 159.351 373.807 153.609 370.501C150.394 368.873 146.841 368.025 143.236 368.025C139.631 368.025 136.077 368.873 132.862 370.501Z" fill="#EBEBEB"/>
<path d="M153.609 376.183C150.394 374.554 146.841 373.707 143.236 373.707C139.631 373.707 136.077 374.554 132.862 376.183C131.475 376.932 130.296 378.015 129.433 379.336C130.307 380.623 131.485 381.675 132.862 382.399C136.077 384.028 139.631 384.875 143.236 384.875C146.841 384.875 150.394 384.028 153.609 382.399C154.989 381.673 156.17 380.621 157.054 379.336C156.18 378.021 154.997 376.938 153.609 376.183Z" fill="#E0E0E0"/>
<path d="M134.134 379.336C131.198 376.353 128.671 372.998 126.616 369.351C123.156 363.225 122.512 355.003 124.303 354.039C126.094 353.072 133.397 361.219 133.397 361.219C132.723 357.771 132.459 354.256 132.617 350.746C132.924 345.294 134.255 340.332 135.819 339.336C137.38 338.341 140.887 345.217 142.385 350.208C143.887 355.202 144.789 359.307 144.789 359.307C145.383 355.414 146.28 351.573 147.469 347.82C149.291 342.63 150.945 341.464 152.216 341.97C153.487 342.474 154.343 344.909 154.728 351.803C154.86 355.104 154.754 358.41 154.405 361.695C154.405 361.695 156.979 358.862 159.84 356.12C162.979 353.057 164.313 352.69 165.215 353.256C166.119 353.824 166.362 358.526 161.494 367.314C159.08 371.791 155.979 375.862 152.309 379.383C152.309 379.383 145.616 383.671 134.134 379.336Z" fill="#86198F"/>
<path opacity="0.3" d="M134.134 379.336C131.198 376.353 128.671 372.998 126.616 369.351C123.156 363.225 122.512 355.003 124.303 354.039C126.094 353.072 133.397 361.219 133.397 361.219C132.723 357.771 132.459 354.256 132.617 350.746C132.924 345.294 134.255 340.332 135.819 339.336C137.38 338.341 140.887 345.217 142.385 350.208C143.887 355.202 144.789 359.307 144.789 359.307C145.383 355.414 146.28 351.573 147.469 347.82C149.291 342.63 150.945 341.464 152.216 341.97C153.487 342.474 154.343 344.909 154.728 351.803C154.86 355.104 154.754 358.41 154.405 361.695C154.405 361.695 156.979 358.862 159.84 356.12C162.979 353.057 164.313 352.69 165.215 353.256C166.119 353.824 166.362 358.526 161.494 367.314C159.08 371.791 155.979 375.862 152.309 379.383C152.309 379.383 145.616 383.671 134.134 379.336Z" fill="black"/>
<path d="M404.177 579.433L346.605 546.125C340.666 542.71 337.694 538.208 337.694 533.721C337.694 529.233 337.694 525.71 337.694 525.71L397.409 492.02C399.078 490.929 400.469 489.464 401.466 487.737C402.464 486.01 403.04 484.072 403.151 482.082V411.083L503.714 469.279V540.291C503.609 542.279 503.035 544.215 502.04 545.939C501.045 547.663 499.656 549.128 497.988 550.214L447.125 579.433C435.289 586.28 416.041 586.28 404.177 579.433Z" fill="#86198F"/>
<g opacity="0.6">
<path d="M404.177 579.433L346.607 546.125C340.666 542.71 337.694 538.208 337.694 533.721C337.694 529.233 337.694 525.71 337.694 525.71L397.409 492.02C399.078 490.929 400.469 489.464 401.466 487.737C402.464 486.01 403.04 484.072 403.151 482.082V411.083L503.714 469.277V540.291C503.609 542.279 503.035 544.215 502.04 545.939C501.045 547.663 499.657 549.128 497.988 550.214L447.125 579.433C435.289 586.28 416.041 586.28 404.177 579.433Z" fill="black"/>
</g>
<path opacity="0.3" d="M479.568 552.786V560.843L497.942 550.214C499.607 549.123 500.992 547.658 501.986 545.934C502.981 544.21 503.557 542.276 503.668 540.291V469.217L484.56 458.237C484.177 463.091 483.733 468.129 483.335 473.03L496.778 480.81V536.277C496.68 538.267 496.11 540.206 495.114 541.933C494.118 543.657 492.726 545.122 491.052 546.203L479.568 552.786Z" fill="black"/>
<path d="M496.778 536.217C496.673 538.205 496.099 540.141 495.104 541.865C494.109 543.589 492.721 545.055 491.052 546.14L447.125 571.425C435.258 578.269 416.011 578.285 404.131 571.425L346.53 538.13C334.663 531.286 334.663 520.168 346.53 513.306L390.473 488.021C392.14 486.933 393.53 485.465 394.525 483.738C395.52 482.012 396.094 480.073 396.2 478.083V422.6L496.763 480.794L496.778 536.217Z" fill="#86198F"/>
<path opacity="0.3" d="M496.778 536.217C496.673 538.205 496.099 540.141 495.104 541.865C494.109 543.589 492.721 545.055 491.052 546.14L447.125 571.425C435.258 578.269 416.011 578.285 404.131 571.425L346.53 538.13C334.663 531.286 334.663 520.168 346.53 513.306L390.473 488.021C392.14 486.933 393.53 485.465 394.525 483.738C395.52 482.012 396.094 480.073 396.2 478.083V422.6L496.763 480.794L496.778 536.217Z" fill="black"/>
<path opacity="0.5" d="M378.805 494.76L390.473 488.021C392.142 486.933 393.53 485.465 394.525 483.738C395.52 482.012 396.094 480.073 396.2 478.083V422.6L496.763 480.794V536.277C496.658 538.267 496.085 540.201 495.089 541.927C494.094 543.651 492.706 545.117 491.037 546.202L479.553 552.832L378.805 494.76Z" fill="black"/>
<path d="M337.679 525.71V533.721C337.679 538.223 340.741 542.695 346.592 546.141L404.177 579.417C410.486 582.793 417.538 584.546 424.694 584.517V576.54C417.538 576.569 410.486 574.816 404.177 571.441L346.592 538.13C340.666 534.716 337.679 530.213 337.679 525.71Z" fill="#86198F"/>
<path opacity="0.5" d="M337.679 525.71V533.721C337.679 538.223 340.741 542.695 346.592 546.141L404.177 579.417C410.486 582.793 417.538 584.546 424.694 584.517V576.54C417.538 576.569 410.486 574.816 404.177 571.441L346.592 538.13C340.666 534.716 337.679 530.213 337.679 525.71Z" fill="black"/>
<path d="M658.265 605.252C656.094 606.307 653.704 606.834 651.29 606.787C648.877 606.744 646.508 606.128 644.378 604.994L255.473 380.393C253.393 379.034 251.659 377.201 250.418 375.045C249.175 372.89 248.457 370.473 248.323 367.989V13.6938C248.405 11.2805 249.059 8.92094 250.227 6.80775C251.395 4.69452 253.047 2.88752 255.044 1.53429C257.215 0.482229 259.603 -0.0425446 262.011 0.00269561C264.423 0.0479357 266.79 0.661913 268.917 1.79463L657.806 226.394C659.893 227.751 661.629 229.582 662.875 231.737C664.12 233.893 664.838 236.312 664.971 238.798V593.003C664.905 595.43 664.262 597.805 663.096 599.938C661.93 602.068 660.274 603.89 658.265 605.252Z" fill="#86198F"/>
<path d="M644.378 604.916L255.473 380.318C253.388 378.956 251.651 377.121 250.408 374.965C249.162 372.807 248.444 370.385 248.31 367.898V13.6783C248.31 9.08408 251.524 7.26168 255.473 9.5435L644.378 234.142C646.465 235.499 648.201 237.33 649.447 239.486C650.692 241.642 651.41 244.061 651.543 246.547V600.765C651.543 605.345 648.328 607.198 644.378 604.916Z" fill="#86198F"/>
<path opacity="0.5" d="M644.378 604.916L255.473 380.318C253.388 378.956 251.651 377.121 250.408 374.965C249.162 372.807 248.444 370.385 248.31 367.898V13.6783C248.31 9.08408 251.524 7.26168 255.473 9.5435L644.378 234.142C646.465 235.499 648.201 237.33 649.447 239.486C650.692 241.642 651.41 244.061 651.543 246.547V600.765C651.543 605.345 648.328 607.198 644.378 604.916Z" fill="black"/>
<path d="M645.434 613.094C647.468 613.971 649.666 614.4 651.88 614.353C654.094 614.304 656.271 613.782 658.265 612.818C660.265 611.466 661.916 609.659 663.084 607.545C664.252 605.433 664.904 603.073 664.987 600.659V571.991L651.544 579.771V608.424C651.544 612.588 648.895 614.441 645.434 613.094Z" fill="#86198F"/>
<path opacity="0.5" d="M645.434 613.094C647.468 613.971 649.666 614.4 651.88 614.353C654.094 614.304 656.271 613.782 658.265 612.818C660.265 611.466 661.916 609.659 663.084 607.545C664.252 605.433 664.904 603.073 664.987 600.659V571.991L651.544 579.771V608.424C651.544 612.588 648.895 614.441 645.434 613.094Z" fill="black"/>
<path d="M651.543 579.771V608.408C651.543 613.001 648.328 614.839 644.378 612.544L255.473 387.959C253.388 386.597 251.651 384.764 250.408 382.606C249.162 380.448 248.444 378.028 248.31 375.539V346.84L651.543 579.771Z" fill="#86198F"/>
<path opacity="0.3" d="M651.543 579.709V608.408C651.543 613.001 648.328 614.839 644.378 612.544L255.473 387.959C253.388 386.597 251.651 384.764 250.408 382.606C249.162 380.448 248.444 378.028 248.31 375.539V346.84L651.543 579.709Z" fill="black"/>
<path d="M638.1 543.811V251.019C638.018 249.525 637.586 248.072 636.838 246.777C636.091 245.481 635.049 244.379 633.798 243.561L266.025 31.1826C263.65 29.8196 261.722 30.922 261.722 33.6634V326.534C261.805 328.025 262.236 329.475 262.983 330.768C263.73 332.063 264.771 333.161 266.025 333.976L633.798 546.308C636.171 547.671 638.1 546.554 638.1 543.811Z" fill="#86198F"/>
<path d="M638.1 543.811V251.019C638.018 249.525 637.586 248.072 636.838 246.777C636.091 245.481 635.049 244.379 633.798 243.561L266.025 31.1826C263.65 29.8196 261.722 30.922 261.722 33.6634V326.534C261.805 328.025 262.236 329.475 262.983 330.768C263.73 332.063 264.771 333.161 266.025 333.976L633.798 546.308C636.171 547.671 638.1 546.554 638.1 543.811Z" fill="#260C28"/>
<path opacity="0.7" d="M649.431 239.457C650.704 241.612 651.429 244.047 651.544 246.547V579.771L664.987 571.991V238.798C664.894 236.301 664.173 233.867 662.889 231.723L649.431 239.457Z" fill="black"/>
<path opacity="0.3" d="M248.338 12.4991C248.844 8.80839 251.829 7.47606 255.442 9.54348L644.347 234.142C646.465 235.456 648.21 237.29 649.415 239.472L662.858 231.708C661.645 229.533 659.901 227.7 657.79 226.378L268.873 1.87103C266.741 0.735793 264.373 0.120444 261.96 0.0751994C259.546 0.0299547 257.155 0.556095 254.985 1.61069C253.165 2.84861 251.633 4.46018 250.488 6.33779C249.341 8.21544 248.609 10.3159 248.338 12.4991Z" fill="black"/>
<path d="M601.155 571.683C602.007 572.187 602.968 572.477 603.957 572.526C605.366 572.71 606.797 572.459 608.06 571.807C609.062 571.122 609.886 570.21 610.467 569.145C611.047 568.08 611.366 566.894 611.398 565.681V292.169L604.676 296.041V569.616C604.676 571.239 603.865 572.174 602.701 572.174C602.155 572.131 601.627 571.962 601.155 571.683Z" fill="#F0F0F0"/>
<path d="M231.496 354.098C231.571 355.329 231.933 356.523 232.553 357.585C233.171 358.65 234.032 359.555 235.065 360.224L601.155 571.683C603.114 572.818 604.707 571.898 604.707 569.616V272.933L594.892 267.267C592.933 266.133 589.732 248.89 587.757 247.68L502.627 198.521C500.652 197.388 496.013 210.176 494.053 209.027L231.496 57.4158V354.098Z" fill="#FAFAFA"/>
<path d="M233.15 60.2183V354.098C233.217 355.047 233.502 355.964 233.975 356.789C234.45 357.611 235.104 358.314 235.892 358.846L601.981 570.259C602.208 570.404 602.465 570.492 602.732 570.52C603.069 570.52 603.069 569.662 603.069 569.615V273.866L594.066 268.661C592.642 267.833 591.754 265.063 589.748 257.941C589.032 254.889 588.048 251.906 586.808 249.028L502.444 200.313C501.443 201.667 500.547 203.095 499.764 204.586C497.467 208.629 496.181 210.712 494.313 210.712C493.929 210.712 493.553 210.606 493.226 210.405L233.15 60.2183ZM231.496 57.3699L494.053 208.981C494.131 209.029 494.221 209.056 494.313 209.058C496.304 209.058 500.438 198.338 502.367 198.338C502.452 198.315 502.542 198.315 502.627 198.338L587.757 247.497C589.732 248.645 592.933 265.874 594.892 267.084L604.707 272.933V569.615C604.707 571.239 603.911 572.174 602.732 572.174C602.187 572.151 601.658 571.981 601.2 571.683L235.065 360.224C234.032 359.555 233.171 358.65 232.553 357.585C231.933 356.523 231.571 355.329 231.496 354.098V57.3699Z" fill="#E0E0E0"/>
<path d="M608.06 283.882C609.064 283.2 609.892 282.29 610.475 281.225C611.058 280.16 611.38 278.971 611.413 277.756V249.962C611.343 248.737 610.988 247.546 610.376 246.482C609.765 245.419 608.914 244.513 607.891 243.836L241.802 32.4993C240.771 31.8461 239.582 31.4879 238.363 31.4633C237.143 31.4385 235.941 31.7484 234.884 32.3592C233.83 32.97 232.962 33.8584 232.375 34.9279C231.788 35.9973 231.507 37.2072 231.558 38.4257V66.1905C231.631 67.4201 231.99 68.6155 232.61 69.6797C233.23 70.7438 234.091 71.6472 235.125 72.3162L601.154 283.761C602.215 284.322 603.393 284.624 604.592 284.645C605.792 284.666 606.98 284.405 608.06 283.882Z" fill="#86198F"/>
<path opacity="0.4" d="M231.543 37.7216C231.788 35.8686 233.287 35.1947 235.065 36.1901L601.154 247.65C602.199 248.327 603.066 249.246 603.681 250.33L610.372 246.455C609.772 245.392 608.92 244.493 607.891 243.836L241.802 32.4993C240.815 31.8707 239.681 31.5132 238.512 31.4631C237.344 31.4132 236.184 31.6725 235.148 32.2145C234.111 32.7568 233.238 33.5627 232.613 34.5511C231.987 35.5396 231.633 36.6756 231.589 37.8442L231.543 37.7216Z" fill="white"/>
<path opacity="0.1" d="M603.681 250.33C604.318 251.391 604.671 252.599 604.707 253.836V296.119L611.428 292.244V249.962C611.436 249.819 611.436 249.676 611.428 249.533C611.401 249.234 611.355 248.938 611.291 248.645C611.099 247.872 610.8 247.13 610.403 246.44L603.681 250.33Z" fill="black"/>
<path d="M231.512 38.2882V57.3697L494.068 208.981C496.028 210.13 497.62 209.195 497.62 206.929V199.7C497.62 197.434 499.152 196.5 501.203 197.648L587.773 247.634C588.804 248.306 589.664 249.21 590.283 250.273C590.903 251.337 591.265 252.531 591.34 253.76V260.973C591.418 262.201 591.781 263.393 592.4 264.458C593.019 265.52 593.878 266.425 594.908 267.099L604.707 272.933V253.837C604.631 252.61 604.27 251.417 603.654 250.354C603.037 249.291 602.181 248.386 601.155 247.711L235.065 36.3739C233.104 35.0875 231.512 36.0216 231.512 38.2882Z" fill="#86198F"/>
<path d="M248.232 50.2486C245.751 48.8244 243.746 49.9883 243.746 52.8523C243.831 54.4101 244.281 55.9261 245.061 57.2777C245.839 58.6293 246.927 59.7782 248.232 60.6317C250.713 62.0559 252.734 60.8923 252.734 58.0283C252.646 56.4694 252.194 54.9529 251.411 53.6013C250.628 52.25 249.54 51.1016 248.232 50.2486Z" fill="white"/>
<path d="M264.399 59.575C261.921 58.1507 259.916 59.2994 259.916 62.1631C259.996 63.7215 260.445 65.2385 261.226 66.5906C262.006 67.9425 263.094 69.0911 264.399 69.9428C266.88 71.3823 268.885 70.2184 268.885 67.3547C268.803 65.7968 268.351 64.2806 267.573 62.929C266.792 61.5777 265.707 60.4285 264.399 59.575Z" fill="white"/>
<path d="M280.569 68.9015C278.088 67.4621 276.083 68.6257 276.083 71.4897C276.168 73.0475 276.618 74.5635 277.398 75.9151C278.176 77.2667 279.264 78.4156 280.569 79.2691C283.05 80.6933 285.055 79.5449 285.055 76.6812C284.972 75.1226 284.523 73.6056 283.745 72.2537C282.964 70.9019 281.877 69.7532 280.569 68.9015Z" fill="white"/>
<path d="M231.496 57.3699V80.571L604.707 296.119V272.933L597.373 268.692C595.413 267.557 594.755 265.828 593.821 262.566L591.325 253.929C590.544 250.866 589.794 248.89 587.757 247.803L502.627 198.644C500.652 197.511 499.106 197.388 497.605 199.869L494.543 205.413C493.425 207.342 492.859 208.476 490.899 207.342L231.496 57.3699Z" fill="#E6E6E6"/>
<path d="M604.707 272.902V296.119L611.428 292.244V269.059L604.707 272.902Z" fill="#E0E0E0"/>
<path d="M588.339 274.588L593.943 277.818L591.814 273.714C591.729 273.559 591.684 273.386 591.684 273.21C591.684 273.031 591.729 272.858 591.814 272.703C591.983 272.504 592.258 272.703 592.458 273.011L595.52 278.845C595.52 278.845 595.52 278.982 595.596 279.059C595.604 279.155 595.604 279.253 595.596 279.351C595.607 279.437 595.607 279.524 595.596 279.61C595.574 279.654 595.549 279.695 595.52 279.734L592.458 282.06C592.414 282.096 592.36 282.114 592.304 282.114C592.249 282.114 592.195 282.096 592.151 282.06C591.995 281.959 591.876 281.809 591.814 281.631C591.646 281.249 591.677 280.819 591.814 280.682L593.943 279.028L588.339 275.797C588.197 275.683 588.082 275.539 588.005 275.373C587.928 275.21 587.891 275.03 587.895 274.849C587.895 274.634 588.094 274.466 588.339 274.588Z" fill="#4A044E"/>
<path d="M583.669 271.876L578.065 268.645L580.209 267.006C580.3 266.862 580.348 266.696 580.348 266.523C580.348 266.352 580.3 266.187 580.209 266.042C580.056 265.66 579.765 265.476 579.581 265.613L576.519 267.955C576.477 267.988 576.446 268.03 576.427 268.079C576.411 268.164 576.411 268.252 576.427 268.34C576.412 268.441 576.412 268.544 576.427 268.645L576.519 268.875L579.581 274.724C579.64 274.864 579.742 274.983 579.872 275.06C579.917 275.104 579.978 275.128 580.04 275.128C580.103 275.128 580.163 275.104 580.209 275.06C580.296 274.911 580.342 274.74 580.342 274.564C580.342 274.388 580.296 274.218 580.209 274.065L578.065 269.963L583.669 273.194C583.914 273.331 584.113 273.194 584.113 272.765C584.106 272.595 584.063 272.427 583.986 272.274C583.91 272.119 583.802 271.985 583.669 271.876Z" fill="#4A044E"/>
<path d="M565.296 255.751C565.296 255.414 565.617 255.444 565.77 255.751L566.536 257.634C567.853 257.496 569.43 258.769 570.502 261.033C571.895 263.974 571.895 267.451 570.502 268.782C570.166 269.098 569.732 269.284 569.273 269.312C568.815 269.338 568.361 269.206 567.99 268.937C566.87 268.182 565.992 267.118 565.464 265.874C565.379 265.724 565.335 265.556 565.335 265.383C565.335 265.213 565.379 265.042 565.464 264.892C565.648 264.724 565.923 264.892 566.107 265.262C567.148 267.451 568.833 268.431 569.858 267.435C570.884 266.44 570.899 263.837 569.858 261.646C569.124 260.115 568.067 259.167 567.148 259.105L567.715 260.529C567.868 260.896 567.715 261.232 567.5 261.079L565.219 259.549C565.125 259.48 565.052 259.386 565.006 259.278C564.96 259.169 564.944 259.053 564.959 258.937L565.296 255.751Z" fill="#4A044E"/>
<path d="M505.092 209.088L503.04 204.77C502.925 204.564 502.864 204.332 502.864 204.096C502.864 203.86 502.925 203.628 503.04 203.422C503.285 203.192 503.683 203.422 503.913 203.927L505.965 208.246L508.001 206.286C508.246 206.056 508.629 206.286 508.874 206.791C508.997 206.994 509.062 207.227 509.062 207.465C509.062 207.702 508.997 207.935 508.874 208.139L506.837 210.145L508.874 214.464C508.997 214.667 509.062 214.9 509.062 215.137C509.062 215.375 508.997 215.608 508.874 215.811C508.815 215.864 508.739 215.893 508.66 215.893C508.581 215.893 508.504 215.864 508.445 215.811C508.245 215.683 508.09 215.495 508.001 215.275L505.965 210.956L503.913 212.917C503.854 212.97 503.778 212.999 503.699 212.999C503.62 212.999 503.543 212.97 503.484 212.917C503.285 212.788 503.13 212.601 503.04 212.381C502.925 212.175 502.864 211.943 502.864 211.707C502.864 211.471 502.925 211.239 503.04 211.033L505.092 209.088Z" fill="#4A044E"/>
<path d="M557.855 261.064V253.837C557.78 252.608 557.419 251.413 556.799 250.349C556.18 249.286 555.319 248.382 554.287 247.711L255.153 74.9814C253.178 73.8327 251.586 74.7669 251.586 77.0335V84.2619C251.659 85.4907 252.021 86.6851 252.641 87.749C253.261 88.8129 254.122 89.7165 255.153 90.3876L554.302 263.116C556.262 264.266 557.855 263.331 557.855 261.064Z" fill="#FAFAFA"/>
<path d="M260.006 90.9999C260.112 91.0175 260.22 91.0175 260.329 90.9999C260.528 90.9074 260.691 90.749 260.789 90.551C260.884 90.3532 260.913 90.1278 260.864 89.9125L260.512 86.9876L261.89 85.9922C262.009 85.8978 262.104 85.7766 262.169 85.6383C262.233 85.4998 262.262 85.3483 262.257 85.1958C262.262 84.958 262.213 84.7223 262.112 84.507C262.011 84.2916 261.861 84.1027 261.675 83.9554L259.577 82.3321C259.535 82.2825 259.504 82.2254 259.486 82.1636L258.551 79.1009C258.494 78.8486 258.362 78.6193 258.176 78.442C257.988 78.2647 257.75 78.1476 257.494 78.1055C257.323 78.0858 257.148 78.123 257 78.2114C256.85 78.3001 256.734 78.4348 256.667 78.5955L255.887 80.2648L254.111 79.5909C253.953 79.5204 253.778 79.5031 253.607 79.5418C253.439 79.5803 253.289 79.6729 253.178 79.8052C253.031 80.0172 252.953 80.2679 252.953 80.5251C252.953 80.782 253.031 81.033 253.178 81.2447L254.708 84.0931C254.716 84.1492 254.716 84.2058 254.708 84.2617L254.341 86.8346C254.313 87.0698 254.339 87.3086 254.419 87.5317C254.499 87.755 254.631 87.9566 254.801 88.121C254.902 88.2389 255.029 88.3301 255.173 88.3862C255.318 88.4423 255.473 88.4617 255.628 88.4426L257.267 88.1823L259.117 90.5406C259.218 90.6846 259.349 90.8017 259.505 90.8821C259.66 90.9622 259.833 91.0028 260.006 90.9999ZM261.016 85.0275L259.639 86.0229C259.497 86.1392 259.388 86.2912 259.324 86.4634C259.259 86.6355 259.241 86.8216 259.272 87.0028L259.515 88.9631L258.277 87.4316C258.168 87.281 258.026 87.1595 257.861 87.0791C257.696 86.9987 257.512 86.962 257.326 86.9723L255.613 87.1866C255.6 87.121 255.6 87.0535 255.613 86.9876L255.98 84.4149C256.008 84.0973 255.943 83.778 255.796 83.496L254.463 80.9997L255.734 81.5052C255.936 81.5882 256.16 81.59 256.365 81.5099C256.566 81.43 256.732 81.2747 256.822 81.0764L257.435 79.7592L258.277 82.5006C258.362 82.809 258.546 83.0822 258.796 83.2815L260.895 84.813C260.954 84.8714 260.996 84.9459 261.016 85.0275Z" fill="#E0E0E0"/>
<path d="M247.374 74.0931C247.648 74.1011 247.919 74.0166 248.139 73.8529C248.359 73.6896 248.519 73.4564 248.591 73.1915C248.664 72.9263 248.645 72.6448 248.54 72.3915C248.431 72.1384 248.242 71.9288 248.002 71.796L237.957 65.9918C237.817 65.8993 237.657 65.8365 237.492 65.807C237.326 65.7778 237.156 65.783 236.99 65.8217C236.828 65.8608 236.673 65.9329 236.538 66.0334C236.401 66.1342 236.287 66.2617 236.205 66.4077C236.12 66.5537 236.065 66.7156 236.047 66.8831C236.026 67.0508 236.039 67.2206 236.089 67.3824C236.138 67.5442 236.218 67.6944 236.326 67.8239C236.435 67.9534 236.567 68.0596 236.716 68.1359L246.762 73.9245C246.945 74.0388 247.16 74.0972 247.374 74.0931Z" fill="#4A044E"/>
<path d="M247.374 79.9734C247.591 79.9755 247.806 79.9197 247.994 79.8121C248.18 79.7046 248.338 79.5487 248.447 79.3611C248.609 79.0757 248.653 78.7381 248.571 78.4205C248.488 78.1025 248.284 77.8301 248.002 77.6611L237.957 71.8722C237.817 71.7895 237.662 71.7354 237.5 71.7129C237.339 71.6905 237.174 71.7003 237.016 71.7416C236.859 71.7827 236.709 71.8549 236.58 71.9533C236.45 72.0521 236.342 72.1754 236.259 72.3165C236.176 72.4569 236.125 72.6122 236.101 72.7732C236.081 72.9345 236.094 73.0981 236.135 73.2548C236.179 73.4117 236.251 73.5585 236.352 73.6864C236.453 73.8146 236.577 73.9214 236.719 74.001L246.762 79.8051C246.945 79.9194 247.16 79.9778 247.374 79.9734Z" fill="#4A044E"/>
<path d="M247.374 85.7011C247.648 85.7019 247.914 85.6127 248.131 85.447C248.348 85.2816 248.503 85.0492 248.576 84.7855C248.646 84.5222 248.63 84.2425 248.527 83.9899C248.423 83.7374 248.237 83.526 248.002 83.3885L237.957 77.5846C237.67 77.4228 237.332 77.3804 237.014 77.4665C236.696 77.5523 236.425 77.7596 236.259 78.0439C236.176 78.1842 236.125 78.3396 236.101 78.5009C236.081 78.6619 236.094 78.8255 236.135 78.9824C236.179 79.1391 236.251 79.2859 236.352 79.4138C236.453 79.542 236.577 79.6491 236.717 79.7284L246.762 85.5326C246.948 85.6396 247.16 85.6977 247.374 85.7011Z" fill="#4A044E"/>
<path d="M593.698 302.612C593.973 302.62 594.242 302.537 594.463 302.372C594.683 302.209 594.843 301.976 594.915 301.71C594.988 301.446 594.969 301.164 594.862 300.911C594.755 300.658 594.566 300.448 594.326 300.317L584.282 294.511C583.999 294.369 583.672 294.338 583.368 294.429C583.065 294.519 582.807 294.723 582.648 294.997C582.49 295.271 582.442 295.597 582.515 295.904C582.588 296.212 582.776 296.481 583.041 296.657L593.085 302.444C593.27 302.555 593.482 302.615 593.698 302.612Z" fill="#4A044E"/>
<path d="M593.698 308.417C593.915 308.417 594.128 308.363 594.317 308.254C594.505 308.148 594.661 307.991 594.77 307.805C594.852 307.663 594.907 307.507 594.929 307.345C594.951 307.184 594.942 307.019 594.9 306.861C594.859 306.704 594.787 306.556 594.688 306.424C594.59 306.295 594.467 306.187 594.326 306.104L584.282 300.314C584.142 300.234 583.987 300.18 583.827 300.156C583.667 300.136 583.503 300.143 583.347 300.185C583.19 300.226 583.043 300.298 582.914 300.397C582.786 300.495 582.678 300.619 582.597 300.759C582.515 300.901 582.46 301.056 582.438 301.216C582.416 301.379 582.425 301.544 582.467 301.702C582.508 301.86 582.58 302.007 582.679 302.136C582.777 302.268 582.9 302.377 583.041 302.459L593.085 308.247C593.27 308.36 593.482 308.417 593.698 308.417Z" fill="#4A044E"/>
<path d="M593.698 314.282C593.971 314.282 594.236 314.194 594.454 314.029C594.671 313.864 594.827 313.631 594.899 313.367C594.97 313.104 594.953 312.824 594.849 312.571C594.746 312.318 594.562 312.106 594.326 311.969L584.282 306.182C584.143 306.096 583.988 306.042 583.827 306.016C583.666 305.993 583.502 306.003 583.345 306.045C583.188 306.086 583.041 306.158 582.912 306.259C582.784 306.357 582.677 306.484 582.597 306.624C582.515 306.763 582.461 306.918 582.439 307.078C582.417 307.239 582.426 307.404 582.468 307.559C582.509 307.717 582.581 307.864 582.679 307.991C582.778 308.12 582.901 308.229 583.041 308.309L593.085 314.114C593.273 314.218 593.483 314.277 593.698 314.282Z" fill="#4A044E"/>
<path d="M504.617 251.493V260.392C504.617 262.214 503.331 262.948 501.754 262.044L382.433 193.039V177.51L501.739 246.516C502.577 247.06 503.275 247.795 503.775 248.659C504.275 249.525 504.564 250.495 504.617 251.493Z" fill="#E6E6E6"/>
<path d="M367.398 168.796C365.868 167.877 364.534 168.628 364.534 170.45V179.348C364.591 180.341 364.878 181.308 365.377 182.17C365.873 183.031 366.566 183.764 367.398 184.31L382.433 192.993V177.51L367.398 168.796Z" fill="#86198F"/>
<path d="M368.517 181.048L370.186 180.512C370.016 179.805 369.928 179.08 369.925 178.353C369.848 177.674 369.948 176.986 370.217 176.358C370.483 175.729 370.912 175.182 371.455 174.769C371.835 174.567 372.261 174.472 372.69 174.494C373.119 174.515 373.533 174.653 373.89 174.891C374.959 175.711 375.817 176.77 376.401 177.983C376.983 179.196 377.272 180.529 377.244 181.875C377.321 182.554 377.221 183.241 376.952 183.87C376.683 184.498 376.257 185.045 375.711 185.458C375.391 185.641 375.027 185.735 374.657 185.734C374.169 185.729 373.693 185.591 373.277 185.336C371.998 184.459 371.044 183.183 370.569 181.706L368.884 182.227C368.824 182.242 368.76 182.242 368.7 182.227C368.543 182.243 368.388 182.198 368.264 182.102C368.14 182.006 368.057 181.865 368.031 181.71C368.008 181.554 368.046 181.395 368.137 181.267C368.225 181.138 368.362 181.048 368.517 181.017V181.048ZM373.89 184.264C374.063 184.39 374.267 184.466 374.481 184.485C374.693 184.504 374.908 184.465 375.102 184.371C375.437 184.056 375.696 183.666 375.854 183.232C376.011 182.798 376.063 182.333 376.003 181.875C376.019 180.748 375.784 179.633 375.311 178.609C374.841 177.587 374.145 176.682 373.277 175.963C373.047 175.824 372.783 175.745 372.512 175.734C372.354 175.729 372.202 175.772 372.068 175.856C371.732 176.171 371.473 176.561 371.316 176.995C371.158 177.429 371.106 177.895 371.166 178.353C371.15 179.476 371.388 180.589 371.861 181.609C372.331 182.63 373.026 183.531 373.89 184.248V184.264Z" fill="#FAFAFA"/>
<path d="M554.21 276.808L571.435 286.715C572.268 287.253 572.961 287.982 573.459 288.838C573.957 289.696 574.244 290.657 574.299 291.647V300.513C574.299 302.338 573.012 303.072 571.435 302.167L554.21 292.198C553.379 291.658 552.688 290.926 552.194 290.068C551.699 289.207 551.414 288.243 551.362 287.253V278.447C551.362 276.64 552.633 275.888 554.21 276.808Z" fill="#86198F"/>
<path d="M254.646 103.803C256.6 105.078 258.223 106.794 259.388 108.814C260.554 110.833 261.226 113.098 261.352 115.426C261.352 119.714 258.293 121.445 254.646 119.316C252.692 118.04 251.064 116.322 249.896 114.3C248.728 112.277 248.054 110.009 247.924 107.677C247.924 103.389 250.943 101.659 254.646 103.803Z" fill="#86198F"/>
<path d="M255.429 110.602C255.639 110.606 255.843 110.553 256.026 110.449C256.238 110.298 256.409 110.095 256.522 109.859C256.634 109.623 256.685 109.362 256.667 109.101C256.639 108.488 256.466 107.889 256.158 107.356C255.853 106.824 255.424 106.372 254.907 106.038C254.698 105.873 254.445 105.774 254.178 105.755C253.912 105.736 253.646 105.797 253.414 105.931C253.184 106.064 252.997 106.264 252.881 106.505C252.765 106.745 252.726 107.015 252.765 107.279C252.796 107.894 252.974 108.492 253.284 109.024C253.592 109.557 254.023 110.008 254.54 110.342C254.809 110.501 255.114 110.591 255.429 110.602Z" fill="white"/>
<path d="M251.997 111.077C252.372 110.891 252.788 110.81 253.201 110.842C253.618 110.874 254.018 111.019 254.357 111.261L255.336 111.827C256.225 112.391 256.967 113.159 257.499 114.067C258.031 114.976 258.339 115.998 258.398 117.05V117.754C257.799 118.013 257.142 118.113 256.494 118.043C255.845 117.973 255.225 117.737 254.693 117.356C253.147 116.395 251.873 115.056 250.987 113.466V113.297C250.945 112.871 251.018 112.441 251.196 112.051C251.372 111.662 251.648 111.325 251.997 111.077Z" fill="white"/>
<path d="M278.396 124.569V122.195C278.396 119.5 280.034 118.259 282.055 119.423C283.171 120.223 284.089 121.275 284.727 122.493C285.365 123.711 285.706 125.062 285.73 126.437V128.566C285.776 130.028 286.205 131.453 286.97 132.7C287.159 133.027 287.265 133.395 287.275 133.773C287.275 134.462 286.862 134.768 286.358 134.477L277.768 129.531C277.489 129.325 277.259 129.058 277.101 128.75C276.941 128.442 276.855 128.101 276.848 127.754C276.837 127.621 276.858 127.488 276.904 127.363C276.954 127.239 277.029 127.127 277.124 127.034C277.556 126.795 277.907 126.433 278.135 125.994C278.359 125.555 278.45 125.059 278.396 124.569Z" fill="#86198F"/>
<path d="M280.233 131.736C280.243 132.395 280.409 133.043 280.714 133.628C281.019 134.213 281.458 134.719 281.993 135.105C282.972 135.656 283.768 135.105 283.768 133.772L280.233 131.736Z" fill="#86198F"/>
<path d="M310.058 135.84C309.59 135.562 309.068 135.385 308.528 135.319C308.104 135.27 307.675 135.355 307.303 135.565C306.941 135.785 306.66 136.111 306.492 136.499C306.293 137.032 306.215 137.601 306.262 138.168C306.257 138.683 306.313 139.197 306.43 139.699C306.541 140.148 306.683 140.588 306.859 141.016C307.027 141.419 307.215 141.813 307.425 142.196L308.037 143.298C308.221 143.651 308.404 144.018 308.557 144.37C308.704 144.709 308.812 145.064 308.88 145.427C308.895 145.601 308.936 145.771 309.001 145.932C309.053 146.055 309.138 146.161 309.247 146.238L310.978 147.234C311.084 147.234 311.177 147.234 311.236 147.234C311.28 147.187 311.314 147.131 311.335 147.071C311.358 147.01 311.366 146.946 311.361 146.882C311.363 146.41 311.296 145.94 311.162 145.488C311.038 145.044 310.885 144.609 310.702 144.186C310.503 143.773 310.304 143.359 310.074 142.977C309.844 142.594 309.66 142.211 309.461 141.874C309.262 141.537 309.125 141.185 308.986 140.863C308.872 140.576 308.81 140.269 308.802 139.96C308.802 139.531 308.911 139.255 309.11 139.148C309.309 139.041 309.645 139.148 310.074 139.332C310.441 139.525 310.753 139.81 310.978 140.159C311.146 140.434 311.286 140.727 311.392 141.032L311.603 141.798C311.653 142.005 311.779 142.186 311.958 142.303L313.686 143.298C313.717 143.321 313.756 143.333 313.795 143.333C313.834 143.333 313.87 143.321 313.901 143.298C313.937 143.256 313.963 143.207 313.978 143.154C313.994 143.102 313.999 143.046 313.994 142.992C313.971 142.396 313.88 141.805 313.717 141.231C313.524 140.55 313.268 139.889 312.952 139.255C312.619 138.587 312.208 137.96 311.728 137.387C311.268 136.775 310.704 136.251 310.058 135.84ZM308.833 149.991C308.833 150.155 308.869 150.317 308.942 150.465C308.999 150.597 309.094 150.709 309.216 150.787L310.991 151.813C311.009 151.83 311.03 151.844 311.053 151.853C311.074 151.862 311.097 151.867 311.123 151.867C311.146 151.867 311.169 151.862 311.193 151.853C311.216 151.844 311.237 151.83 311.252 151.813C311.296 151.766 311.33 151.71 311.35 151.65C311.373 151.589 311.381 151.525 311.376 151.461V149.271C311.371 149.105 311.33 148.943 311.252 148.796C311.205 148.659 311.112 148.54 310.991 148.459L309.216 147.433C309.177 147.401 309.128 147.383 309.079 147.383C309.027 147.383 308.98 147.401 308.942 147.433C308.9 147.478 308.869 147.532 308.851 147.59C308.833 147.648 308.825 147.709 308.833 147.77V149.991Z" fill="#86198F"/>
<path d="M339.516 193.483V223.928C339.516 226.21 337.986 227.129 335.95 225.995L296.232 203.024C295.201 202.352 294.34 201.448 293.723 200.384C293.103 199.321 292.741 198.127 292.666 196.898V166.499C292.666 164.233 294.196 163.299 296.232 164.447L336.04 187.419C337.048 188.094 337.885 188.993 338.488 190.045C339.09 191.096 339.444 192.273 339.516 193.483Z" fill="#86198F"/>
<path opacity="0.5" d="M339.516 193.483V223.928C339.516 226.21 337.986 227.129 335.95 225.995L296.232 203.024C295.201 202.352 294.34 201.448 293.723 200.384C293.103 199.321 292.741 198.127 292.666 196.898V166.499C292.666 164.233 294.196 163.299 296.232 164.447L336.04 187.419C337.048 188.094 337.885 188.993 338.488 190.045C339.09 191.096 339.444 192.273 339.516 193.483Z" fill="white"/>
<path d="M322.538 206.255V192.947C322.527 192.284 322.264 191.649 321.804 191.171C321.344 190.694 320.718 190.409 320.057 190.374L307.916 189.838C306.551 189.838 306.2 190.558 307.104 191.569L320.884 206.883C321.786 207.894 322.538 207.618 322.538 206.255Z" fill="#FAFAFA"/>
<path d="M281.244 157.923L249.09 139.316C248.201 138.811 247.483 139.179 247.483 140.128C247.521 140.665 247.689 141.185 247.969 141.646C248.248 142.106 248.633 142.494 249.09 142.777L281.244 161.384C282.13 161.89 282.773 161.522 282.773 160.573C282.742 160.042 282.59 159.526 282.324 159.066C282.058 158.606 281.688 158.215 281.244 157.923Z" fill="#4A044E"/>
<path d="M281.244 164.83L249.09 146.239C248.201 145.733 247.483 146.086 247.483 147.05C247.521 147.588 247.689 148.107 247.969 148.568C248.248 149.028 248.633 149.416 249.09 149.7L281.244 168.291C282.13 168.812 282.773 168.444 282.773 167.495C282.742 166.962 282.59 166.444 282.324 165.981C282.058 165.519 281.688 165.125 281.244 164.83Z" fill="#4A044E"/>
<path d="M281.244 171.553L249.09 152.946C248.201 152.441 247.483 152.809 247.483 153.758C247.521 154.295 247.689 154.815 247.969 155.275C248.248 155.736 248.633 156.124 249.09 156.407L281.244 174.999C282.13 175.52 282.773 175.152 282.773 174.202C282.745 173.672 282.59 173.155 282.324 172.695C282.058 172.235 281.688 171.843 281.244 171.553Z" fill="#4A044E"/>
<path d="M281.763 181.155L259.654 168.383C259.057 168.031 258.566 168.291 258.566 168.934C258.595 169.302 258.706 169.658 258.895 169.974C259.083 170.29 259.344 170.558 259.654 170.757L281.763 183.529C282.36 183.866 282.851 183.621 282.851 182.962C282.822 182.597 282.711 182.243 282.523 181.929C282.334 181.616 282.073 181.35 281.763 181.155Z" fill="#E0E0E0"/>
<path d="M281.763 185.902L259.654 173.13C259.057 172.778 258.566 173.038 258.566 173.682C258.595 174.049 258.706 174.405 258.895 174.721C259.083 175.037 259.344 175.305 259.654 175.504L281.763 188.276C282.36 188.613 282.851 188.368 282.851 187.71C282.822 187.344 282.711 186.99 282.523 186.677C282.334 186.363 282.073 186.098 281.763 185.902Z" fill="#E0E0E0"/>
<path d="M281.763 190.496L259.654 177.74C259.057 177.387 258.566 177.632 258.566 178.291C258.595 178.658 258.706 179.014 258.895 179.33C259.083 179.647 259.344 179.915 259.654 180.113L281.763 192.87C282.36 193.222 282.851 192.977 282.851 192.319C282.822 191.952 282.711 191.596 282.523 191.279C282.334 190.963 282.073 190.695 281.763 190.496Z" fill="#E0E0E0"/>
<path d="M339.516 247.619V278.033C339.516 280.316 337.986 281.233 335.95 280.101L296.232 257.129C295.201 256.457 294.34 255.553 293.723 254.49C293.103 253.426 292.741 252.232 292.666 251.003V220.605C292.666 218.323 294.196 217.404 296.232 218.537L336.04 241.509C337.053 242.188 337.896 243.094 338.498 244.154C339.103 245.215 339.452 246.401 339.516 247.619Z" fill="#86198F"/>
<path opacity="0.5" d="M339.516 247.619V278.033C339.516 280.316 337.986 281.233 335.95 280.101L296.232 257.129C295.201 256.457 294.34 255.553 293.723 254.49C293.103 253.426 292.741 252.232 292.666 251.003V220.605C292.666 218.323 294.196 217.404 296.232 218.537L336.04 241.509C337.053 242.188 337.896 243.094 338.498 244.154C339.103 245.215 339.452 246.401 339.516 247.619Z" fill="white"/>
<path d="M322.538 260.376V247.083C322.53 246.418 322.269 245.782 321.809 245.303C321.346 244.825 320.721 244.541 320.057 244.51L307.916 243.974C306.551 243.974 306.2 244.694 307.104 245.705L320.884 261.02C321.786 262.031 322.538 261.754 322.538 260.376Z" fill="#FAFAFA"/>
<path d="M281.244 212.044L249.09 193.452C248.201 192.947 247.483 193.299 247.483 194.264C247.521 194.801 247.689 195.321 247.969 195.781C248.248 196.242 248.633 196.63 249.09 196.913L281.244 215.505C282.13 216.025 282.773 215.658 282.773 214.708C282.742 214.176 282.59 213.658 282.324 213.195C282.058 212.732 281.688 212.338 281.244 212.044Z" fill="#4A044E"/>
<path d="M281.244 218.966L249.09 200.375C248.201 199.869 247.483 200.221 247.483 201.186C247.524 201.723 247.692 202.242 247.971 202.702C248.25 203.162 248.633 203.55 249.09 203.836L281.244 222.427C282.13 222.933 282.773 222.58 282.773 221.615C282.742 221.085 282.59 220.569 282.324 220.109C282.058 219.649 281.688 219.257 281.244 218.966Z" fill="#4A044E"/>
<path d="M281.244 225.673L249.09 207.082C248.201 206.576 247.483 206.929 247.483 207.894C247.521 208.431 247.689 208.951 247.969 209.411C248.248 209.872 248.633 210.259 249.09 210.543L281.244 229.134C282.13 229.64 282.773 229.287 282.773 228.323C282.742 227.793 282.585 227.278 282.321 226.818C282.055 226.358 281.685 225.966 281.244 225.673Z" fill="#4A044E"/>
<path d="M281.763 235.276L259.654 222.519C259.057 222.167 258.566 222.412 258.566 223.07C258.595 223.437 258.706 223.793 258.895 224.109C259.083 224.426 259.344 224.694 259.654 224.892L281.763 237.71C282.36 238.063 282.851 237.818 282.851 237.159C282.833 236.781 282.724 236.413 282.536 236.086C282.347 235.758 282.081 235.48 281.763 235.276Z" fill="#E0E0E0"/>
<path d="M281.763 240.023L259.654 227.266C259.057 226.914 258.566 227.159 258.566 227.817C258.595 228.185 258.706 228.541 258.895 228.857C259.083 229.173 259.344 229.441 259.654 229.64L281.763 242.397C282.36 242.749 282.851 242.504 282.851 241.845C282.822 241.478 282.711 241.122 282.523 240.806C282.334 240.489 282.073 240.221 281.763 240.023Z" fill="#E0E0E0"/>
<path d="M281.763 244.633L259.654 231.876C259.057 231.524 258.566 231.769 258.566 232.427C258.595 232.794 258.706 233.15 258.895 233.467C259.083 233.783 259.344 234.051 259.654 234.249L281.763 247.006C282.36 247.358 282.851 247.113 282.851 246.455C282.822 246.088 282.711 245.732 282.523 245.415C282.334 245.099 282.073 244.831 281.763 244.633Z" fill="#E0E0E0"/>
<path d="M339.516 301.71V332.122C339.516 334.405 337.986 335.325 335.95 334.19L296.232 311.219C295.201 310.547 294.34 309.642 293.723 308.58C293.103 307.515 292.741 306.321 292.666 305.093V274.693C292.666 272.429 294.196 271.493 296.232 272.641L336.04 295.615C337.051 296.292 337.891 297.197 338.495 298.254C339.097 299.311 339.446 300.492 339.516 301.71Z" fill="#86198F"/>
<path opacity="0.5" d="M339.516 301.71V332.122C339.516 334.405 337.986 335.325 335.95 334.19L296.232 311.219C295.201 310.547 294.34 309.642 293.723 308.58C293.103 307.515 292.741 306.321 292.666 305.093V274.693C292.666 272.429 294.196 271.493 296.232 272.641L336.04 295.615C337.051 296.292 337.891 297.197 338.495 298.254C339.097 299.311 339.446 300.492 339.516 301.71Z" fill="white"/>
<path d="M322.538 314.481V301.172C322.527 300.51 322.264 299.875 321.804 299.396C321.344 298.921 320.718 298.634 320.057 298.6L307.916 298.065C306.551 298.065 306.2 298.784 307.104 299.794L320.884 315.109C321.786 316.12 322.538 315.812 322.538 314.481Z" fill="#FAFAFA"/>
<path d="M281.244 266.148L249.09 247.542C248.201 247.037 247.483 247.404 247.483 248.354C247.521 248.891 247.689 249.411 247.969 249.872C248.248 250.332 248.633 250.72 249.09 251.003L281.244 269.609C282.13 270.116 282.773 269.749 282.773 268.798C282.745 268.268 282.59 267.751 282.324 267.291C282.06 266.831 281.688 266.44 281.244 266.148Z" fill="#4A044E"/>
<path d="M281.244 273.055L249.09 254.465C248.201 253.959 247.483 254.311 247.483 255.276C247.521 255.813 247.689 256.333 247.969 256.794C248.248 257.254 248.633 257.642 249.09 257.926L281.244 276.516C282.13 277.038 282.773 276.671 282.773 275.72C282.742 275.187 282.59 274.67 282.324 274.208C282.058 273.745 281.688 273.35 281.244 273.055Z" fill="#4A044E"/>
<path d="M281.244 279.778L249.09 261.173C248.201 260.666 247.483 261.033 247.483 261.984C247.521 262.522 247.689 263.041 247.969 263.501C248.248 263.962 248.633 264.349 249.09 264.634L281.244 283.223C282.13 283.746 282.773 283.378 282.773 282.427C282.745 281.897 282.59 281.38 282.324 280.92C282.06 280.46 281.688 280.07 281.244 279.778Z" fill="#4A044E"/>
<path d="M281.763 289.38L259.654 276.609C259.057 276.257 258.566 276.516 258.566 277.159C258.595 277.526 258.706 277.883 258.895 278.198C259.083 278.516 259.344 278.783 259.654 278.982L281.763 291.756C282.36 292.092 282.851 291.846 282.851 291.187C282.822 290.822 282.711 290.468 282.523 290.156C282.334 289.84 282.073 289.577 281.763 289.38Z" fill="#E0E0E0"/>
<path d="M281.763 294.129L259.654 281.357C259.057 281.003 258.566 281.264 258.566 281.908C258.595 282.275 258.706 282.631 258.895 282.947C259.083 283.262 259.344 283.531 259.654 283.73L281.763 296.501C282.36 296.84 282.851 296.595 282.851 295.935C282.822 295.571 282.711 295.217 282.523 294.901C282.334 294.589 282.073 294.322 281.763 294.129Z" fill="#E0E0E0"/>
<path d="M281.763 298.722L259.654 285.966C259.057 285.614 258.566 285.857 258.566 286.516C258.595 286.883 258.706 287.24 258.895 287.555C259.083 287.873 259.344 288.14 259.654 288.339L281.763 301.097C282.36 301.449 282.851 301.203 282.851 300.544C282.822 300.177 282.711 299.823 282.523 299.505C282.334 299.19 282.073 298.921 281.763 298.722Z" fill="#E0E0E0"/>
<path d="M339.516 355.846V386.258C339.516 388.525 337.986 389.445 335.95 388.311L296.232 365.34C295.201 364.668 294.34 363.765 293.72 362.701C293.1 361.638 292.738 360.444 292.666 359.214V328.814C292.666 326.55 294.196 325.629 296.232 326.764L336.04 349.735C337.053 350.412 337.896 351.32 338.498 352.379C339.103 353.439 339.452 354.626 339.516 355.846Z" fill="#86198F"/>
<path opacity="0.5" d="M339.516 355.846V386.258C339.516 388.525 337.986 389.445 335.95 388.311L296.232 365.34C295.201 364.668 294.34 363.765 293.72 362.701C293.1 361.638 292.738 360.444 292.666 359.214V328.814C292.666 326.55 294.196 325.629 296.232 326.764L336.04 349.735C337.053 350.412 337.896 351.32 338.498 352.379C339.103 353.439 339.452 354.626 339.516 355.846Z" fill="white"/>
<path d="M322.538 368.617V355.324C322.53 354.657 322.269 354.021 321.809 353.54C321.349 353.057 320.721 352.77 320.057 352.736L307.916 352.214C306.551 352.214 306.2 352.92 307.104 353.946L320.884 369.261C321.786 370.271 322.538 369.979 322.538 368.617Z" fill="#FAFAFA"/>
<path d="M281.244 320.284L249.09 301.694C248.201 301.172 247.483 301.539 247.483 302.491C247.521 303.028 247.687 303.548 247.966 304.008C248.245 304.468 248.63 304.856 249.09 305.14L281.244 323.745C282.13 324.252 282.773 323.9 282.773 322.934C282.742 322.404 282.59 321.887 282.324 321.427C282.058 320.967 281.688 320.576 281.244 320.284Z" fill="#4A044E"/>
<path d="M281.244 327.206L249.09 308.601C248.201 308.094 247.483 308.461 247.483 309.412C247.521 309.95 247.689 310.47 247.969 310.93C248.248 311.39 248.633 311.777 249.09 312.062L281.244 330.667C282.13 331.174 282.773 330.807 282.773 329.855C282.742 329.326 282.59 328.809 282.324 328.349C282.058 327.888 281.688 327.498 281.244 327.206Z" fill="#4A044E"/>
<path d="M281.244 333.914L249.09 315.308C248.201 314.802 247.483 315.171 247.483 316.12C247.521 316.658 247.687 317.177 247.966 317.637C248.245 318.1 248.63 318.488 249.09 318.769L281.244 337.375C282.13 337.881 282.773 337.514 282.773 336.563C282.742 336.033 282.59 335.519 282.324 335.059C282.058 334.596 281.688 334.206 281.244 333.914Z" fill="#4A044E"/>
<path d="M281.763 343.516L259.654 330.745C259.057 330.409 258.566 330.652 258.566 331.311C258.595 331.675 258.706 332.029 258.895 332.345C259.083 332.658 259.344 332.924 259.654 333.118L281.763 345.892C282.36 346.243 282.851 345.982 282.851 345.338C282.822 344.971 282.711 344.615 282.523 344.299C282.334 343.984 282.073 343.715 281.763 343.516Z" fill="#E0E0E0"/>
<path d="M281.763 348.264L259.654 335.493C259.057 335.154 258.566 335.4 258.566 336.059C258.595 336.423 258.706 336.778 258.895 337.09C259.083 337.406 259.344 337.669 259.654 337.866L281.763 350.637C282.36 350.991 282.851 350.73 282.851 350.087C282.822 349.72 282.711 349.363 282.523 349.048C282.334 348.73 282.073 348.463 281.763 348.264Z" fill="#E0E0E0"/>
<path d="M281.763 352.858L259.654 340.102C259.057 339.75 258.566 340.011 258.566 340.652C258.595 341.019 258.706 341.376 258.895 341.691C259.083 342.009 259.344 342.278 259.654 342.474L281.763 355.233C282.36 355.585 282.851 355.339 282.851 354.68C282.822 354.313 282.711 353.959 282.523 353.641C282.334 353.325 282.073 353.057 281.763 352.858Z" fill="#E0E0E0"/>
<path d="M586.777 502.248L466.706 432.906C464.747 431.774 463.14 432.586 463.156 434.713C463.243 435.912 463.61 437.073 464.231 438.102C464.851 439.133 465.704 440.001 466.722 440.64L586.777 509.982C588.737 511.117 590.345 510.305 590.345 508.175C590.257 506.976 589.888 505.815 589.268 504.787C588.649 503.758 587.795 502.887 586.777 502.248Z" fill="#4A044E"/>
<path d="M588.339 516.247L520.97 477.393C519.852 476.752 518.964 477.194 518.964 478.406C519.016 479.078 519.224 479.727 519.573 480.303C519.921 480.882 520.399 481.368 520.97 481.728L588.262 520.58C589.365 521.223 590.268 520.763 590.268 519.569C590.225 518.905 590.028 518.258 589.693 517.682C589.359 517.106 588.895 516.614 588.339 516.247Z" fill="#E0E0E0"/>
<path d="M562.126 514.699L476.123 465.05C474.164 463.903 472.557 464.714 472.557 466.857C472.645 468.057 473.012 469.217 473.632 470.246C474.252 471.277 475.105 472.146 476.123 472.784L562.126 522.433C564.101 523.568 565.694 522.771 565.694 520.626C565.606 519.427 565.237 518.266 564.617 517.237C563.998 516.209 563.144 515.338 562.126 514.699Z" fill="#4A044E"/>
<path d="M563.703 528.68L530.463 509.493C529.345 508.85 528.457 509.31 528.457 510.504C528.505 511.176 528.712 511.827 529.061 512.406C529.409 512.983 529.89 513.471 530.463 513.825L563.703 533.015C564.806 533.643 565.694 533.198 565.694 532.004C565.647 531.332 565.443 530.681 565.097 530.104C564.751 529.528 564.274 529.039 563.703 528.68Z" fill="#E0E0E0"/>
<path d="M581.051 523.521C583.779 525.299 586.048 527.696 587.676 530.518C589.304 533.338 590.245 536.502 590.421 539.754C590.421 545.727 586.226 548.162 581.051 545.161C578.322 543.383 576.051 540.987 574.422 538.167C572.794 535.344 571.854 532.18 571.681 528.926C571.681 522.955 575.876 520.536 581.051 523.521Z" fill="#86198F"/>
<path d="M582.138 533.046C582.433 533.056 582.726 532.984 582.98 532.831C583.285 532.632 583.531 532.351 583.69 532.022C583.849 531.694 583.916 531.327 583.883 530.963C583.842 530.104 583.595 529.27 583.163 528.525C582.732 527.781 582.128 527.153 581.403 526.69C581.105 526.481 580.755 526.354 580.391 526.325C580.027 526.3 579.662 526.372 579.336 526.537C579.031 526.739 578.785 527.018 578.626 527.346C578.467 527.675 578.4 528.042 578.433 528.406C578.474 529.262 578.719 530.097 579.148 530.841C579.577 531.583 580.177 532.214 580.898 532.679C581.273 532.906 581.7 533.033 582.138 533.046Z" fill="white"/>
<path d="M577.269 533.674C577.792 533.413 578.376 533.302 578.959 533.346C579.541 533.392 580.1 533.597 580.576 533.935L581.924 534.716C583.16 535.507 584.189 536.582 584.925 537.854C585.66 539.125 586.08 540.552 586.15 542.02V542.984C585.313 543.352 584.397 543.491 583.489 543.395C582.581 543.3 581.715 542.966 580.974 542.434C578.817 541.095 577.036 539.229 575.799 537.014V536.784C575.747 536.181 575.856 535.576 576.114 535.028C576.373 534.483 576.771 534.015 577.269 533.674Z" fill="white"/>
<path d="M419.411 436.52L379.694 413.548C377.719 412.416 376.112 413.334 376.112 415.616V422.83C376.187 424.061 376.551 425.255 377.174 426.317C377.797 427.382 378.66 428.284 379.694 428.956L419.411 451.927C421.386 453.06 422.978 452.142 422.978 449.86V442.645C422.903 441.418 422.541 440.224 421.921 439.159C421.303 438.096 420.443 437.192 419.411 436.52Z" fill="#86198F"/>
<path opacity="0.7" d="M419.411 436.52L379.694 413.548C377.719 412.416 376.112 413.334 376.112 415.616V422.83C376.187 424.061 376.551 425.255 377.174 426.317C377.797 427.382 378.66 428.284 379.694 428.956L419.411 451.927C421.386 453.06 422.978 452.142 422.978 449.86V442.645C422.903 441.418 422.541 440.224 421.921 439.159C421.303 438.096 420.443 437.192 419.411 436.52Z" fill="white"/>
<path d="M361.596 410.424V408.051C361.596 405.355 363.235 404.101 365.271 405.28C366.387 406.081 367.302 407.131 367.941 408.351C368.579 409.568 368.923 410.917 368.946 412.292V414.422C368.987 415.883 369.411 417.307 370.171 418.558C370.354 418.891 370.452 419.264 370.46 419.643C370.46 420.334 370.047 420.639 369.543 420.349L360.968 415.386C360.684 415.187 360.451 414.924 360.289 414.619C360.126 414.314 360.04 413.972 360.033 413.626C360.022 413.492 360.04 413.357 360.087 413.233C360.136 413.109 360.211 412.995 360.309 412.905C360.743 412.662 361.095 412.3 361.325 411.858C361.552 411.416 361.648 410.92 361.596 410.424Z" fill="#4A044E"/>
<path d="M363.509 417.576C363.516 418.237 363.679 418.886 363.984 419.473C364.292 420.06 364.731 420.564 365.271 420.946C366.235 421.512 367.031 420.946 367.031 419.613L363.509 417.576Z" fill="#4A044E"/>
<path d="M433.635 422.047C433.713 422.6 433.997 423.104 434.431 423.456C434.346 423.67 434.305 423.901 434.31 424.131C434.343 424.464 434.454 424.785 434.635 425.066C434.816 425.348 435.062 425.583 435.349 425.754L440.021 428.465V422.339C440.021 422.231 438.734 419.413 438.626 418.984C438.566 418.26 438.566 417.534 438.626 416.81C438.512 416.593 438.326 416.42 438.101 416.322C437.876 416.221 437.625 416.2 437.385 416.26C437.258 416.322 437.16 416.43 437.111 416.565C436.974 416.875 436.876 417.198 436.819 417.532C436.76 418.113 436.796 418.705 436.928 419.276L434.095 417.638C434.015 417.581 433.925 417.542 433.829 417.529C433.733 417.516 433.635 417.526 433.542 417.56C433.447 417.63 433.369 417.723 433.32 417.829C433.268 417.937 433.245 418.056 433.253 418.173C433.273 418.62 433.434 419.049 433.713 419.398C433.713 419.398 433.144 419.23 433.144 419.982C433.16 420.248 433.23 420.509 433.348 420.747C433.467 420.987 433.633 421.199 433.834 421.375C433.834 421.375 433.635 421.481 433.635 422.047Z" fill="#86198F"/>
<path d="M440.693 428.067V429.367C440.698 429.461 440.724 429.548 440.77 429.629C440.814 429.709 440.879 429.776 440.954 429.828L442.484 430.701C442.569 430.724 442.66 430.724 442.745 430.701V423.686L441.52 422.983L440.786 422.554C440.765 422.644 440.765 422.737 440.786 422.831L440.693 428.067Z" fill="#86198F"/>
<path d="M400.502 398.143C400.5 398.05 400.521 397.957 400.564 397.877C400.608 397.794 400.673 397.724 400.753 397.675C400.831 397.626 400.921 397.598 401.014 397.595C401.107 397.59 401.2 397.611 401.283 397.652C401.205 397.388 401.164 397.117 401.159 396.84C401.159 396.321 401.588 396.06 402.2 396.411L406.87 399.107V405.233C406.361 405.776 405.891 406.352 405.462 406.965C405.402 407.691 405.402 408.426 405.462 409.154C405.462 409.384 404.712 409.046 404.221 408.265C404.113 408.071 404.02 407.865 403.947 407.653C403.821 407.226 403.73 406.792 403.671 406.352C403.598 405.805 403.629 405.249 403.764 404.714L400.944 403.09C400.712 402.959 400.521 402.76 400.394 402.522C400.221 402.24 400.12 401.92 400.104 401.589C400.104 401.023 400.409 400.899 400.562 400.883C400.391 400.728 400.252 400.539 400.156 400.33C400.058 400.118 400.004 399.891 399.996 399.658C399.996 399.231 400.257 398.908 400.686 399.061C400.554 398.774 400.492 398.459 400.502 398.143Z" fill="#86198F"/>
<path d="M407.545 400.27V398.986C407.545 398.815 407.669 398.74 407.821 398.831L409.351 399.689C409.452 399.761 409.545 399.844 409.627 399.934V406.95L408.387 406.244L407.669 405.815C407.625 405.701 407.599 405.582 407.591 405.463L407.545 400.27Z" fill="#86198F"/>
<path d="M364.444 378.45L369.589 376.917V379.644C371.623 380.51 373.378 381.926 374.657 383.733C377.489 387.959 375.437 390.378 374.489 390.546C374.489 390.546 376.019 389.52 374.334 386.488C373.189 384.813 371.52 383.562 369.589 382.937V386L364.444 378.45Z" fill="#86198F"/>
<path d="M426.102 412.432L419.856 408.831C417.879 407.684 416.287 408.495 416.287 410.638C416.375 411.837 416.745 412.998 417.365 414.029C417.982 415.058 418.838 415.926 419.856 416.565L426.102 420.166C428.077 421.313 429.668 420.502 429.668 418.356C429.581 417.159 429.214 415.999 428.593 414.968C427.973 413.939 427.12 413.07 426.102 412.432Z" fill="#E0E0E0"/>
<path d="M392.631 393.105L386.384 389.489C384.41 388.357 382.818 389.169 382.818 391.299C382.906 392.495 383.273 393.656 383.893 394.687C384.513 395.716 385.366 396.584 386.384 397.223L392.631 400.839C394.608 401.971 396.199 401.175 396.199 399.032C396.112 397.833 395.742 396.672 395.122 395.641C394.502 394.612 393.649 393.744 392.631 393.105Z" fill="#E0E0E0"/>
<path d="M580.561 315.812L356.513 186.439C354.539 185.29 352.944 186.224 352.944 188.491V348.171C353.019 349.402 353.381 350.596 354.001 351.661C354.619 352.723 355.479 353.628 356.513 354.297L580.561 483.733C582.521 484.884 584.128 483.948 584.128 481.684V321.938C584.051 320.711 583.688 319.519 583.069 318.454C582.449 317.392 581.591 316.487 580.561 315.812Z" fill="#4A044E"/>
<path opacity="0.3" d="M554.67 458.374L390.227 363.809C389.17 363.197 388.299 363.641 388.299 364.789C388.348 365.435 388.55 366.063 388.883 366.616C389.219 367.172 389.679 367.642 390.227 367.989L554.67 462.556C555.742 463.169 556.599 462.724 556.599 461.574C556.553 460.928 556.353 460.299 556.018 459.744C555.683 459.188 555.221 458.718 554.67 458.374Z" fill="white"/>
<path d="M554.67 458.374L406.412 373.151C405.34 372.538 404.482 372.983 404.482 374.13C404.529 374.779 404.728 375.405 405.064 375.963C405.399 376.519 405.859 376.987 406.412 377.33L554.67 462.556C555.742 463.169 556.599 462.724 556.599 461.574C556.553 460.928 556.353 460.3 556.018 459.744C555.683 459.186 555.221 458.718 554.67 458.374Z" fill="white"/>
<path d="M574.789 470.228V474.332C574.793 474.433 574.822 474.531 574.872 474.619C574.923 474.707 574.994 474.782 575.08 474.836L575.876 475.297C575.905 475.317 575.939 475.33 575.975 475.33C576.01 475.333 576.045 475.325 576.076 475.307C576.107 475.289 576.132 475.263 576.148 475.232C576.164 475.198 576.171 475.162 576.167 475.129V471.024C576.159 470.923 576.129 470.825 576.079 470.737C576.029 470.652 575.959 470.574 575.876 470.517L575.08 470.06C574.911 469.967 574.789 470.044 574.789 470.228Z" fill="white"/>
<path d="M572.033 468.635V472.74C572.037 472.841 572.065 472.939 572.116 473.027C572.167 473.115 572.238 473.19 572.324 473.244L573.104 473.704C573.273 473.795 573.411 473.704 573.411 473.536V469.432C573.404 469.328 573.372 469.23 573.319 469.142C573.266 469.054 573.192 468.979 573.104 468.925L572.324 468.467C572.155 468.374 572.033 468.452 572.033 468.635Z" fill="white"/>
<path d="M561.07 462.432V466.537C561.077 466.637 561.107 466.736 561.158 466.824C561.208 466.909 561.277 466.984 561.361 467.043L561.713 467.255C561.881 467.348 562.004 467.255 562.004 467.087V462.983C562 462.882 561.971 462.783 561.921 462.696C561.87 462.608 561.799 462.533 561.713 462.479L561.361 462.264C561.332 462.243 561.298 462.23 561.262 462.228C561.227 462.228 561.191 462.236 561.16 462.254C561.13 462.272 561.105 462.298 561.089 462.329C561.073 462.362 561.066 462.396 561.07 462.432Z" fill="white"/>
<path d="M566.857 465.617V469.646C566.857 469.936 566.704 469.998 566.505 469.768L562.8 465.495C562.601 465.265 562.693 465.082 562.984 465.082H566.322C566.464 465.082 566.6 465.138 566.701 465.239C566.801 465.34 566.857 465.474 566.857 465.617Z" fill="white"/>
<path d="M369.036 352.307C369.163 352.307 369.284 352.258 369.372 352.167C369.463 352.079 369.512 351.958 369.512 351.834V350.485C369.512 350.405 369.491 350.324 369.45 350.255C369.411 350.185 369.351 350.128 369.282 350.087L367.093 348.83C367.041 348.799 366.984 348.779 366.922 348.768C366.863 348.761 366.801 348.763 366.741 348.779C366.682 348.794 366.628 348.823 366.581 348.861C366.532 348.898 366.493 348.947 366.465 348.998C366.408 349.107 366.393 349.231 366.424 349.347C366.457 349.464 366.529 349.565 366.633 349.627L368.579 350.746V351.834C368.579 351.955 368.625 352.074 368.711 352.162C368.796 352.253 368.915 352.304 369.036 352.307Z" fill="#FAFAFA"/>
<path d="M359.115 346.579C359.237 346.579 359.353 346.533 359.441 346.445C359.526 346.359 359.575 346.243 359.575 346.122V345.553L361.105 346.411C361.159 346.442 361.216 346.46 361.276 346.471C361.335 346.478 361.397 346.473 361.454 346.458C361.514 346.442 361.568 346.414 361.614 346.378C361.663 346.341 361.705 346.295 361.733 346.243C361.767 346.191 361.787 346.135 361.795 346.073C361.806 346.013 361.803 345.951 361.785 345.892C361.769 345.835 361.744 345.778 361.705 345.731C361.666 345.682 361.619 345.643 361.565 345.615L359.392 344.359C359.322 344.315 359.242 344.289 359.162 344.289C359.079 344.289 358.999 344.315 358.932 344.359C358.86 344.398 358.8 344.454 358.759 344.524C358.717 344.597 358.699 344.677 358.702 344.757V346.122C358.702 346.235 358.743 346.347 358.821 346.429C358.896 346.515 359.002 346.569 359.115 346.579Z" fill="#FAFAFA"/>
<path d="M369.036 358.479C369.114 358.497 369.191 358.497 369.266 358.479C369.339 358.441 369.398 358.381 369.442 358.311C369.483 358.242 369.509 358.164 369.512 358.081V356.719C369.491 356.608 369.434 356.51 369.349 356.437C369.264 356.368 369.155 356.329 369.044 356.329C368.933 356.329 368.827 356.368 368.742 356.437C368.656 356.51 368.597 356.608 368.579 356.719V357.161L367.046 356.306C366.94 356.249 366.816 356.233 366.7 356.264C366.584 356.295 366.483 356.37 366.418 356.474C366.362 356.582 366.346 356.709 366.377 356.828C366.408 356.947 366.483 357.05 366.586 357.117L368.762 358.371C368.845 358.428 368.938 358.466 369.036 358.479Z" fill="#FAFAFA"/>
<path d="M361.289 354.008C361.392 354.008 361.49 353.974 361.57 353.912C361.65 353.85 361.707 353.765 361.733 353.667C361.759 353.568 361.754 353.465 361.715 353.372C361.676 353.279 361.606 353.201 361.519 353.15L359.575 352.018V350.929C359.575 350.808 359.526 350.692 359.441 350.604C359.353 350.518 359.237 350.469 359.115 350.469C358.994 350.469 358.877 350.518 358.79 350.604C358.704 350.692 358.655 350.808 358.655 350.929V352.291C358.653 352.374 358.673 352.454 358.712 352.524C358.753 352.597 358.813 352.653 358.885 352.69L361.061 353.946C361.128 353.987 361.208 354.01 361.289 354.008Z" fill="#FAFAFA"/>
<path d="M374.029 357.285H374.104H374.993C375.014 357.288 375.032 357.285 375.05 357.28C375.068 357.272 375.086 357.262 375.101 357.249C375.114 357.236 375.127 357.221 375.135 357.203C375.143 357.185 375.145 357.166 375.145 357.146C375.138 357.009 375.138 356.872 375.145 356.735C375.145 356.58 375.145 356.427 375.145 356.29C375.148 356.195 375.117 356.102 375.055 356.029L374.076 354.835C374.055 354.796 374.044 354.755 374.044 354.711C374.044 354.67 374.055 354.628 374.076 354.589L374.533 353.548C374.533 353.548 374.626 353.548 374.672 353.548L375.727 354.512C375.763 354.538 375.807 354.551 375.851 354.551C375.895 354.551 375.936 354.538 375.972 354.512C376.104 354.401 376.254 354.31 376.417 354.253C376.453 354.238 376.484 354.212 376.502 354.181C376.523 354.147 376.531 354.106 376.525 354.07L376.202 352.537C376.202 352.537 376.202 352.462 376.202 352.431H376.295L377.337 352.537C377.381 352.545 377.425 352.563 377.461 352.589C377.5 352.615 377.528 352.651 377.549 352.69L378.117 354.222C378.161 354.326 378.241 354.409 378.347 354.452C378.567 354.553 378.776 354.677 378.973 354.819C379.066 354.819 379.159 354.819 379.203 354.819L379.725 354.023C379.725 354.023 379.846 354.023 379.924 354.023L381.056 355.218C381.12 355.29 381.154 355.383 381.149 355.479L380.826 356.549C380.8 356.629 380.8 356.714 380.826 356.794C381.009 357.102 381.195 357.391 381.348 357.714C381.405 357.802 381.492 357.867 381.593 357.898L382.557 358.128C382.606 358.138 382.653 358.159 382.694 358.19C382.733 358.224 382.766 358.265 382.787 358.312L383.276 359.95C383.281 359.968 383.281 359.987 383.278 360.007C383.273 360.025 383.265 360.041 383.252 360.056C383.242 360.072 383.226 360.085 383.208 360.092C383.193 360.1 383.172 360.103 383.154 360.103H382.265C382.226 360.103 382.188 360.118 382.157 360.147C382.128 360.175 382.113 360.217 382.113 360.255C382.144 360.537 382.144 360.819 382.113 361.098C382.113 361.194 382.146 361.284 382.206 361.359L383.201 362.569C383.221 362.605 383.232 362.649 383.232 362.69C383.232 362.734 383.221 362.775 383.201 362.814L382.725 363.856C382.725 363.856 382.648 363.856 382.604 363.856L381.547 362.889C381.513 362.863 381.474 362.85 381.43 362.85C381.389 362.85 381.35 362.863 381.317 362.889C381.182 363 381.032 363.093 380.872 363.166C380.833 363.176 380.802 363.202 380.782 363.236C380.761 363.269 380.756 363.311 380.766 363.349L381.087 364.88C381.087 364.88 381.087 364.957 381.087 364.988H380.996L379.955 364.88C379.906 364.877 379.859 364.861 379.818 364.836C379.779 364.807 379.745 364.771 379.725 364.727L379.174 363.197C379.12 363.104 379.04 363.029 378.944 362.982L378.621 362.799L378.301 362.615C378.301 362.615 378.117 362.538 378.086 362.615L377.549 363.427C377.525 363.44 377.494 363.448 377.466 363.448C377.435 363.448 377.407 363.44 377.381 363.427L376.249 362.233C376.215 362.202 376.189 362.163 376.174 362.119C376.158 362.078 376.151 362.031 376.156 361.987L376.479 360.914C376.505 360.829 376.505 360.739 376.479 360.653C376.285 360.364 376.109 360.064 375.957 359.751C375.903 359.661 375.815 359.596 375.714 359.568L374.732 359.338C374.641 359.338 374.533 359.229 374.517 359.154L374.029 357.5C374.001 357.5 373.972 357.487 373.951 357.469C373.933 357.448 373.92 357.42 373.92 357.391C373.92 357.363 373.933 357.337 373.951 357.316C373.972 357.296 374.001 357.285 374.029 357.285ZM379.218 361.297H379.601C379.813 361.294 380.017 361.232 380.19 361.116C380.366 360.997 380.5 360.832 380.583 360.638C380.658 360.47 380.704 360.289 380.72 360.103C380.727 360.002 380.727 359.899 380.72 359.795C380.663 358.697 380.211 357.652 379.448 356.856C379.221 356.611 378.957 356.399 378.668 356.228L378.407 356.091C378.177 355.985 377.926 355.934 377.673 355.936H377.549C377.37 355.962 377.197 356.034 377.055 356.148C376.913 356.259 376.805 356.409 376.737 356.58C376.575 357.252 376.593 357.952 376.789 358.614C376.985 359.276 377.355 359.875 377.856 360.348C378.208 360.79 378.681 361.121 379.218 361.297Z" fill="white"/>
<path d="M429.102 243.683C424.265 240.881 420.329 243.147 420.329 248.737C420.497 251.78 421.378 254.741 422.903 257.38C424.427 260.02 426.552 262.263 429.102 263.928C433.94 266.73 437.876 264.466 437.876 258.859C437.711 255.818 436.829 252.859 435.305 250.222C433.78 247.585 431.656 245.345 429.102 243.683Z" fill="#86198F"/>
<path d="M431.759 244.865V246.741L432.1 246.941V245.442L432.11 245.447L432.48 245.933V245.581L432.079 245.053L431.759 244.865Z" fill="#4A044E"/>
<path d="M409.459 236.715L366.909 212.212C365.731 211.538 364.796 212.013 364.796 213.284C364.845 213.992 365.062 214.679 365.429 215.286C365.796 215.894 366.305 216.404 366.909 216.776L409.459 241.279C410.622 241.952 411.571 241.478 411.571 240.207C411.511 239.501 411.292 238.819 410.925 238.213C410.558 237.608 410.056 237.095 409.459 236.715Z" fill="#86198F"/>
<path d="M410.116 244.923L380.919 228.078C380.123 227.618 379.464 227.94 379.464 228.813C379.497 229.301 379.647 229.773 379.898 230.192C380.151 230.61 380.503 230.962 380.919 231.217L410.116 248.063C410.912 248.522 411.571 248.201 411.571 247.328C411.537 246.84 411.39 246.367 411.137 245.949C410.883 245.53 410.535 245.179 410.116 244.923Z" fill="#E0E0E0"/>
<path d="M429.102 274.081C424.265 271.295 420.329 273.562 420.329 279.152C420.497 282.195 421.378 285.154 422.903 287.793C424.427 290.432 426.552 292.676 429.102 294.343C433.94 297.13 437.876 294.863 437.876 289.274C437.708 286.23 436.827 283.27 435.302 280.631C433.777 277.992 431.656 275.748 429.102 274.081Z" fill="#86198F"/>
<path d="M432.462 277.568V277.281L431.886 276.327C431.837 276.242 431.795 276.17 431.762 276.105C431.728 276.043 431.702 275.983 431.687 275.932C431.669 275.877 431.661 275.828 431.661 275.779C431.661 275.722 431.671 275.681 431.692 275.655C431.715 275.627 431.744 275.614 431.78 275.614C431.819 275.614 431.86 275.627 431.909 275.655C431.958 275.684 432.002 275.722 432.038 275.766C432.074 275.81 432.103 275.862 432.123 275.916C432.144 275.97 432.155 276.03 432.155 276.089L432.478 276.278C432.478 276.157 432.454 276.035 432.405 275.916C432.359 275.797 432.291 275.689 432.204 275.588C432.118 275.49 432.018 275.407 431.906 275.34C431.79 275.273 431.689 275.236 431.604 275.234C431.516 275.231 431.449 275.257 431.402 275.311C431.353 275.368 431.33 275.451 431.33 275.557C431.33 275.629 431.34 275.707 431.366 275.79C431.39 275.872 431.431 275.973 431.493 276.095C431.555 276.213 431.64 276.363 431.751 276.547L431.989 276.953V276.966L431.307 276.568V276.893L432.462 277.568Z" fill="#4A044E"/>
<path d="M409.459 267.115L366.909 242.611C365.731 241.937 364.796 242.412 364.796 243.668C364.845 244.378 365.062 245.067 365.429 245.676C365.796 246.286 366.305 246.8 366.909 247.175L409.459 271.693C410.622 272.367 411.571 271.892 411.571 270.62C411.514 269.912 411.294 269.227 410.927 268.619C410.56 268.009 410.059 267.495 409.459 267.115Z" fill="#86198F"/>
<path d="M410.116 275.337L380.919 258.492C380.123 258.017 379.464 258.354 379.464 259.211C379.497 259.699 379.647 260.172 379.898 260.591C380.151 261.01 380.503 261.361 380.919 261.617L410.116 278.462C410.912 278.922 411.571 278.584 411.571 277.728C411.537 277.242 411.385 276.772 411.134 276.356C410.881 275.942 410.532 275.593 410.116 275.337Z" fill="#E0E0E0"/>
<path d="M429.102 304.496C424.265 301.694 420.329 303.961 420.329 309.565C420.497 312.607 421.378 315.567 422.903 318.203C424.425 320.84 426.552 323.081 429.102 324.74C433.94 327.545 437.876 325.278 437.876 319.687C437.708 316.645 436.827 313.683 435.302 311.043C433.777 308.404 431.656 306.161 429.102 304.496Z" fill="#86198F"/>
<path d="M431.865 307.657C431.981 307.727 432.087 307.763 432.18 307.771C432.271 307.776 432.343 307.753 432.397 307.701C432.449 307.65 432.478 307.569 432.478 307.461L432.134 307.259C432.131 307.303 432.118 307.337 432.095 307.357C432.072 307.378 432.038 307.386 431.999 307.381C431.958 307.376 431.914 307.36 431.862 307.329C431.811 307.298 431.764 307.262 431.726 307.218C431.684 307.171 431.653 307.125 431.63 307.073C431.609 307.021 431.596 306.972 431.596 306.921C431.596 306.872 431.609 306.835 431.632 306.809C431.656 306.786 431.692 306.776 431.736 306.778C431.78 306.784 431.834 306.802 431.893 306.838L432.046 306.926V306.636L431.893 306.546C431.842 306.517 431.798 306.479 431.757 306.435C431.718 306.391 431.687 306.344 431.663 306.295C431.643 306.246 431.63 306.194 431.63 306.145C431.63 306.099 431.64 306.062 431.661 306.039C431.679 306.013 431.705 306.003 431.741 306.003C431.775 306.003 431.816 306.016 431.86 306.042C431.906 306.07 431.95 306.104 431.989 306.145C432.025 306.187 432.056 306.233 432.08 306.282C432.103 306.331 432.116 306.38 432.118 306.427L432.447 306.621C432.444 306.51 432.418 306.399 432.366 306.287C432.315 306.174 432.245 306.07 432.157 305.972C432.069 305.874 431.971 305.791 431.86 305.726C431.746 305.662 431.651 305.628 431.565 305.626C431.483 305.623 431.418 305.649 431.371 305.703C431.322 305.755 431.299 305.83 431.302 305.928C431.299 306.034 431.328 306.137 431.384 306.241C431.441 306.344 431.516 306.432 431.607 306.504V306.52C431.488 306.466 431.397 306.463 431.335 306.504C431.271 306.543 431.24 306.623 431.24 306.74C431.24 306.848 431.268 306.957 431.32 307.073C431.374 307.187 431.446 307.295 431.542 307.396C431.635 307.5 431.744 307.588 431.865 307.657Z" fill="#4A044E"/>
<path d="M409.459 297.527L366.909 272.933C365.731 272.259 364.796 272.75 364.796 274.006C364.845 274.714 365.064 275.404 365.431 276.012C365.798 276.622 366.305 277.136 366.909 277.513L409.459 302.108C410.622 302.78 411.571 302.291 411.571 301.035C411.514 300.327 411.294 299.642 410.927 299.032C410.56 298.424 410.059 297.91 409.459 297.527Z" fill="#86198F"/>
<path d="M410.116 305.752L380.919 288.907C380.123 288.447 379.464 288.783 379.464 289.641C379.497 290.13 379.647 290.603 379.898 291.019C380.151 291.438 380.503 291.789 380.919 292.045L410.116 308.89C410.912 309.366 411.571 309.03 411.571 308.172C411.54 307.681 411.393 307.205 411.139 306.784C410.886 306.362 410.535 306.008 410.116 305.752Z" fill="#E0E0E0"/>
<path d="M467.029 345.095C477.379 346.349 505.23 347.347 505.23 347.347C523.603 339.275 537.965 321.571 539.787 301.617L540.583 293.025C542.115 276.73 530.401 261.524 514.799 256.624C510.225 255.137 505.375 254.7 500.609 255.344C495.843 255.988 491.283 257.698 487.267 260.345C483.252 262.995 479.884 266.513 477.415 270.641C474.945 274.768 473.436 279.398 472.999 284.19C472.616 288.416 471.469 292.154 468.055 294.909C466.145 296.276 464.091 297.427 461.93 298.339C458.821 299.704 455.994 301.63 453.586 304.021C452.392 305.228 451.459 306.665 450.846 308.244C450.231 309.826 449.95 311.516 450.017 313.209C450.26 315.388 451.115 317.454 452.482 319.167C452.743 319.416 452.896 319.757 452.911 320.116C452.857 320.369 452.736 320.602 452.56 320.791C449.389 324.849 447.722 330.455 449.619 335.232C450.942 338.228 453.263 340.668 456.188 342.138C459.108 343.591 462.259 344.529 465.497 344.912L467.029 345.095Z" fill="#260C28"/>
<path d="M377.458 316.213C377.999 315.471 378.619 314.791 379.311 314.189C380.521 313.072 382.19 312.046 383.736 312.659C384.643 313.106 385.392 313.825 385.881 314.711C386.86 316.151 388.023 317.482 388.94 318.968C390.199 321.137 391.649 323.187 393.274 325.094C393.964 325.921 394.959 327.054 396.138 326.702C396.349 326.643 396.541 326.526 396.688 326.366C396.817 326.193 396.9 325.994 396.933 325.782C397.078 324.761 397.021 323.719 396.766 322.721C396.517 321.713 396.517 320.664 396.766 319.658C396.905 319.165 397.202 318.731 397.611 318.42C398.021 318.11 398.518 317.942 399.032 317.942C399.319 317.96 399.585 318.084 399.781 318.294C399.916 318.441 400.019 318.614 400.089 318.8C402.092 322.765 403.549 326.986 404.42 331.342C404.619 333.27 404.968 335.18 405.462 337.054C406.764 341.097 411.496 343.18 414.817 345.522C422.053 350.288 429.524 354.685 437.202 358.694C440.969 355.385 464.763 334.619 471.332 329.137C480.793 321.266 490.838 324.787 492.2 324.895C493.563 325.001 495.37 334.084 484.238 347.254C484.238 347.254 449.529 376.627 442.897 380.44C441.259 381.373 439.039 383.319 436.359 383.211H436.269H435.933C435.573 383.182 435.217 383.11 434.876 382.996C431.583 381.942 426.883 377.868 424.908 376.335C414.954 368.325 405.418 359.808 396.337 350.821C393.75 348.311 390.809 346.228 388.007 343.945C384.327 341.154 381.208 337.687 378.82 333.73C376.998 330.949 375.89 327.762 375.59 324.451C375.251 321.571 375.91 318.663 377.458 316.213Z" fill="#FFA8A7"/>
<path d="M529.146 395.892C537.337 414.27 539.328 424.989 539.971 434.99C540.614 444.99 539.665 460.119 539.665 460.119L467.35 418.418C468.96 408.229 471.335 398.174 474.454 388.342L529.146 395.892Z" fill="#86198F"/>
<path d="M474.348 365.616L474.777 384.575C473.826 388.295 472.312 394.377 470.611 399.888C471.684 403.243 479.599 412.264 496.411 417.852C514.172 423.763 534.428 417.669 536.679 413.259L529.636 395.416C529.636 395.416 535.76 371.757 535.852 371.465C535.944 371.176 529.284 361.558 528.84 350.025C528.396 338.494 531.58 333.547 532.591 332.445C532.132 332.246 521.766 329.382 521.766 329.382L501.096 325.247L491.373 324.619C483.274 328.77 476.713 335.402 472.647 343.547C470.769 346.998 469.929 350.916 470.231 354.832C470.531 358.751 471.963 362.496 474.348 365.616Z" fill="#FAFAFA"/>
<path d="M486.106 270.483C483.947 272.688 479.584 277.971 479.982 297.13C480.395 313.378 485.662 317.376 488.311 318.57C490.96 319.765 496.059 318.999 501.004 318.172V326.09C501.004 326.09 493.992 330.975 492.231 335.4C490.853 338.845 499.611 343.656 512.901 337.928C518.336 335.583 522.715 329.628 522.715 329.628L522.547 306.166C522.547 306.166 525.472 308.983 530.402 304.633C534.474 301.066 535.837 295.033 532.652 291.815C531.825 291.05 530.828 290.494 529.743 290.189C528.658 289.884 527.516 289.84 526.412 290.065C525.307 290.288 524.271 290.768 523.389 291.469C522.507 292.172 521.804 293.071 521.337 294.098C514.527 294.204 507.814 292.467 501.908 289.075C491.45 283.285 486.811 276.792 486.106 270.483Z" fill="#FFA8A7"/>
<path d="M498.416 294.206C498.414 294.604 498.529 294.994 498.746 295.328C498.964 295.664 499.275 295.928 499.64 296.085C500.006 296.245 500.41 296.292 500.803 296.225C501.196 296.155 501.56 295.974 501.85 295.7C502.14 295.426 502.343 295.075 502.435 294.684C502.526 294.297 502.502 293.891 502.365 293.516C502.227 293.141 501.983 292.815 501.662 292.58C501.342 292.342 500.958 292.205 500.56 292.185C500.286 292.174 500.014 292.221 499.758 292.319C499.503 292.415 499.269 292.562 499.07 292.751C498.87 292.937 498.71 293.164 498.598 293.413C498.486 293.663 498.424 293.932 498.416 294.206Z" fill="#260C28"/>
<path d="M499.978 306.241L492.323 307.637C492.391 308.146 492.562 308.637 492.825 309.079C493.087 309.521 493.436 309.906 493.85 310.209C494.265 310.514 494.736 310.733 495.237 310.85C495.737 310.969 496.256 310.984 496.763 310.899C497.798 310.689 498.711 310.087 499.311 309.219C499.91 308.35 500.15 307.283 499.978 306.241Z" fill="#B16668"/>
<path d="M496.748 310.899C496.243 311.002 495.721 311.002 495.216 310.899C495.256 310.038 495.624 309.226 496.245 308.629C496.867 308.035 497.693 307.701 498.554 307.696C499.018 307.691 499.477 307.787 499.902 307.973C499.706 308.709 499.306 309.374 498.748 309.891C498.19 310.41 497.496 310.759 496.748 310.899Z" fill="#F28F8F"/>
<path d="M482.187 287.651L486.78 285.767C486.673 285.456 486.505 285.172 486.284 284.932C486.063 284.689 485.796 284.495 485.498 284.361C485.2 284.226 484.877 284.154 484.55 284.149C484.223 284.141 483.898 284.203 483.595 284.327C482.982 284.598 482.494 285.092 482.232 285.71C481.971 286.328 481.954 287.02 482.187 287.651Z" fill="#260C28"/>
<path d="M483.258 292.704C483.259 293.102 483.376 293.493 483.595 293.824C483.815 294.157 484.127 294.418 484.493 294.573C484.859 294.731 485.262 294.777 485.654 294.708C486.046 294.635 486.409 294.452 486.697 294.178C486.986 293.904 487.188 293.552 487.278 293.164C487.368 292.777 487.343 292.371 487.205 291.996C487.067 291.624 486.823 291.298 486.502 291.063C486.182 290.825 485.799 290.688 485.402 290.668C484.848 290.655 484.312 290.861 483.91 291.244C483.509 291.627 483.274 292.151 483.258 292.704Z" fill="#260C28"/>
<path d="M492.828 291.877L491.419 303.762L485.295 300.852L492.828 291.877Z" fill="#F28F8F"/>
<path d="M501.081 318.126C506.302 317.423 517.035 314.313 518.704 310.056C518.04 312.209 516.731 314.106 514.953 315.492C511.752 318.25 501.096 321.372 501.096 321.372L501.081 318.126Z" fill="#F28F8F"/>
<path d="M522.149 300.009C520.813 299.895 519.577 299.257 518.713 298.231C517.848 297.205 517.427 295.879 517.54 294.542C517.654 293.206 518.294 291.97 519.319 291.104C520.344 290.241 521.67 289.82 523.006 289.934L522.149 300.009Z" fill="#260C28"/>
<path d="M574.207 405.771C571.956 419.261 567.026 431.805 552.235 456.934C550.545 460.005 548.489 462.859 546.111 465.433C543.615 468.137 540.586 470.29 537.215 471.758C535.246 472.585 533.059 472.73 530.999 472.171C526.987 471.207 523.573 468.098 523.267 466.185C522.853 463.611 527.462 461.008 529.269 459.139C530.799 457.609 533.862 455.021 534.888 453.613C535.913 452.201 537.077 451.069 535.791 451.116C535.01 451.116 534.26 451.405 533.51 451.498C532.868 451.56 532.222 451.56 531.58 451.498C530.937 451.545 530.291 451.449 529.687 451.219C529.085 450.989 528.539 450.63 528.09 450.165C527.899 449.932 527.781 449.648 527.751 449.348C527.721 449.048 527.781 448.748 527.921 448.482C528.217 448.115 528.609 447.838 529.054 447.686C530.47 447.148 531.846 446.515 533.173 445.786C534.494 445.029 535.767 444.189 536.985 443.274C538.853 441.743 541.395 440.089 542.543 437.959C545.416 432.813 547.599 427.307 549.035 421.59C550.076 417.607 552.097 409.966 553.139 402.723C552.802 401.803 548.132 393.211 545.116 388.22C540.783 381.037 536.648 374.88 532.652 368.48C524.216 358.187 524.997 338.571 532.469 332.461C545.606 335.829 549.387 341.479 553.72 349.857C557.946 358.004 569.307 380.732 573.058 391.955C574.574 396.396 574.969 401.141 574.207 405.771Z" fill="#FFA8A7"/>
<path d="M303.672 554.502L266.728 547.257C266.492 547.216 266.252 547.247 266.038 547.348C265.821 547.448 265.642 547.614 265.523 547.821C265.407 548.027 265.355 548.265 265.379 548.503C265.405 548.738 265.5 548.963 265.655 549.141L290.72 577.52L303.672 554.502Z" fill="#FFA8A7"/>
<path d="M265.655 549.141C265.5 548.963 265.405 548.738 265.379 548.503C265.355 548.265 265.407 548.027 265.523 547.821C265.642 547.614 265.821 547.448 266.038 547.348C266.252 547.247 266.493 547.216 266.728 547.257L273.94 548.681C272.948 549.294 272.144 550.168 271.62 551.209C271.095 552.251 270.87 553.417 270.969 554.577V555.221L265.655 549.141Z" fill="#260C28"/>
<path d="M429.761 657.323L426.699 655.591L423.04 653.508L290.673 577.595C289.461 573.529 289.828 569.153 291.699 565.343C294.317 559.478 299.357 554.854 303.613 554.624L435.917 630.49L442.928 634.349C438.274 632.054 425.123 654.857 429.761 657.323Z" fill="#86198F"/>
<path d="M418.233 650.69L411.496 646.815C409.503 645.758 410.653 640.858 413.026 635.804C416.088 629.081 422.213 622.557 424.8 623.966L429.777 626.814L431.537 627.872C428.903 626.463 422.825 632.971 419.747 639.71C417.528 644.549 416.396 649.281 418.078 650.553C418.114 650.613 418.168 650.662 418.233 650.69Z" fill="#EBEBEB"/>
<path d="M416.502 649.664C411.909 647.214 425.123 624.38 429.761 626.83L436.514 630.705C431.919 628.241 418.631 651.073 423.27 653.523L416.502 649.664Z" fill="#86198F"/>
<path d="M429.761 657.323L423.086 653.508C418.491 651.135 431.123 629.006 435.961 630.446L436.238 630.552L442.928 634.349C438.274 632.054 425.123 654.857 429.761 657.323Z" fill="#EBEBEB"/>
<path opacity="0.15" d="M265.487 547.901L266.728 547.257L293.537 561.928L433.436 642.191C433.697 641.778 433.912 641.747 434.08 642.039C430.144 648.165 427.175 655.911 429.762 657.261L426.699 655.529L423.04 653.448L290.674 577.535L265.611 549.157C265.464 548.986 265.374 548.772 265.353 548.547C265.33 548.325 265.376 548.097 265.487 547.901Z" fill="black"/>
<path d="M458.072 673.462L429.761 657.323C427.772 656.297 428.872 651.44 431.17 646.418C434.232 639.679 440.264 633.111 442.928 634.442L471.332 650.706C476.966 653.968 471.789 666.22 465.497 671.687C463.186 673.708 460.568 674.628 458.072 673.462Z" fill="#F28F8F"/>
<path opacity="0.1" d="M456.31 664.674C457.933 658.303 463.109 652.04 467.856 650.706C468.557 650.45 469.306 650.367 470.045 650.465C470.784 650.564 471.49 650.84 472.097 651.272C476.353 655.224 471.392 666.465 465.453 671.64C463.155 673.677 460.581 674.582 458.147 673.509C456.095 672.268 455.284 669.006 456.31 664.674Z" fill="black"/>
</g>
<defs>
<clipPath id="clip0_11612_4409">
<rect width="736" height="724" fill="white" transform="matrix(-1 0 0 1 736 0)"/>
</clipPath>
</defs>
</svg>
