<svg width="264" height="262" viewBox="0 0 264 262" fill="none" xmlns="http://www.w3.org/2000/svg">
<path d="M154.944 139.459C151.101 139.459 147.344 138.419 144.146 136.469C140.948 134.518 138.452 131.745 136.973 128.499C135.495 125.252 135.099 121.678 135.836 118.226C136.573 114.774 138.41 111.599 141.116 109.101C141.793 108.603 142.443 108.075 143.062 107.526C146.462 105.116 150.643 103.81 154.944 103.814H165.77L154.944 93.9761C153.8 93.9788 152.658 94.0394 151.522 94.1578C152.614 90.0857 152.681 85.8395 151.716 81.7405C150.752 77.6414 148.781 73.7968 145.953 70.4976C143.126 67.1984 139.515 64.5311 135.395 62.6973C131.275 60.8636 126.753 59.9115 122.172 59.9131H98.9771L109.699 69.7507H122.156C126.002 69.7479 129.763 70.7879 132.963 72.7392C136.164 74.6906 138.661 77.466 140.14 80.7151C141.619 83.9643 142.013 87.5416 141.273 90.9956C140.533 94.4495 138.691 97.6254 135.981 100.122C135.307 100.621 134.657 101.149 134.034 101.697C130.635 104.106 126.459 105.412 122.16 105.41H99.1912V149.264H109.94V115.233H122.18C123.323 115.231 124.466 115.17 125.602 115.052C124.51 119.123 124.444 123.368 125.408 127.466C126.373 131.564 128.343 135.408 131.169 138.707C133.996 142.005 137.605 144.672 141.724 146.506C145.843 148.34 150.363 149.293 154.944 149.293H178.107L166.557 139.459H154.944Z" fill="#0067A6"/>
<path d="M206.55 116.42C205.943 117.251 205.619 118.229 205.619 119.228C205.619 120.228 205.943 121.206 206.55 122.037C207.156 122.869 208.019 123.517 209.028 123.899C210.037 124.282 211.148 124.383 212.219 124.188C213.291 123.993 214.275 123.512 215.048 122.805C215.821 122.099 216.347 121.198 216.561 120.218C216.775 119.237 216.666 118.221 216.248 117.297C215.831 116.373 215.123 115.583 214.216 115.027C213.612 114.657 212.936 114.399 212.224 114.269C211.512 114.139 210.779 114.139 210.067 114.268C209.355 114.398 208.678 114.654 208.074 115.023C207.471 115.393 206.953 115.867 206.55 116.42Z" fill="#0067A6"/>
<path d="M213.301 95.3513C196.747 106.931 192.255 125.908 203.642 142.184C198.577 122.673 201.38 111.955 213.301 95.3513Z" fill="#0067A6"/>
<path d="M176.321 161.482C175.248 161.677 174.263 162.158 173.489 162.866C172.715 163.573 172.188 164.474 171.975 165.456C171.761 166.437 171.87 167.455 172.288 168.38C172.706 169.304 173.414 170.095 174.323 170.651C175.232 171.207 176.301 171.504 177.395 171.505C178.488 171.505 179.557 171.209 180.466 170.653C181.376 170.097 182.084 169.307 182.503 168.382C182.922 167.458 183.031 166.44 182.818 165.459C182.677 164.807 182.397 164.187 181.994 163.634C181.591 163.082 181.073 162.607 180.47 162.238C179.866 161.869 179.189 161.612 178.477 161.482C177.765 161.353 177.033 161.353 176.321 161.482Z" fill="#0067A6"/>
<path d="M197.378 150.953C176.745 148.431 158.888 158.942 154.368 177.819C165.844 160.748 176.114 154.994 197.378 150.953Z" fill="#0067A6"/>
<path d="M120.132 173.789C119.224 173.234 118.156 172.937 117.063 172.937C115.971 172.937 114.903 173.233 113.995 173.789C113.086 174.344 112.378 175.133 111.96 176.057C111.542 176.981 111.432 177.997 111.645 178.978C111.857 179.958 112.383 180.859 113.155 181.567C113.927 182.274 114.911 182.756 115.983 182.951C117.054 183.147 118.165 183.047 119.174 182.665C120.184 182.283 121.047 181.636 121.654 180.805C122.058 180.253 122.339 179.633 122.481 178.982C122.623 178.33 122.623 177.66 122.482 177.008C122.34 176.357 122.06 175.737 121.657 175.185C121.254 174.632 120.736 174.158 120.132 173.789Z" fill="#0067A6"/>
<path d="M143.152 179.964C130.495 164.817 109.761 160.695 91.9775 171.124C113.288 166.492 125.01 169.057 143.152 179.964Z" fill="#0067A6"/>
<path d="M70.8926 146.122C70.6794 145.141 70.1533 144.24 69.3808 143.534C68.6084 142.827 67.6243 142.345 66.5529 142.15C65.4816 141.955 64.371 142.055 63.3617 142.437C62.3524 142.82 61.4897 143.467 60.8825 144.298C60.2753 145.129 59.9509 146.107 59.9504 147.106C59.9499 148.106 60.2733 149.084 60.8797 149.915C61.486 150.747 62.3482 151.395 63.3571 151.779C64.366 152.162 65.4764 152.263 66.548 152.068C67.2601 151.939 67.9373 151.683 68.5411 151.314C69.1449 150.945 69.6634 150.471 70.0669 149.919C70.4704 149.367 70.751 148.747 70.8927 148.096C71.0344 147.444 71.0344 146.773 70.8926 146.122Z" fill="#0067A6"/>
<path d="M82.3966 165.387C85.1529 146.503 73.6723 130.159 53.043 126.019C71.6985 136.541 77.9975 145.933 82.3966 165.387Z" fill="#0067A6"/>
<path d="M57.4498 94.6923C58.0567 93.861 58.3807 92.8836 58.3808 91.8837C58.3809 90.8839 58.057 89.9065 57.4502 89.0751C56.8435 88.2437 55.981 87.5956 54.9718 87.2127C53.9626 86.8299 52.8521 86.7295 51.7805 86.9242C50.709 87.119 49.7247 87.6001 48.9519 88.3068C48.1791 89.0135 47.6526 89.9141 47.439 90.8946C47.2253 91.8751 47.3341 92.8916 47.7516 93.8156C48.169 94.7395 48.8765 95.5294 49.7844 96.0855C50.3876 96.4549 51.0644 96.7119 51.7761 96.8418C52.4879 96.9717 53.2206 96.972 53.9325 96.8426C54.6444 96.7132 55.3214 96.4567 55.9249 96.0877C56.5285 95.7188 57.0466 95.2446 57.4498 94.6923Z" fill="#0067A6"/>
<path d="M50.6992 115.761C67.2525 104.181 71.7451 85.2039 60.3579 68.9277C65.4228 88.4391 62.6198 99.1569 50.6992 115.761Z" fill="#0067A6"/>
<path d="M87.6756 49.6301C88.7485 49.436 89.7344 48.9551 90.5086 48.248C91.2827 47.541 91.8104 46.6397 92.0247 45.6582C92.2391 44.6766 92.1305 43.659 91.7128 42.7339C91.2951 41.8088 90.5869 41.018 89.6779 40.4613C88.7689 39.9047 87.7 39.6074 86.6063 39.6069C85.5127 39.6065 84.4434 39.9029 83.5339 40.4588C82.6244 41.0147 81.9154 41.8049 81.4968 42.7297C81.0781 43.6544 80.9685 44.672 81.1819 45.6537C81.4678 46.9687 82.3122 48.1261 83.5297 48.8717C84.7473 49.6172 86.2384 49.89 87.6756 49.6301Z" fill="#0067A6"/>
<path d="M66.6257 60.159C87.2784 62.6817 105.116 52.1706 109.64 33.2935C98.1478 50.3641 87.8818 56.1328 66.6257 60.159Z" fill="#0067A6"/>
<path d="M143.868 37.3269C144.776 37.8823 145.844 38.1788 146.937 38.1789C148.029 38.179 149.097 37.8826 150.005 37.3272C150.914 36.7719 151.622 35.9825 152.04 35.0589C152.459 34.1352 152.568 33.1188 152.356 32.1381C152.143 31.1574 151.617 30.2565 150.845 29.5492C150.073 28.8419 149.089 28.3601 148.017 28.1645C146.946 27.969 145.835 28.0686 144.826 28.4507C143.816 28.8327 142.953 29.4802 142.346 30.3112C141.532 31.4264 141.235 32.7918 141.52 34.1074C141.806 35.4229 142.65 36.5809 143.868 37.3269Z" fill="#0067A6"/>
<path d="M120.848 31.1484C133.501 46.2951 154.235 50.4104 172.019 39.9884C150.704 44.6204 138.982 42.0443 120.848 31.1484Z" fill="#0067A6"/>
<path d="M193.096 64.9903C193.309 65.971 193.836 66.8716 194.608 67.5785C195.381 68.2854 196.365 68.7667 197.437 68.9616C198.508 69.1565 199.619 69.0562 200.628 68.6734C201.638 68.2907 202.5 67.6426 203.107 66.8112C203.714 65.9797 204.038 65.0023 204.038 64.0024C204.038 63.0025 203.714 62.0251 203.107 61.1937C202.5 60.3623 201.637 59.7143 200.628 59.3315C199.619 58.9488 198.508 58.8486 197.437 59.0436C196 59.3059 194.735 60.0797 193.921 61.1947C193.108 62.3098 192.811 63.675 193.096 64.9903Z" fill="#0067A6"/>
<path d="M181.603 45.7249C178.847 64.6091 190.328 80.953 210.957 85.0933C192.317 74.5751 186.003 65.1792 181.603 45.7249Z" fill="#0067A6"/>
<path d="M56.644 223.544V196.268H61.7245V223.544H56.644ZM59.0188 212.965V208.497H64.2861C64.5655 208.509 64.8442 208.463 65.1007 208.361C65.3573 208.259 65.5847 208.104 65.7655 207.909C66.1464 207.435 66.3338 206.854 66.2949 206.266V203.06C66.3372 202.45 66.1534 201.845 65.7733 201.342C65.5963 201.14 65.3691 200.978 65.1104 200.873C64.8517 200.767 64.5691 200.719 64.2861 200.733H59.0188V196.268H64.4302C65.7376 196.231 67.0363 196.475 68.222 196.981C69.2345 197.432 70.0695 198.159 70.6123 199.062C71.1935 200.086 71.4789 201.229 71.4416 202.383V206.979C71.4778 208.105 71.1919 209.22 70.6123 210.214C70.0612 211.105 69.2239 211.819 68.2142 212.259C67.0291 212.759 65.7345 213.003 64.4302 212.972L59.0188 212.965Z" fill="#0067A6"/>
<path d="M74.1667 223.544V204.071H79.2511V223.544H74.1667ZM84.3549 208.65H83.0624C82.5441 208.622 82.0253 208.697 81.5411 208.868C81.057 209.04 80.6185 209.304 80.2555 209.644C79.5521 210.392 79.1922 211.36 79.2511 212.345L78.819 207.467C79.3483 206.4 80.1492 205.464 81.1548 204.738C82.0643 204.085 83.1873 203.731 84.3432 203.733L84.3549 208.65Z" fill="#0067A6"/>
<path d="M93.1452 223.825C91.0274 223.825 89.378 223.303 88.1971 222.257C87.0162 221.212 86.4258 219.739 86.4258 217.839V210.075C86.4258 208.047 87.002 206.484 88.1543 205.386C89.3066 204.289 90.9158 203.738 92.9817 203.733C95.0995 203.733 96.7398 204.271 97.9025 205.347C99.0652 206.423 99.6518 207.949 99.6622 209.926V215.441H90.5252V212.046H94.7258V209.719C94.7572 209.232 94.5924 208.752 94.2625 208.368C94.1031 208.204 93.9051 208.075 93.6832 207.99C93.4614 207.905 93.2216 207.868 92.9817 207.88C92.7528 207.872 92.5252 207.915 92.3184 208.005C92.1115 208.095 91.9317 208.229 91.7943 208.397C91.4789 208.825 91.327 209.336 91.3622 209.851V217.992C91.3462 218.217 91.3801 218.442 91.4617 218.655C91.5433 218.867 91.671 219.063 91.8371 219.229C92.1926 219.494 92.6337 219.646 93.0924 219.659C93.5512 219.673 94.002 219.548 94.3754 219.304C94.5233 219.174 94.6386 219.016 94.7132 218.841C94.7878 218.666 94.82 218.479 94.8075 218.292V217.615L99.705 217.654V218.199C99.705 219.983 99.1314 221.368 97.9843 222.354C96.8371 223.339 95.2241 223.83 93.1452 223.825Z" fill="#0067A6"/>
<path d="M103.314 231.461V204.072H108.398V231.461H103.314ZM112.268 223.825C111.332 223.838 110.425 223.523 109.734 222.945C108.962 222.276 108.406 221.425 108.126 220.487L108.414 217.747C108.403 218.096 108.469 218.444 108.609 218.769C108.72 219.033 108.92 219.256 109.181 219.407C109.449 219.557 109.758 219.632 110.072 219.624C110.299 219.636 110.525 219.594 110.729 219.504C110.933 219.413 111.109 219.277 111.24 219.108C111.525 218.68 111.661 218.183 111.63 217.683V209.794C111.663 209.31 111.527 208.83 111.24 208.422C111.104 208.26 110.926 208.131 110.722 208.047C110.519 207.962 110.295 207.925 110.072 207.938C109.761 207.93 109.454 207.998 109.181 208.134C108.925 208.268 108.723 208.476 108.609 208.725C108.466 209.04 108.4 209.379 108.414 209.719L107.982 207.3C108.368 206.303 109.004 205.402 109.839 204.67C110.231 204.336 110.696 204.081 111.203 203.922C111.711 203.763 112.249 203.703 112.783 203.746C113.317 203.79 113.835 203.935 114.304 204.174C114.772 204.412 115.181 204.738 115.503 205.13C116.243 206.063 116.613 207.386 116.613 209.099V218.363C116.613 220.102 116.232 221.449 115.472 222.404C115.109 222.869 114.624 223.243 114.061 223.492C113.498 223.74 112.876 223.855 112.252 223.825H112.268Z" fill="#0067A6"/>
<path d="M127.151 223.825C125.811 223.861 124.484 223.58 123.297 223.009C122.235 222.466 121.381 221.638 120.848 220.636C120.251 219.463 119.96 218.178 120 216.884V202.928C119.961 201.634 120.251 200.349 120.848 199.176C121.382 198.178 122.237 197.354 123.297 196.814C124.501 196.277 125.822 195.998 127.161 195.998C128.5 195.998 129.821 196.277 131.025 196.814C132.088 197.353 132.942 198.182 133.466 199.187C134.059 200.364 134.348 201.65 134.31 202.946V205.141H129.16V202.946C129.172 202.539 129.095 202.135 128.934 201.756C128.799 201.44 128.565 201.168 128.261 200.975C127.93 200.781 127.544 200.683 127.151 200.694C126.875 200.683 126.6 200.731 126.348 200.834C126.095 200.937 125.872 201.091 125.695 201.285C125.314 201.759 125.127 202.341 125.166 202.928V216.884C125.125 217.469 125.313 218.047 125.695 218.516C125.884 218.701 126.113 218.849 126.367 218.95C126.622 219.05 126.896 219.102 127.173 219.102C127.45 219.102 127.724 219.05 127.978 218.95C128.232 218.849 128.461 218.701 128.65 218.516C129.017 218.038 129.197 217.461 129.16 216.877V214.682H134.31V216.877C134.351 218.176 134.063 219.466 133.47 220.647C132.944 221.65 132.091 222.479 131.029 223.02C129.833 223.589 128.498 223.867 127.151 223.825Z" fill="#0067A6"/>
<path d="M143.673 223.825C141.665 223.825 140.1 223.36 138.978 222.428C137.857 221.497 137.297 220.191 137.297 218.509V208.949C137.297 207.286 137.857 206.001 138.978 205.094C140.1 204.187 141.665 203.733 143.673 203.733C145.695 203.733 147.263 204.187 148.376 205.094C149.49 206.001 150.046 207.286 150.046 208.949V218.57C150.046 220.232 149.49 221.523 148.376 222.443C147.263 223.362 145.695 223.823 143.673 223.825ZM143.673 219.642C143.861 219.653 144.048 219.625 144.222 219.56C144.396 219.495 144.552 219.395 144.678 219.268C144.93 218.953 145.053 218.567 145.024 218.178V209.306C145.047 208.934 144.924 208.568 144.678 208.272C144.413 208.032 144.056 207.898 143.683 207.898C143.311 207.898 142.953 208.032 142.689 208.272C142.428 208.562 142.296 208.931 142.319 209.306V218.178C142.29 218.57 142.422 218.959 142.689 219.268C142.813 219.393 142.965 219.491 143.136 219.555C143.306 219.62 143.489 219.65 143.673 219.642Z" fill="#0067A6"/>
<path d="M153.655 223.544V196.268H158.739V223.544H153.655ZM162.017 223.544V209.904C162.059 209.401 161.915 208.899 161.609 208.479C161.449 208.328 161.258 208.208 161.046 208.126C160.835 208.044 160.608 208.002 160.378 208.002C160.149 208.002 159.922 208.044 159.71 208.126C159.499 208.208 159.308 208.328 159.148 208.479C158.847 208.884 158.703 209.369 158.739 209.858L158.389 207.474C158.697 206.397 159.342 205.426 160.246 204.681C160.987 204.072 161.945 203.731 162.94 203.722C163.524 203.696 164.106 203.798 164.639 204.019C165.172 204.239 165.639 204.572 166.004 204.991C166.736 205.832 167.102 207.057 167.102 208.657V223.533L162.017 223.544Z" fill="#0067A6"/>
<path d="M177.084 223.825C175.075 223.825 173.51 223.36 172.389 222.428C171.267 221.497 170.707 220.191 170.707 218.509V208.949C170.707 207.286 171.267 206.001 172.389 205.094C173.51 204.187 175.075 203.733 177.084 203.733C179.103 203.733 180.67 204.187 181.786 205.094C182.902 206.001 183.459 207.286 183.457 208.949V218.57C183.457 220.232 182.9 221.523 181.786 222.443C180.673 223.362 179.105 223.823 177.084 223.825ZM177.084 219.642C177.271 219.653 177.459 219.625 177.632 219.56C177.806 219.495 177.962 219.395 178.088 219.268C178.34 218.953 178.463 218.567 178.435 218.178V209.306C178.457 208.934 178.334 208.568 178.088 208.272C177.823 208.032 177.466 207.898 177.093 207.898C176.721 207.898 176.363 208.032 176.099 208.272C175.838 208.562 175.706 208.931 175.729 209.306V218.178C175.7 218.57 175.832 218.959 176.099 219.268C176.223 219.393 176.375 219.491 176.546 219.555C176.716 219.62 176.9 219.65 177.084 219.642Z" fill="#0067A6"/>
<path d="M187.065 223.544V204.071H192.146V223.544H187.065ZM197.254 208.65H195.961C195.442 208.622 194.923 208.697 194.438 208.868C193.953 209.04 193.514 209.304 193.15 209.644C192.447 210.392 192.087 211.36 192.146 212.345L191.718 207.467C192.244 206.398 193.046 205.462 194.053 204.738C194.963 204.084 196.086 203.73 197.242 203.733L197.254 208.65Z" fill="#0067A6"/>
<path d="M198.546 208.329V204.054H208.181V208.329H198.546ZM205.943 223.651C203.999 223.651 202.588 223.208 201.711 222.322C200.834 221.436 200.392 220.159 200.387 218.491V198.406H205.448V217.729C205.423 218.084 205.544 218.435 205.787 218.712C205.904 218.831 206.049 218.924 206.211 218.986C206.372 219.048 206.547 219.076 206.721 219.069H208.177V223.643L205.943 223.651Z" fill="#0067A6"/>
</svg>
