<svg width="133" height="33" viewBox="0 0 133 33" fill="none" xmlns="http://www.w3.org/2000/svg">
<path d="M16.4092 23.3922L21.9425 26.7389C22.9558 27.3522 24.1958 26.4456 23.9292 25.2989L22.4625 19.0056L27.3558 14.7656C28.2492 13.9922 27.7692 12.5256 26.5958 12.4322L20.1558 11.8856L17.6358 5.93891C17.1825 4.85891 15.6358 4.85891 15.1825 5.93891L12.6625 11.8722L6.22249 12.4189C5.04915 12.5122 4.56915 13.9789 5.46249 14.7522L10.3558 18.9922L8.88915 25.2856C8.62249 26.4322 9.86249 27.3389 10.8758 26.7256L16.4092 23.3922Z" fill="#FFC806"/>
<path d="M41.4092 23.3922L46.9425 26.7389C47.9558 27.3522 49.1958 26.4456 48.9292 25.2989L47.4625 19.0056L52.3558 14.7656C53.2492 13.9922 52.7692 12.5256 51.5958 12.4322L45.1558 11.8856L42.6358 5.93891C42.1825 4.85891 40.6358 4.85891 40.1825 5.93891L37.6625 11.8722L31.2225 12.4189C30.0492 12.5122 29.5692 13.9789 30.4625 14.7522L35.3558 18.9922L33.8892 25.2856C33.6225 26.4322 34.8625 27.3389 35.8758 26.7256L41.4092 23.3922Z" fill="#FFC806"/>
<path d="M66.4092 23.3922L71.9425 26.7389C72.9558 27.3522 74.1958 26.4456 73.9292 25.2989L72.4625 19.0056L77.3558 14.7656C78.2492 13.9922 77.7692 12.5256 76.5958 12.4322L70.1558 11.8856L67.6358 5.93891C67.1825 4.85891 65.6358 4.85891 65.1825 5.93891L62.6625 11.8722L56.2225 12.4189C55.0492 12.5122 54.5692 13.9789 55.4625 14.7522L60.3558 18.9922L58.8892 25.2856C58.6225 26.4322 59.8625 27.3389 60.8758 26.7256L66.4092 23.3922Z" fill="#FFC806"/>
<path d="M91.4092 23.3922L96.9425 26.7389C97.9558 27.3522 99.1958 26.4456 98.9292 25.2989L97.4625 19.0056L102.356 14.7656C103.249 13.9922 102.769 12.5256 101.596 12.4322L95.1558 11.8856L92.6358 5.93891C92.1825 4.85891 90.6358 4.85891 90.1825 5.93891L87.6625 11.8722L81.2225 12.4189C80.0492 12.5122 79.5692 13.9789 80.4625 14.7522L85.3558 18.9922L83.8892 25.2856C83.6225 26.4322 84.8625 27.3389 85.8758 26.7256L91.4092 23.3922Z" fill="#FFC806"/>
<path d="M116.409 23.3922L121.942 26.7389C122.956 27.3522 124.196 26.4456 123.929 25.2989L122.462 19.0056L127.356 14.7656C128.249 13.9922 127.769 12.5256 126.596 12.4322L120.156 11.8856L117.636 5.93891C117.182 4.85891 115.636 4.85891 115.182 5.93891L112.662 11.8722L106.222 12.4189C105.049 12.5122 104.569 13.9789 105.462 14.7522L110.356 18.9922L108.889 25.2856C108.622 26.4322 109.862 27.3389 110.876 26.7256L116.409 23.3922Z" fill="#FFC806"/>
</svg>
