<svg width="592" height="661" viewBox="0 0 592 661" fill="none" xmlns="http://www.w3.org/2000/svg">
<g clip-path="url(#clip0_11612_3550)">
<path fill-rule="evenodd" clip-rule="evenodd" d="M148.697 585.761C-24.9063 485.469 1.42306 531.096 1.42306 330.487C1.42306 129.877 -24.9063 175.531 148.697 75.2132C322.302 -25.0782 269.643 -25.0782 443.275 75.2132C616.906 175.504 590.549 129.877 590.549 330.487C590.549 531.096 616.879 485.442 443.275 585.761C269.67 686.052 322.329 686.052 148.697 585.761Z" fill="#260C28"/>
<path fill-rule="evenodd" clip-rule="evenodd" d="M150.559 476.899V478.871C150.559 486.403 199.523 495.167 207.323 496.262C226.755 498.974 238.962 500.589 258.832 500.617C261.952 500.617 263.759 501.082 267.152 501.137H268.384C274.241 501.109 279.934 501.137 285.49 501.137H307.687C341.159 500.973 371.074 499.521 408.077 490.264C413.086 489.005 434.27 483.637 434.27 479.392C434.27 462.11 431.588 448.91 425.375 434.86C420.421 423.659 414.838 413.718 406.216 406.077C395.214 396.354 372.853 386.906 359.36 381.265C340.475 373.349 341.023 372.199 339.052 379.155C338.45 381.264 337.902 382.962 337.409 384.934C331.471 407.583 324.19 430.15 315.022 451.567C313.735 454.552 310.779 459.618 310.205 462.083L306.591 447.376C305.607 441.434 303.91 436.559 306.017 432.697C308.371 428.37 312.175 410.514 312.175 403.722C312.175 401.86 311.847 402.79 311.683 400.764C300.242 400.764 288.008 399.641 277.033 400.709C275.117 400.901 273.147 400.764 273.147 402.736C273.147 410.568 275.39 419.962 277.197 427.356L279.222 432.752C279.961 434.039 280.071 432.368 280.071 435.874C280.071 440.475 279.113 445.185 278.374 449.513L276.102 462.577L273.42 457.839C272.599 455.867 271.888 454.716 270.984 452.854C262.473 435.134 257.136 416.128 251.333 397.341C250.019 393.123 246.57 377.183 244.463 374.034C241.097 374.308 212.851 386.742 209.704 388.221C189.505 397.669 177.107 403.996 165.421 423.523L159.18 436.066C154.527 447.678 150.586 463.808 150.586 476.899H150.559Z" fill="#D97BE0"/>
<path fill-rule="evenodd" clip-rule="evenodd" d="M228.151 303.786C228.151 334.678 239.126 331.036 247.009 352.178C250.156 360.641 258.723 372.062 265.784 377.402C295.89 400.078 329.008 378.306 338.915 350.316C341.57 342.867 345.867 339.608 349.452 333.665C353.777 326.49 362.617 303.95 354.516 294.036C353.475 292.777 353.147 292.858 352.6 291.024C349.671 281.52 354.571 265.526 344.69 250.957C340.229 244.383 340.311 241.124 338.532 237.838C329.883 221.789 306.729 217.736 288.938 217.736C258.175 217.736 233.954 239.838 234.063 272.619C234.145 297.843 233.215 287.71 229.738 295.98C228.781 298.254 228.124 300.691 228.124 303.786H228.151Z" fill="#FCF8FE"/>
<path fill-rule="evenodd" clip-rule="evenodd" d="M423.87 359.683C414.427 359.683 409.939 355.739 404.93 348.948C397.896 339.389 392.531 320.821 389.549 308.935C388.563 305.019 387.715 301.596 386.784 297.871C383.637 285.327 385.389 286.149 375.234 289.764C372.142 290.86 370.472 291.353 368.502 293.407C369.131 300.829 369.979 297.816 369.979 310.223C369.979 321.15 365.217 331.584 361.112 338.431C358.374 343.004 348.358 357.109 348.221 362.641L356.842 366.393C366.969 370.447 381.803 376.718 391.574 381.593C394.557 383.099 396.911 384.414 399.648 385.892C408.953 390.932 405.095 391.644 419.901 390.849L467.852 388.878C475.981 388.495 492.375 386.221 500.75 384.715C508.14 383.373 535.811 377.951 537.918 371.925C538.767 369.488 537.891 363.956 537.453 360.778C535.646 348.154 530.391 332.571 524.398 323.889C514.901 310.195 507.319 306.47 492.895 299.541C491.226 298.747 490.104 298.09 488.544 297.46L470.891 289.901C468.564 288.97 463.61 286.56 461.421 286.505C461.01 291.407 451.786 324.929 449.706 330.16C445.464 340.951 438.156 359.683 423.87 359.683Z" fill="#D97BE0"/>
<path fill-rule="evenodd" clip-rule="evenodd" d="M115.964 231.1C115.964 240.329 120.644 251.832 125.707 257.966C129.676 262.759 130.908 266.949 133.617 272.317C144.948 294.938 170.265 306.085 190.518 289.352C204.34 277.931 202.78 272.098 210.991 259.883C217.559 250.079 221.281 244.848 221.281 231.1C221.281 223.021 219.009 222.281 218.107 218.94C216.573 213.079 217.587 200.892 214.165 192.237C213.618 190.868 212.441 188.486 211.674 187.308C205.654 178.215 207.351 176.326 203.601 172.135C196.895 164.631 185.865 160.715 174.315 159.893H165.038C154.828 160.606 144.975 163.646 138.133 168.712C115.362 185.583 123.025 212.805 119.932 219.761C118.947 222.007 115.964 223.76 115.964 231.127V231.1Z" fill="#FCF8FE"/>
<path fill-rule="evenodd" clip-rule="evenodd" d="M370.499 227.622C370.499 239.59 370.636 244.711 377.616 255.119C381.502 260.952 384.95 266.265 387.934 272.975C390.944 279.74 394.913 284.204 400.304 288.777C407.996 295.323 415.248 296.829 425.375 296.829C439.333 296.829 451.951 284.559 457.671 273.249L461.94 263.663C464.13 259.391 475.297 248.82 475.297 234.989C475.297 230.662 475.735 226.882 473.901 223.048C472.806 220.748 472.149 221.076 471.465 218.091C468.892 207.109 473.025 197.77 465.061 186.898C463.856 185.255 463.199 183.666 462.296 181.776C458.875 174.738 459.203 170.493 448.529 165.371C439.88 161.236 431.451 159.839 420.475 159.839H420.448C398.799 159.839 381.83 173.478 377.15 189.719C375.481 195.47 375.644 212.121 374.851 217.105C374.03 222.282 370.527 222.035 370.527 227.622H370.499Z" fill="#FCF8FE"/>
<path fill-rule="evenodd" clip-rule="evenodd" d="M53.6712 366.612V371.569C53.6712 377.758 89.2789 384.606 97.2984 385.756C105.838 387.015 114.294 387.864 122.916 388.796C127.349 389.289 132.194 388.905 136.546 389.508C142.923 390.384 176.943 391.069 178.366 390.521L187.316 385.126C189.013 384.113 190.436 383.51 192.215 382.606C201.438 378.032 207.378 375.02 217.258 371.076C220.652 369.707 224.018 368.502 227.467 366.941C241.946 360.477 239.318 365.462 223.334 336.788C216.027 323.67 211.346 304.8 218.243 290.449C216.683 289.628 211.045 287.491 208.856 287.491C207.159 287.491 206.803 290.257 206.31 291.873L202.123 308.962C199.112 321.123 193.337 339.992 186.386 349.605C182.198 355.411 176.423 359.711 167.309 359.711C148.342 359.711 139.146 322.793 135.56 308.881C134.658 305.402 133.672 301.267 132.796 297.789C132.085 294.913 130.278 289.244 130.223 286.505C125.927 286.862 93.5756 301.705 89.3608 303.978C71.1879 313.728 61.4168 329.968 56.4629 349.714C55.4229 353.822 53.5891 361.627 53.5891 366.639L53.6712 366.612Z" fill="#D97BE0"/>
<rect x="14.5" y="0.5" width="222" height="119" rx="14.5" fill="#F9F9F9" stroke="#653780"/>
<path d="M36.352 51V35.16H47.824V37.368H38.92V41.928H45.88V44.088H38.92V48.792H48.16V51H36.352ZM51.2498 51V39H53.5298L53.6978 42.12L53.3618 41.784C53.5858 41.096 53.9058 40.528 54.3218 40.08C54.7538 39.616 55.2578 39.28 55.8338 39.072C56.4258 38.864 57.0498 38.76 57.7058 38.76C58.5538 38.76 59.3138 38.928 59.9858 39.264C60.6738 39.584 61.2178 40.072 61.6178 40.728C62.0178 41.384 62.2178 42.216 62.2178 43.224V51H59.6498V44.016C59.6498 42.832 59.4018 42.016 58.9058 41.568C58.4258 41.104 57.8178 40.872 57.0818 40.872C56.5538 40.872 56.0418 41 55.5458 41.256C55.0498 41.496 54.6338 41.888 54.2978 42.432C53.9778 42.976 53.8178 43.704 53.8178 44.616V51H51.2498ZM66.1092 51V33.6H68.6772V40.92C69.0772 40.168 69.6132 39.624 70.2852 39.288C70.9732 38.936 71.7332 38.76 72.5652 38.76C73.4132 38.76 74.1732 38.928 74.8452 39.264C75.5332 39.584 76.0772 40.072 76.4772 40.728C76.8772 41.384 77.0772 42.216 77.0772 43.224V51H74.5092V44.04C74.5092 42.856 74.2612 42.032 73.7652 41.568C73.2852 41.104 72.6772 40.872 71.9412 40.872C71.4292 40.872 70.9172 41 70.4052 41.256C69.9092 41.496 69.4932 41.896 69.1572 42.456C68.8372 43 68.6772 43.736 68.6772 44.664V51H66.1092ZM87.9046 43.296C87.9046 42.496 87.6806 41.88 87.2326 41.448C86.8006 41 86.2006 40.776 85.4326 40.776C84.7126 40.776 84.0966 40.944 83.5846 41.28C83.0726 41.616 82.6966 42.16 82.4566 42.912L80.2966 42C80.6006 41.024 81.1926 40.24 82.0726 39.648C82.9686 39.056 84.1206 38.76 85.5286 38.76C86.4886 38.76 87.3366 38.92 88.0726 39.24C88.8086 39.544 89.3846 40.008 89.8006 40.632C90.2326 41.256 90.4486 42.056 90.4486 43.032V48.384C90.4486 48.976 90.7446 49.272 91.3366 49.272C91.6246 49.272 91.9046 49.232 92.1766 49.152L92.0326 50.928C91.6646 51.104 91.2006 51.192 90.6406 51.192C90.1286 51.192 89.6646 51.104 89.2486 50.928C88.8486 50.736 88.5286 50.456 88.2886 50.088C88.0646 49.704 87.9526 49.232 87.9526 48.672V48.504L88.4806 48.48C88.3366 49.104 88.0406 49.624 87.5926 50.04C87.1446 50.44 86.6246 50.744 86.0326 50.952C85.4406 51.144 84.8406 51.24 84.2326 51.24C83.4806 51.24 82.8006 51.12 82.1926 50.88C81.6006 50.64 81.1286 50.28 80.7766 49.8C80.4406 49.304 80.2726 48.696 80.2726 47.976C80.2726 47.08 80.5606 46.344 81.1366 45.768C81.7286 45.192 82.5606 44.8 83.6326 44.592L88.2886 43.68L88.2646 45.48L84.8806 46.176C84.2086 46.304 83.7046 46.488 83.3686 46.728C83.0326 46.968 82.8646 47.32 82.8646 47.784C82.8646 48.232 83.0326 48.592 83.3686 48.864C83.7206 49.12 84.1846 49.248 84.7606 49.248C85.1606 49.248 85.5446 49.2 85.9126 49.104C86.2966 49.008 86.6406 48.856 86.9446 48.648C87.2486 48.424 87.4806 48.144 87.6406 47.808C87.8166 47.456 87.9046 47.04 87.9046 46.56V43.296ZM94.6561 51V39H96.9361L97.1041 42.12L96.7681 41.784C96.9921 41.096 97.3121 40.528 97.7281 40.08C98.1601 39.616 98.6641 39.28 99.2401 39.072C99.8321 38.864 100.456 38.76 101.112 38.76C101.96 38.76 102.72 38.928 103.392 39.264C104.08 39.584 104.624 40.072 105.024 40.728C105.424 41.384 105.624 42.216 105.624 43.224V51H103.056V44.016C103.056 42.832 102.808 42.016 102.312 41.568C101.832 41.104 101.224 40.872 100.488 40.872C99.9601 40.872 99.4481 41 98.9521 41.256C98.4561 41.496 98.0401 41.888 97.7041 42.432C97.3841 42.976 97.2241 43.704 97.2241 44.616V51H94.6561ZM114.699 38.76C115.659 38.76 116.475 38.904 117.147 39.192C117.835 39.464 118.411 39.856 118.875 40.368C119.339 40.88 119.691 41.464 119.931 42.12L117.507 43.08C117.299 42.344 116.963 41.784 116.499 41.4C116.051 41 115.459 40.8 114.723 40.8C114.003 40.8 113.387 40.968 112.875 41.304C112.363 41.624 111.971 42.096 111.699 42.72C111.443 43.344 111.315 44.112 111.315 45.024C111.315 45.92 111.451 46.68 111.723 47.304C111.995 47.928 112.387 48.4 112.899 48.72C113.411 49.04 114.019 49.2 114.723 49.2C115.267 49.2 115.739 49.112 116.139 48.936C116.539 48.744 116.867 48.48 117.123 48.144C117.395 47.792 117.579 47.368 117.675 46.872L120.003 47.664C119.779 48.384 119.427 49.016 118.947 49.56C118.483 50.088 117.899 50.504 117.195 50.808C116.491 51.096 115.683 51.24 114.771 51.24C113.587 51.24 112.539 50.992 111.627 50.496C110.715 50 110.003 49.288 109.491 48.36C108.995 47.416 108.747 46.296 108.747 45C108.747 43.704 108.995 42.592 109.491 41.664C110.003 40.72 110.707 40 111.603 39.504C112.515 39.008 113.547 38.76 114.699 38.76ZM128.272 51.24C127.072 51.24 126.016 50.992 125.104 50.496C124.192 50 123.48 49.288 122.968 48.36C122.472 47.416 122.224 46.296 122.224 45C122.224 43.704 122.472 42.592 122.968 41.664C123.48 40.72 124.184 40 125.08 39.504C125.976 39.008 126.992 38.76 128.128 38.76C129.296 38.76 130.288 39 131.104 39.48C131.92 39.96 132.544 40.616 132.976 41.448C133.408 42.28 133.624 43.224 133.624 44.28C133.624 44.568 133.616 44.84 133.6 45.096C133.584 45.352 133.56 45.576 133.528 45.768H123.88V43.8H132.4L131.128 44.184C131.128 43.096 130.856 42.264 130.312 41.688C129.768 41.096 129.024 40.8 128.08 40.8C127.392 40.8 126.792 40.96 126.28 41.28C125.768 41.6 125.376 42.08 125.104 42.72C124.832 43.344 124.696 44.112 124.696 45.024C124.696 45.92 124.84 46.68 125.128 47.304C125.416 47.928 125.824 48.4 126.352 48.72C126.88 49.04 127.504 49.2 128.224 49.2C129.024 49.2 129.672 49.048 130.168 48.744C130.664 48.44 131.056 48.016 131.344 47.472L133.384 48.432C133.096 49.008 132.704 49.512 132.208 49.944C131.728 50.36 131.152 50.68 130.48 50.904C129.808 51.128 129.072 51.24 128.272 51.24ZM149.232 51.24C148.032 51.24 146.936 51.008 145.944 50.544C144.952 50.08 144.168 49.424 143.592 48.576L145.368 47.04C145.72 47.696 146.224 48.224 146.88 48.624C147.552 49.008 148.352 49.2 149.28 49.2C150.016 49.2 150.6 49.072 151.032 48.816C151.464 48.56 151.68 48.2 151.68 47.736C151.68 47.432 151.576 47.168 151.368 46.944C151.176 46.704 150.8 46.52 150.24 46.392L147.72 45.864C146.44 45.608 145.528 45.2 144.984 44.64C144.44 44.064 144.168 43.336 144.168 42.456C144.168 41.8 144.36 41.192 144.744 40.632C145.128 40.072 145.688 39.624 146.424 39.288C147.176 38.936 148.072 38.76 149.112 38.76C150.312 38.76 151.336 38.976 152.184 39.408C153.032 39.824 153.68 40.424 154.128 41.208L152.352 42.696C152.048 42.056 151.6 41.584 151.008 41.28C150.416 40.96 149.8 40.8 149.16 40.8C148.648 40.8 148.208 40.864 147.84 40.992C147.472 41.12 147.192 41.296 147 41.52C146.808 41.744 146.712 42.008 146.712 42.312C146.712 42.632 146.832 42.912 147.072 43.152C147.312 43.392 147.744 43.576 148.368 43.704L151.104 44.28C152.256 44.504 153.064 44.888 153.528 45.432C154.008 45.96 154.248 46.608 154.248 47.376C154.248 48.144 154.048 48.824 153.648 49.416C153.248 49.992 152.672 50.44 151.92 50.76C151.168 51.08 150.272 51.24 149.232 51.24ZM160.879 35.472V47.4C160.879 47.992 161.031 48.424 161.335 48.696C161.655 48.968 162.079 49.104 162.607 49.104C163.039 49.104 163.415 49.04 163.735 48.912C164.055 48.768 164.351 48.576 164.623 48.336L165.199 50.208C164.831 50.528 164.375 50.784 163.831 50.976C163.303 51.152 162.711 51.24 162.055 51.24C161.367 51.24 160.735 51.128 160.159 50.904C159.583 50.68 159.135 50.32 158.815 49.824C158.495 49.312 158.327 48.648 158.311 47.832V36.192L160.879 35.472ZM165.007 39V41.016H156.007V39H165.007ZM174.553 43.296C174.553 42.496 174.329 41.88 173.881 41.448C173.449 41 172.849 40.776 172.081 40.776C171.361 40.776 170.745 40.944 170.233 41.28C169.721 41.616 169.345 42.16 169.105 42.912L166.945 42C167.249 41.024 167.841 40.24 168.721 39.648C169.617 39.056 170.769 38.76 172.177 38.76C173.137 38.76 173.985 38.92 174.721 39.24C175.457 39.544 176.033 40.008 176.449 40.632C176.881 41.256 177.097 42.056 177.097 43.032V48.384C177.097 48.976 177.393 49.272 177.985 49.272C178.273 49.272 178.553 49.232 178.825 49.152L178.681 50.928C178.313 51.104 177.849 51.192 177.289 51.192C176.777 51.192 176.313 51.104 175.897 50.928C175.497 50.736 175.177 50.456 174.937 50.088C174.713 49.704 174.601 49.232 174.601 48.672V48.504L175.129 48.48C174.985 49.104 174.689 49.624 174.241 50.04C173.793 50.44 173.273 50.744 172.681 50.952C172.089 51.144 171.489 51.24 170.881 51.24C170.129 51.24 169.449 51.12 168.841 50.88C168.249 50.64 167.777 50.28 167.425 49.8C167.089 49.304 166.921 48.696 166.921 47.976C166.921 47.08 167.209 46.344 167.785 45.768C168.377 45.192 169.209 44.8 170.281 44.592L174.937 43.68L174.913 45.48L171.529 46.176C170.857 46.304 170.353 46.488 170.017 46.728C169.681 46.968 169.513 47.32 169.513 47.784C169.513 48.232 169.681 48.592 170.017 48.864C170.369 49.12 170.833 49.248 171.409 49.248C171.809 49.248 172.193 49.2 172.561 49.104C172.945 49.008 173.289 48.856 173.593 48.648C173.897 48.424 174.129 48.144 174.289 47.808C174.465 47.456 174.553 47.04 174.553 46.56V43.296ZM186.299 33.432C186.795 33.432 187.243 33.488 187.643 33.6C188.059 33.696 188.371 33.832 188.579 34.008L188.099 35.856C187.923 35.744 187.723 35.664 187.499 35.616C187.275 35.552 187.019 35.52 186.731 35.52C186.075 35.52 185.555 35.672 185.171 35.976C184.803 36.28 184.619 36.776 184.619 37.464V39.216L184.691 39.864V51H182.123V37.272C182.123 36.664 182.211 36.12 182.387 35.64C182.579 35.16 182.859 34.76 183.227 34.44C183.595 34.104 184.035 33.856 184.547 33.696C185.075 33.52 185.659 33.432 186.299 33.432ZM188.507 39V41.016H179.867V39H188.507ZM195.803 33.432C196.299 33.432 196.747 33.488 197.147 33.6C197.563 33.696 197.875 33.832 198.083 34.008L197.603 35.856C197.427 35.744 197.227 35.664 197.003 35.616C196.779 35.552 196.523 35.52 196.235 35.52C195.579 35.52 195.059 35.672 194.675 35.976C194.307 36.28 194.123 36.776 194.123 37.464V39.216L194.195 39.864V51H191.627V37.272C191.627 36.664 191.715 36.12 191.891 35.64C192.083 35.16 192.363 34.76 192.731 34.44C193.099 34.104 193.539 33.856 194.051 33.696C194.579 33.52 195.163 33.432 195.803 33.432ZM198.011 39V41.016H189.371V39H198.011ZM35.992 86V74H38.272L38.392 76.016C38.808 75.248 39.36 74.68 40.048 74.312C40.752 73.944 41.496 73.76 42.28 73.76C43.144 73.76 43.936 73.96 44.656 74.36C45.392 74.744 45.944 75.328 46.312 76.112C46.568 75.584 46.92 75.144 47.368 74.792C47.816 74.44 48.312 74.184 48.856 74.024C49.4 73.848 49.936 73.76 50.464 73.76C51.232 73.76 51.952 73.92 52.624 74.24C53.296 74.56 53.84 75.048 54.256 75.704C54.672 76.36 54.88 77.2 54.88 78.224V86H52.312V78.632C52.312 77.656 52.08 76.952 51.616 76.52C51.152 76.088 50.56 75.872 49.84 75.872C49.28 75.872 48.76 76.008 48.28 76.28C47.816 76.552 47.44 76.96 47.152 77.504C46.864 78.032 46.72 78.688 46.72 79.472V86H44.152V78.632C44.152 77.656 43.92 76.952 43.456 76.52C42.992 76.088 42.4 75.872 41.68 75.872C41.2 75.872 40.72 76 40.24 76.256C39.76 76.512 39.36 76.912 39.04 77.456C38.72 78 38.56 78.72 38.56 79.616V86H35.992ZM65.7093 78.296C65.7093 77.496 65.4853 76.88 65.0373 76.448C64.6053 76 64.0053 75.776 63.2373 75.776C62.5173 75.776 61.9013 75.944 61.3893 76.28C60.8773 76.616 60.5013 77.16 60.2613 77.912L58.1013 77C58.4053 76.024 58.9973 75.24 59.8773 74.648C60.7733 74.056 61.9253 73.76 63.3333 73.76C64.2933 73.76 65.1413 73.92 65.8773 74.24C66.6133 74.544 67.1893 75.008 67.6053 75.632C68.0373 76.256 68.2533 77.056 68.2533 78.032V83.384C68.2533 83.976 68.5493 84.272 69.1413 84.272C69.4293 84.272 69.7093 84.232 69.9813 84.152L69.8373 85.928C69.4693 86.104 69.0053 86.192 68.4453 86.192C67.9333 86.192 67.4693 86.104 67.0533 85.928C66.6533 85.736 66.3333 85.456 66.0933 85.088C65.8693 84.704 65.7573 84.232 65.7573 83.672V83.504L66.2853 83.48C66.1413 84.104 65.8453 84.624 65.3973 85.04C64.9493 85.44 64.4293 85.744 63.8372 85.952C63.2452 86.144 62.6453 86.24 62.0373 86.24C61.2853 86.24 60.6053 86.12 59.9973 85.88C59.4053 85.64 58.9333 85.28 58.5813 84.8C58.2453 84.304 58.0773 83.696 58.0773 82.976C58.0773 82.08 58.3653 81.344 58.9413 80.768C59.5333 80.192 60.3653 79.8 61.4373 79.592L66.0933 78.68L66.0693 80.48L62.6853 81.176C62.0133 81.304 61.5093 81.488 61.1733 81.728C60.8373 81.968 60.6693 82.32 60.6693 82.784C60.6693 83.232 60.8373 83.592 61.1733 83.864C61.5253 84.12 61.9893 84.248 62.5653 84.248C62.9653 84.248 63.3493 84.2 63.7173 84.104C64.1013 84.008 64.4453 83.856 64.7493 83.648C65.0533 83.424 65.2853 83.144 65.4453 82.808C65.6213 82.456 65.7093 82.04 65.7093 81.56V78.296ZM72.4608 86V74H74.7408L74.9088 77.12L74.5728 76.784C74.7968 76.096 75.1168 75.528 75.5328 75.08C75.9648 74.616 76.4688 74.28 77.0448 74.072C77.6368 73.864 78.2608 73.76 78.9168 73.76C79.7648 73.76 80.5248 73.928 81.1968 74.264C81.8848 74.584 82.4288 75.072 82.8288 75.728C83.2288 76.384 83.4288 77.216 83.4288 78.224V86H80.8608V79.016C80.8608 77.832 80.6128 77.016 80.1168 76.568C79.6368 76.104 79.0288 75.872 78.2928 75.872C77.7648 75.872 77.2528 76 76.7568 76.256C76.2608 76.496 75.8448 76.888 75.5088 77.432C75.1888 77.976 75.0288 78.704 75.0288 79.616V86H72.4608ZM94.2561 78.296C94.2561 77.496 94.0321 76.88 93.5841 76.448C93.1521 76 92.5521 75.776 91.7841 75.776C91.0641 75.776 90.4481 75.944 89.9361 76.28C89.4241 76.616 89.0481 77.16 88.8081 77.912L86.6481 77C86.9521 76.024 87.5441 75.24 88.4241 74.648C89.3201 74.056 90.4721 73.76 91.8801 73.76C92.8401 73.76 93.6881 73.92 94.4241 74.24C95.1601 74.544 95.7361 75.008 96.1521 75.632C96.5841 76.256 96.8001 77.056 96.8001 78.032V83.384C96.8001 83.976 97.0961 84.272 97.6881 84.272C97.9761 84.272 98.2561 84.232 98.5281 84.152L98.3841 85.928C98.0161 86.104 97.5521 86.192 96.9921 86.192C96.4801 86.192 96.0161 86.104 95.6001 85.928C95.2001 85.736 94.8801 85.456 94.6401 85.088C94.4161 84.704 94.3041 84.232 94.3041 83.672V83.504L94.8321 83.48C94.6881 84.104 94.3921 84.624 93.9441 85.04C93.4961 85.44 92.9761 85.744 92.3841 85.952C91.7921 86.144 91.1921 86.24 90.5841 86.24C89.8321 86.24 89.1521 86.12 88.5441 85.88C87.9521 85.64 87.4801 85.28 87.1281 84.8C86.7921 84.304 86.6241 83.696 86.6241 82.976C86.6241 82.08 86.9121 81.344 87.4881 80.768C88.0801 80.192 88.9121 79.8 89.9841 79.592L94.6401 78.68L94.6161 80.48L91.2321 81.176C90.5601 81.304 90.0561 81.488 89.7201 81.728C89.3841 81.968 89.2161 82.32 89.2161 82.784C89.2161 83.232 89.3841 83.592 89.7201 83.864C90.0721 84.12 90.5361 84.248 91.1121 84.248C91.5121 84.248 91.8961 84.2 92.2641 84.104C92.6481 84.008 92.9921 83.856 93.2961 83.648C93.6001 83.424 93.8321 83.144 93.9921 82.808C94.1681 82.456 94.2561 82.04 94.2561 81.56V78.296ZM111.615 71.48L112.023 73.496C111.975 73.496 111.927 73.496 111.879 73.496C111.831 73.48 111.783 73.472 111.734 73.472C110.967 73.472 110.383 73.64 109.983 73.976C109.583 74.296 109.383 74.768 109.383 75.392L108.135 74.816C108.135 74.176 108.271 73.608 108.543 73.112C108.815 72.6 109.199 72.2 109.695 71.912C110.207 71.624 110.783 71.48 111.423 71.48C111.455 71.48 111.487 71.48 111.519 71.48C111.551 71.48 111.583 71.48 111.615 71.48ZM107.823 84.128C109.039 84.128 109.983 84.4 110.655 84.944C111.327 85.472 111.663 86.208 111.663 87.152C111.663 87.984 111.399 88.696 110.871 89.288C110.343 89.896 109.623 90.36 108.711 90.68C107.815 91 106.783 91.16 105.615 91.16C103.647 91.16 102.191 90.856 101.247 90.248C100.303 89.64 99.8305 88.88 99.8305 87.968C99.8305 87.328 100.055 86.768 100.503 86.288C100.967 85.808 101.743 85.536 102.831 85.472L102.687 85.856C102.015 85.712 101.471 85.456 101.055 85.088C100.655 84.704 100.455 84.168 100.455 83.48C100.455 82.792 100.719 82.208 101.247 81.728C101.775 81.248 102.519 80.968 103.479 80.888L104.823 81.536H104.535C103.799 81.6 103.279 81.768 102.975 82.04C102.671 82.312 102.519 82.616 102.519 82.952C102.519 83.352 102.663 83.648 102.951 83.84C103.255 84.032 103.679 84.128 104.223 84.128H107.823ZM105.615 89.24C106.495 89.24 107.215 89.152 107.775 88.976C108.351 88.816 108.775 88.6 109.047 88.328C109.335 88.072 109.479 87.784 109.479 87.464C109.479 87.096 109.327 86.8 109.023 86.576C108.735 86.352 108.207 86.24 107.439 86.24H103.575C103.127 86.24 102.751 86.352 102.447 86.576C102.143 86.816 101.991 87.136 101.991 87.536C101.991 88.064 102.311 88.48 102.951 88.784C103.591 89.088 104.479 89.24 105.615 89.24ZM105.519 73.76C106.575 73.76 107.487 73.928 108.255 74.264C109.039 74.6 109.639 75.072 110.055 75.68C110.487 76.288 110.703 77 110.703 77.816C110.703 78.632 110.487 79.344 110.055 79.952C109.639 80.56 109.039 81.032 108.255 81.368C107.487 81.704 106.575 81.872 105.519 81.872C103.855 81.872 102.575 81.504 101.679 80.768C100.799 80.016 100.359 79.032 100.359 77.816C100.359 77 100.575 76.288 101.007 75.68C101.439 75.072 102.039 74.6 102.807 74.264C103.591 73.928 104.495 73.76 105.519 73.76ZM105.519 75.56C104.783 75.56 104.167 75.768 103.671 76.184C103.191 76.584 102.951 77.128 102.951 77.816C102.951 78.504 103.191 79.056 103.671 79.472C104.167 79.888 104.783 80.096 105.519 80.096C106.271 80.096 106.887 79.888 107.367 79.472C107.863 79.056 108.111 78.504 108.111 77.816C108.111 77.128 107.863 76.584 107.367 76.184C106.887 75.768 106.271 75.56 105.519 75.56ZM119.295 86.24C118.095 86.24 117.039 85.992 116.127 85.496C115.215 85 114.503 84.288 113.991 83.36C113.495 82.416 113.247 81.296 113.247 80C113.247 78.704 113.495 77.592 113.991 76.664C114.503 75.72 115.207 75 116.103 74.504C116.999 74.008 118.015 73.76 119.151 73.76C120.319 73.76 121.311 74 122.127 74.48C122.943 74.96 123.567 75.616 123.999 76.448C124.431 77.28 124.647 78.224 124.647 79.28C124.647 79.568 124.639 79.84 124.623 80.096C124.607 80.352 124.583 80.576 124.551 80.768H114.903V78.8H123.423L122.151 79.184C122.151 78.096 121.879 77.264 121.335 76.688C120.791 76.096 120.047 75.8 119.103 75.8C118.415 75.8 117.815 75.96 117.303 76.28C116.791 76.6 116.399 77.08 116.127 77.72C115.855 78.344 115.719 79.112 115.719 80.024C115.719 80.92 115.863 81.68 116.151 82.304C116.439 82.928 116.847 83.4 117.375 83.72C117.903 84.04 118.527 84.2 119.247 84.2C120.047 84.2 120.695 84.048 121.191 83.744C121.687 83.44 122.079 83.016 122.367 82.472L124.407 83.432C124.119 84.008 123.727 84.512 123.231 84.944C122.751 85.36 122.175 85.68 121.503 85.904C120.831 86.128 120.095 86.24 119.295 86.24ZM127.89 86V74H130.17L130.29 76.016C130.706 75.248 131.258 74.68 131.946 74.312C132.65 73.944 133.394 73.76 134.178 73.76C135.042 73.76 135.834 73.96 136.554 74.36C137.29 74.744 137.842 75.328 138.21 76.112C138.466 75.584 138.818 75.144 139.266 74.792C139.714 74.44 140.21 74.184 140.754 74.024C141.298 73.848 141.834 73.76 142.362 73.76C143.13 73.76 143.85 73.92 144.522 74.24C145.194 74.56 145.738 75.048 146.154 75.704C146.57 76.36 146.778 77.2 146.778 78.224V86H144.21V78.632C144.21 77.656 143.978 76.952 143.514 76.52C143.05 76.088 142.458 75.872 141.738 75.872C141.178 75.872 140.658 76.008 140.178 76.28C139.714 76.552 139.338 76.96 139.05 77.504C138.762 78.032 138.618 78.688 138.618 79.472V86H136.05V78.632C136.05 77.656 135.818 76.952 135.354 76.52C134.89 76.088 134.298 75.872 133.578 75.872C133.098 75.872 132.618 76 132.138 76.256C131.658 76.512 131.258 76.912 130.938 77.456C130.618 78 130.458 78.72 130.458 79.616V86H127.89ZM155.952 86.24C154.752 86.24 153.696 85.992 152.784 85.496C151.872 85 151.16 84.288 150.648 83.36C150.152 82.416 149.904 81.296 149.904 80C149.904 78.704 150.152 77.592 150.648 76.664C151.16 75.72 151.864 75 152.76 74.504C153.656 74.008 154.672 73.76 155.808 73.76C156.976 73.76 157.968 74 158.784 74.48C159.6 74.96 160.224 75.616 160.656 76.448C161.088 77.28 161.304 78.224 161.304 79.28C161.304 79.568 161.296 79.84 161.28 80.096C161.264 80.352 161.24 80.576 161.208 80.768H151.56V78.8H160.08L158.808 79.184C158.808 78.096 158.536 77.264 157.992 76.688C157.448 76.096 156.704 75.8 155.76 75.8C155.072 75.8 154.472 75.96 153.96 76.28C153.448 76.6 153.056 77.08 152.784 77.72C152.512 78.344 152.376 79.112 152.376 80.024C152.376 80.92 152.52 81.68 152.808 82.304C153.096 82.928 153.504 83.4 154.032 83.72C154.56 84.04 155.184 84.2 155.904 84.2C156.704 84.2 157.352 84.048 157.848 83.744C158.344 83.44 158.736 83.016 159.024 82.472L161.064 83.432C160.776 84.008 160.384 84.512 159.888 84.944C159.408 85.36 158.832 85.68 158.16 85.904C157.488 86.128 156.752 86.24 155.952 86.24ZM164.547 86V74H166.827L166.995 77.12L166.659 76.784C166.883 76.096 167.203 75.528 167.619 75.08C168.051 74.616 168.555 74.28 169.131 74.072C169.723 73.864 170.347 73.76 171.003 73.76C171.851 73.76 172.611 73.928 173.283 74.264C173.971 74.584 174.515 75.072 174.915 75.728C175.315 76.384 175.515 77.216 175.515 78.224V86H172.947V79.016C172.947 77.832 172.699 77.016 172.203 76.568C171.723 76.104 171.115 75.872 170.379 75.872C169.851 75.872 169.339 76 168.843 76.256C168.347 76.496 167.931 76.888 167.595 77.432C167.275 77.976 167.115 78.704 167.115 79.616V86H164.547ZM182.769 70.472V82.4C182.769 82.992 182.921 83.424 183.225 83.696C183.545 83.968 183.969 84.104 184.497 84.104C184.929 84.104 185.305 84.04 185.625 83.912C185.945 83.768 186.241 83.576 186.513 83.336L187.089 85.208C186.721 85.528 186.265 85.784 185.721 85.976C185.193 86.152 184.601 86.24 183.945 86.24C183.257 86.24 182.625 86.128 182.049 85.904C181.473 85.68 181.025 85.32 180.705 84.824C180.385 84.312 180.217 83.648 180.201 82.832V71.192L182.769 70.472ZM186.897 74V76.016H177.897V74H186.897Z" fill="black"/>
<rect x="14.5" y="521.5" width="255" height="119" rx="14.5" fill="#F9F9F9" stroke="#653780"/>
<path d="M49.504 572H46.792L45.28 567.848H38.632L37.12 572H34.48L40.456 556.16H43.528L49.504 572ZM39.352 565.76H44.56L41.968 558.368L39.352 565.76ZM54.4489 554.6V568.64C54.4489 569.232 54.5529 569.64 54.7609 569.864C54.9689 570.088 55.3129 570.2 55.7929 570.2C56.0809 570.2 56.3209 570.184 56.5129 570.152C56.7209 570.104 56.9769 570.024 57.2809 569.912L56.9929 571.832C56.7209 571.96 56.4089 572.056 56.0569 572.12C55.7049 572.2 55.3529 572.24 55.0009 572.24C53.9289 572.24 53.1369 571.968 52.6249 571.424C52.1289 570.864 51.8809 570.008 51.8809 568.856V554.6H54.4489ZM61.9255 554.6V568.64C61.9255 569.232 62.0295 569.64 62.2375 569.864C62.4455 570.088 62.7895 570.2 63.2695 570.2C63.5575 570.2 63.7975 570.184 63.9895 570.152C64.1975 570.104 64.4535 570.024 64.7575 569.912L64.4695 571.832C64.1975 571.96 63.8855 572.056 63.5335 572.12C63.1815 572.2 62.8295 572.24 62.4775 572.24C61.4055 572.24 60.6135 571.968 60.1015 571.424C59.6055 570.864 59.3575 570.008 59.3575 568.856V554.6H61.9255ZM72.1141 559.76C73.2821 559.76 74.3141 560.008 75.2101 560.504C76.1061 561 76.8021 561.72 77.2981 562.664C77.8101 563.592 78.0661 564.704 78.0661 566C78.0661 567.296 77.8101 568.416 77.2981 569.36C76.8021 570.288 76.1061 571 75.2101 571.496C74.3141 571.992 73.2821 572.24 72.1141 572.24C70.9461 572.24 69.9141 571.992 69.0181 571.496C68.1221 571 67.4181 570.288 66.9061 569.36C66.3941 568.416 66.1381 567.296 66.1381 566C66.1381 564.704 66.3941 563.592 66.9061 562.664C67.4181 561.72 68.1221 561 69.0181 560.504C69.9141 560.008 70.9461 559.76 72.1141 559.76ZM72.1141 561.776C71.3941 561.776 70.7781 561.944 70.2661 562.28C69.7701 562.6 69.3861 563.072 69.1141 563.696C68.8421 564.32 68.7061 565.088 68.7061 566C68.7061 566.896 68.8421 567.664 69.1141 568.304C69.3861 568.928 69.7701 569.408 70.2661 569.744C70.7781 570.064 71.3941 570.224 72.1141 570.224C72.8341 570.224 73.4421 570.064 73.9381 569.744C74.4341 569.408 74.8181 568.928 75.0901 568.304C75.3621 567.664 75.4981 566.896 75.4981 566C75.4981 565.088 75.3621 564.32 75.0901 563.696C74.8181 563.072 74.4341 562.6 73.9381 562.28C73.4421 561.944 72.8341 561.776 72.1141 561.776ZM96.2091 560H98.9931L94.9611 572H92.1531L89.1291 563.096L86.2731 572H83.4651L79.4571 560H82.2171L84.9531 569.48L87.9291 560H90.4971L93.4731 569.48L96.2091 560ZM105.825 572.24C104.625 572.24 103.529 572.008 102.537 571.544C101.545 571.08 100.761 570.424 100.185 569.576L101.961 568.04C102.313 568.696 102.817 569.224 103.473 569.624C104.145 570.008 104.945 570.2 105.873 570.2C106.609 570.2 107.193 570.072 107.625 569.816C108.057 569.56 108.273 569.2 108.273 568.736C108.273 568.432 108.169 568.168 107.961 567.944C107.769 567.704 107.393 567.52 106.833 567.392L104.313 566.864C103.033 566.608 102.121 566.2 101.577 565.64C101.033 565.064 100.761 564.336 100.761 563.456C100.761 562.8 100.953 562.192 101.337 561.632C101.721 561.072 102.281 560.624 103.017 560.288C103.769 559.936 104.665 559.76 105.705 559.76C106.905 559.76 107.929 559.976 108.777 560.408C109.625 560.824 110.273 561.424 110.721 562.208L108.945 563.696C108.641 563.056 108.193 562.584 107.601 562.28C107.009 561.96 106.393 561.8 105.753 561.8C105.241 561.8 104.801 561.864 104.433 561.992C104.065 562.12 103.785 562.296 103.593 562.52C103.401 562.744 103.305 563.008 103.305 563.312C103.305 563.632 103.425 563.912 103.665 564.152C103.905 564.392 104.337 564.576 104.961 564.704L107.697 565.28C108.849 565.504 109.657 565.888 110.121 566.432C110.601 566.96 110.841 567.608 110.841 568.376C110.841 569.144 110.641 569.824 110.241 570.416C109.841 570.992 109.265 571.44 108.513 571.76C107.761 572.08 106.865 572.24 105.825 572.24ZM126.981 559.76C128.149 559.76 129.181 560.008 130.077 560.504C130.973 561 131.669 561.72 132.165 562.664C132.677 563.592 132.933 564.704 132.933 566C132.933 567.296 132.677 568.416 132.165 569.36C131.669 570.288 130.973 571 130.077 571.496C129.181 571.992 128.149 572.24 126.981 572.24C125.813 572.24 124.781 571.992 123.885 571.496C122.989 571 122.285 570.288 121.773 569.36C121.261 568.416 121.005 567.296 121.005 566C121.005 564.704 121.261 563.592 121.773 562.664C122.285 561.72 122.989 561 123.885 560.504C124.781 560.008 125.813 559.76 126.981 559.76ZM126.981 561.776C126.261 561.776 125.645 561.944 125.133 562.28C124.637 562.6 124.253 563.072 123.981 563.696C123.709 564.32 123.573 565.088 123.573 566C123.573 566.896 123.709 567.664 123.981 568.304C124.253 568.928 124.637 569.408 125.133 569.744C125.645 570.064 126.261 570.224 126.981 570.224C127.701 570.224 128.309 570.064 128.805 569.744C129.301 569.408 129.685 568.928 129.957 568.304C130.229 567.664 130.365 566.896 130.365 566C130.365 565.088 130.229 564.32 129.957 563.696C129.685 563.072 129.301 562.6 128.805 562.28C128.309 561.944 127.701 561.776 126.981 561.776ZM143.99 560H146.678L141.902 572H139.094L134.294 560H137.102L140.51 569.768L143.99 560ZM154.077 572.24C152.877 572.24 151.821 571.992 150.909 571.496C149.997 571 149.285 570.288 148.773 569.36C148.277 568.416 148.029 567.296 148.029 566C148.029 564.704 148.277 563.592 148.773 562.664C149.285 561.72 149.989 561 150.885 560.504C151.781 560.008 152.797 559.76 153.933 559.76C155.101 559.76 156.093 560 156.909 560.48C157.725 560.96 158.349 561.616 158.781 562.448C159.213 563.28 159.429 564.224 159.429 565.28C159.429 565.568 159.421 565.84 159.405 566.096C159.389 566.352 159.365 566.576 159.333 566.768H149.685V564.8H158.205L156.933 565.184C156.933 564.096 156.661 563.264 156.117 562.688C155.573 562.096 154.829 561.8 153.885 561.8C153.197 561.8 152.597 561.96 152.085 562.28C151.573 562.6 151.181 563.08 150.909 563.72C150.637 564.344 150.501 565.112 150.501 566.024C150.501 566.92 150.645 567.68 150.933 568.304C151.221 568.928 151.629 569.4 152.157 569.72C152.685 570.04 153.309 570.2 154.029 570.2C154.829 570.2 155.477 570.048 155.973 569.744C156.469 569.44 156.861 569.016 157.149 568.472L159.189 569.432C158.901 570.008 158.509 570.512 158.013 570.944C157.533 571.36 156.957 571.68 156.285 571.904C155.613 572.128 154.877 572.24 154.077 572.24ZM162.672 572V560H164.856L165.096 562.16C165.416 561.376 165.888 560.784 166.512 560.384C167.152 559.968 167.936 559.76 168.864 559.76C169.104 559.76 169.344 559.784 169.584 559.832C169.824 559.864 170.024 559.92 170.184 560L169.824 562.256C169.648 562.192 169.448 562.144 169.224 562.112C169.016 562.064 168.728 562.04 168.36 562.04C167.864 562.04 167.376 562.176 166.896 562.448C166.416 562.704 166.016 563.096 165.696 563.624C165.392 564.152 165.24 564.824 165.24 565.64V572H162.672ZM176.747 572.24C175.547 572.24 174.451 572.008 173.459 571.544C172.467 571.08 171.683 570.424 171.107 569.576L172.883 568.04C173.235 568.696 173.739 569.224 174.395 569.624C175.067 570.008 175.867 570.2 176.795 570.2C177.531 570.2 178.115 570.072 178.547 569.816C178.979 569.56 179.195 569.2 179.195 568.736C179.195 568.432 179.091 568.168 178.883 567.944C178.691 567.704 178.315 567.52 177.755 567.392L175.235 566.864C173.955 566.608 173.043 566.2 172.499 565.64C171.955 565.064 171.683 564.336 171.683 563.456C171.683 562.8 171.875 562.192 172.259 561.632C172.643 561.072 173.203 560.624 173.939 560.288C174.691 559.936 175.587 559.76 176.627 559.76C177.827 559.76 178.851 559.976 179.699 560.408C180.547 560.824 181.195 561.424 181.643 562.208L179.867 563.696C179.563 563.056 179.115 562.584 178.523 562.28C177.931 561.96 177.315 561.8 176.675 561.8C176.163 561.8 175.723 561.864 175.355 561.992C174.987 562.12 174.707 562.296 174.515 562.52C174.323 562.744 174.227 563.008 174.227 563.312C174.227 563.632 174.347 563.912 174.587 564.152C174.827 564.392 175.259 564.576 175.883 564.704L178.619 565.28C179.771 565.504 180.579 565.888 181.043 566.432C181.523 566.96 181.763 567.608 181.763 568.376C181.763 569.144 181.563 569.824 181.163 570.416C180.763 570.992 180.187 571.44 179.435 571.76C178.683 572.08 177.787 572.24 176.747 572.24ZM190.147 572.24C188.947 572.24 187.891 571.992 186.979 571.496C186.067 571 185.355 570.288 184.843 569.36C184.347 568.416 184.099 567.296 184.099 566C184.099 564.704 184.347 563.592 184.843 562.664C185.355 561.72 186.059 561 186.955 560.504C187.851 560.008 188.867 559.76 190.003 559.76C191.171 559.76 192.163 560 192.979 560.48C193.795 560.96 194.419 561.616 194.851 562.448C195.283 563.28 195.499 564.224 195.499 565.28C195.499 565.568 195.491 565.84 195.475 566.096C195.459 566.352 195.435 566.576 195.403 566.768H185.755V564.8H194.275L193.003 565.184C193.003 564.096 192.731 563.264 192.187 562.688C191.643 562.096 190.899 561.8 189.955 561.8C189.267 561.8 188.667 561.96 188.155 562.28C187.643 562.6 187.251 563.08 186.979 563.72C186.707 564.344 186.571 565.112 186.571 566.024C186.571 566.92 186.715 567.68 187.003 568.304C187.291 568.928 187.699 569.4 188.227 569.72C188.755 570.04 189.379 570.2 190.099 570.2C190.899 570.2 191.547 570.048 192.043 569.744C192.539 569.44 192.931 569.016 193.219 568.472L195.259 569.432C194.971 570.008 194.579 570.512 194.083 570.944C193.603 571.36 193.027 571.68 192.355 571.904C191.683 572.128 190.947 572.24 190.147 572.24ZM204.022 572.24C202.822 572.24 201.766 571.992 200.854 571.496C199.942 571 199.23 570.288 198.718 569.36C198.222 568.416 197.974 567.296 197.974 566C197.974 564.704 198.222 563.592 198.718 562.664C199.23 561.72 199.934 561 200.83 560.504C201.726 560.008 202.742 559.76 203.878 559.76C205.046 559.76 206.038 560 206.854 560.48C207.67 560.96 208.294 561.616 208.726 562.448C209.158 563.28 209.374 564.224 209.374 565.28C209.374 565.568 209.366 565.84 209.35 566.096C209.334 566.352 209.31 566.576 209.278 566.768H199.63V564.8H208.15L206.878 565.184C206.878 564.096 206.606 563.264 206.062 562.688C205.518 562.096 204.774 561.8 203.83 561.8C203.142 561.8 202.542 561.96 202.03 562.28C201.518 562.6 201.126 563.08 200.854 563.72C200.582 564.344 200.446 565.112 200.446 566.024C200.446 566.92 200.59 567.68 200.878 568.304C201.166 568.928 201.574 569.4 202.102 569.72C202.63 570.04 203.254 570.2 203.974 570.2C204.774 570.2 205.422 570.048 205.918 569.744C206.414 569.44 206.806 569.016 207.094 568.472L209.134 569.432C208.846 570.008 208.454 570.512 207.958 570.944C207.478 571.36 206.902 571.68 206.23 571.904C205.558 572.128 204.822 572.24 204.022 572.24ZM213.913 557.984C213.353 557.984 212.921 557.848 212.617 557.576C212.329 557.288 212.185 556.888 212.185 556.376C212.185 555.864 212.329 555.472 212.617 555.2C212.921 554.928 213.353 554.792 213.913 554.792C214.457 554.792 214.873 554.928 215.161 555.2C215.465 555.472 215.617 555.864 215.617 556.376C215.617 556.888 215.465 557.288 215.161 557.576C214.873 557.848 214.457 557.984 213.913 557.984ZM215.185 560V572H212.617V560H215.185ZM219.203 572V560H221.483L221.651 563.12L221.315 562.784C221.539 562.096 221.859 561.528 222.275 561.08C222.707 560.616 223.211 560.28 223.787 560.072C224.379 559.864 225.003 559.76 225.659 559.76C226.507 559.76 227.267 559.928 227.939 560.264C228.627 560.584 229.171 561.072 229.571 561.728C229.971 562.384 230.171 563.216 230.171 564.224V572H227.603V565.016C227.603 563.832 227.355 563.016 226.859 562.568C226.379 562.104 225.771 561.872 225.035 561.872C224.507 561.872 223.995 562 223.499 562.256C223.003 562.496 222.587 562.888 222.251 563.432C221.931 563.976 221.771 564.704 221.771 565.616V572H219.203ZM244.622 557.48L245.03 559.496C244.982 559.496 244.934 559.496 244.886 559.496C244.838 559.48 244.79 559.472 244.742 559.472C243.974 559.472 243.39 559.64 242.99 559.976C242.59 560.296 242.39 560.768 242.39 561.392L241.142 560.816C241.142 560.176 241.278 559.608 241.55 559.112C241.822 558.6 242.206 558.2 242.702 557.912C243.214 557.624 243.79 557.48 244.43 557.48C244.462 557.48 244.494 557.48 244.526 557.48C244.558 557.48 244.59 557.48 244.622 557.48ZM240.83 570.128C242.046 570.128 242.99 570.4 243.662 570.944C244.334 571.472 244.67 572.208 244.67 573.152C244.67 573.984 244.406 574.696 243.878 575.288C243.35 575.896 242.63 576.36 241.718 576.68C240.822 577 239.79 577.16 238.622 577.16C236.654 577.16 235.198 576.856 234.254 576.248C233.31 575.64 232.838 574.88 232.838 573.968C232.838 573.328 233.062 572.768 233.51 572.288C233.974 571.808 234.75 571.536 235.838 571.472L235.694 571.856C235.022 571.712 234.478 571.456 234.062 571.088C233.662 570.704 233.462 570.168 233.462 569.48C233.462 568.792 233.726 568.208 234.254 567.728C234.782 567.248 235.526 566.968 236.486 566.888L237.83 567.536H237.542C236.806 567.6 236.286 567.768 235.982 568.04C235.678 568.312 235.526 568.616 235.526 568.952C235.526 569.352 235.67 569.648 235.958 569.84C236.262 570.032 236.686 570.128 237.23 570.128H240.83ZM238.622 575.24C239.502 575.24 240.222 575.152 240.782 574.976C241.358 574.816 241.782 574.6 242.054 574.328C242.342 574.072 242.486 573.784 242.486 573.464C242.486 573.096 242.334 572.8 242.03 572.576C241.742 572.352 241.214 572.24 240.446 572.24H236.582C236.134 572.24 235.758 572.352 235.454 572.576C235.15 572.816 234.998 573.136 234.998 573.536C234.998 574.064 235.318 574.48 235.958 574.784C236.598 575.088 237.486 575.24 238.622 575.24ZM238.526 559.76C239.582 559.76 240.494 559.928 241.262 560.264C242.046 560.6 242.646 561.072 243.062 561.68C243.494 562.288 243.71 563 243.71 563.816C243.71 564.632 243.494 565.344 243.062 565.952C242.646 566.56 242.046 567.032 241.262 567.368C240.494 567.704 239.582 567.872 238.526 567.872C236.862 567.872 235.582 567.504 234.686 566.768C233.806 566.016 233.366 565.032 233.366 563.816C233.366 563 233.582 562.288 234.014 561.68C234.446 561.072 235.046 560.6 235.814 560.264C236.598 559.928 237.502 559.76 238.526 559.76ZM238.526 561.56C237.79 561.56 237.174 561.768 236.678 562.184C236.198 562.584 235.958 563.128 235.958 563.816C235.958 564.504 236.198 565.056 236.678 565.472C237.174 565.888 237.79 566.096 238.526 566.096C239.278 566.096 239.894 565.888 240.374 565.472C240.87 565.056 241.118 564.504 241.118 563.816C241.118 563.128 240.87 562.584 240.374 562.184C239.894 561.768 239.278 561.56 238.526 561.56ZM42.928 599.296C42.928 598.496 42.704 597.88 42.256 597.448C41.824 597 41.224 596.776 40.456 596.776C39.736 596.776 39.12 596.944 38.608 597.28C38.096 597.616 37.72 598.16 37.48 598.912L35.32 598C35.624 597.024 36.216 596.24 37.096 595.648C37.992 595.056 39.144 594.76 40.552 594.76C41.512 594.76 42.36 594.92 43.096 595.24C43.832 595.544 44.408 596.008 44.824 596.632C45.256 597.256 45.472 598.056 45.472 599.032V604.384C45.472 604.976 45.768 605.272 46.36 605.272C46.648 605.272 46.928 605.232 47.2 605.152L47.056 606.928C46.688 607.104 46.224 607.192 45.664 607.192C45.152 607.192 44.688 607.104 44.272 606.928C43.872 606.736 43.552 606.456 43.312 606.088C43.088 605.704 42.976 605.232 42.976 604.672V604.504L43.504 604.48C43.36 605.104 43.064 605.624 42.616 606.04C42.168 606.44 41.648 606.744 41.056 606.952C40.464 607.144 39.864 607.24 39.256 607.24C38.504 607.24 37.824 607.12 37.216 606.88C36.624 606.64 36.152 606.28 35.8 605.8C35.464 605.304 35.296 604.696 35.296 603.976C35.296 603.08 35.584 602.344 36.16 601.768C36.752 601.192 37.584 600.8 38.656 600.592L43.312 599.68L43.288 601.48L39.904 602.176C39.232 602.304 38.728 602.488 38.392 602.728C38.056 602.968 37.888 603.32 37.888 603.784C37.888 604.232 38.056 604.592 38.392 604.864C38.744 605.12 39.208 605.248 39.784 605.248C40.184 605.248 40.568 605.2 40.936 605.104C41.32 605.008 41.664 604.856 41.968 604.648C42.272 604.424 42.504 604.144 42.664 603.808C42.84 603.456 42.928 603.04 42.928 602.56V599.296ZM54.8401 594.76C55.8001 594.76 56.6161 594.904 57.2881 595.192C57.9761 595.464 58.5521 595.856 59.0161 596.368C59.4801 596.88 59.8321 597.464 60.0721 598.12L57.6481 599.08C57.4401 598.344 57.1041 597.784 56.6401 597.4C56.1921 597 55.6001 596.8 54.8641 596.8C54.1441 596.8 53.5281 596.968 53.0161 597.304C52.5041 597.624 52.1121 598.096 51.8401 598.72C51.5841 599.344 51.4561 600.112 51.4561 601.024C51.4561 601.92 51.5921 602.68 51.8641 603.304C52.1361 603.928 52.5281 604.4 53.0401 604.72C53.5521 605.04 54.1601 605.2 54.8641 605.2C55.4081 605.2 55.8801 605.112 56.2801 604.936C56.6801 604.744 57.0081 604.48 57.2641 604.144C57.5361 603.792 57.7201 603.368 57.8161 602.872L60.1441 603.664C59.9201 604.384 59.5681 605.016 59.0881 605.56C58.6241 606.088 58.0401 606.504 57.3361 606.808C56.6321 607.096 55.8241 607.24 54.9121 607.24C53.7281 607.24 52.6801 606.992 51.7681 606.496C50.8561 606 50.1441 605.288 49.6321 604.36C49.1361 603.416 48.8881 602.296 48.8881 601C48.8881 599.704 49.1361 598.592 49.6321 597.664C50.1441 596.72 50.8481 596 51.7441 595.504C52.6561 595.008 53.6881 594.76 54.8401 594.76ZM66.6366 591.472V603.4C66.6366 603.992 66.7886 604.424 67.0926 604.696C67.4126 604.968 67.8366 605.104 68.3646 605.104C68.7966 605.104 69.1726 605.04 69.4926 604.912C69.8126 604.768 70.1086 604.576 70.3806 604.336L70.9566 606.208C70.5886 606.528 70.1326 606.784 69.5886 606.976C69.0606 607.152 68.4686 607.24 67.8126 607.24C67.1246 607.24 66.4926 607.128 65.9166 606.904C65.3406 606.68 64.8926 606.32 64.5726 605.824C64.2526 605.312 64.0846 604.648 64.0686 603.832V592.192L66.6366 591.472ZM70.7646 595V597.016H61.7646V595H70.7646ZM74.6005 592.984C74.0405 592.984 73.6085 592.848 73.3045 592.576C73.0165 592.288 72.8725 591.888 72.8725 591.376C72.8725 590.864 73.0165 590.472 73.3045 590.2C73.6085 589.928 74.0405 589.792 74.6005 589.792C75.1445 589.792 75.5605 589.928 75.8485 590.2C76.1525 590.472 76.3045 590.864 76.3045 591.376C76.3045 591.888 76.1525 592.288 75.8485 592.576C75.5605 592.848 75.1445 592.984 74.6005 592.984ZM75.8725 595V607H73.3045V595H75.8725ZM87.7864 595H90.4744L85.6984 607H82.8904L78.0904 595H80.8984L84.3064 604.768L87.7864 595ZM93.9599 592.984C93.3999 592.984 92.9679 592.848 92.6639 592.576C92.3759 592.288 92.2319 591.888 92.2319 591.376C92.2319 590.864 92.3759 590.472 92.6639 590.2C92.9679 589.928 93.3999 589.792 93.9599 589.792C94.5039 589.792 94.9199 589.928 95.2079 590.2C95.5119 590.472 95.6639 590.864 95.6639 591.376C95.6639 591.888 95.5119 592.288 95.2079 592.576C94.9199 592.848 94.5039 592.984 93.9599 592.984ZM95.2319 595V607H92.6639V595H95.2319ZM102.754 591.472V603.4C102.754 603.992 102.906 604.424 103.21 604.696C103.53 604.968 103.954 605.104 104.482 605.104C104.914 605.104 105.29 605.04 105.61 604.912C105.93 604.768 106.226 604.576 106.498 604.336L107.074 606.208C106.706 606.528 106.25 606.784 105.706 606.976C105.178 607.152 104.586 607.24 103.93 607.24C103.242 607.24 102.61 607.128 102.034 606.904C101.458 606.68 101.01 606.32 100.69 605.824C100.37 605.312 100.202 604.648 100.186 603.832V592.192L102.754 591.472ZM106.882 595V597.016H97.8818V595H106.882ZM110.718 592.984C110.158 592.984 109.726 592.848 109.422 592.576C109.134 592.288 108.99 591.888 108.99 591.376C108.99 590.864 109.134 590.472 109.422 590.2C109.726 589.928 110.158 589.792 110.718 589.792C111.262 589.792 111.678 589.928 111.966 590.2C112.27 590.472 112.422 590.864 112.422 591.376C112.422 591.888 112.27 592.288 111.966 592.576C111.678 592.848 111.262 592.984 110.718 592.984ZM111.99 595V607H109.422V595H111.99ZM121.288 607.24C120.088 607.24 119.032 606.992 118.12 606.496C117.208 606 116.496 605.288 115.984 604.36C115.488 603.416 115.24 602.296 115.24 601C115.24 599.704 115.488 598.592 115.984 597.664C116.496 596.72 117.2 596 118.096 595.504C118.992 595.008 120.008 594.76 121.144 594.76C122.312 594.76 123.304 595 124.12 595.48C124.936 595.96 125.56 596.616 125.992 597.448C126.424 598.28 126.64 599.224 126.64 600.28C126.64 600.568 126.632 600.84 126.616 601.096C126.6 601.352 126.576 601.576 126.544 601.768H116.896V599.8H125.416L124.144 600.184C124.144 599.096 123.872 598.264 123.328 597.688C122.784 597.096 122.04 596.8 121.096 596.8C120.408 596.8 119.808 596.96 119.296 597.28C118.784 597.6 118.392 598.08 118.12 598.72C117.848 599.344 117.712 600.112 117.712 601.024C117.712 601.92 117.856 602.68 118.144 603.304C118.432 603.928 118.84 604.4 119.368 604.72C119.896 605.04 120.52 605.2 121.24 605.2C122.04 605.2 122.688 605.048 123.184 604.744C123.68 604.44 124.072 604.016 124.36 603.472L126.4 604.432C126.112 605.008 125.72 605.512 125.224 605.944C124.744 606.36 124.168 606.68 123.496 606.904C122.824 607.128 122.088 607.24 121.288 607.24ZM134.443 607.24C133.243 607.24 132.147 607.008 131.155 606.544C130.163 606.08 129.379 605.424 128.803 604.576L130.579 603.04C130.931 603.696 131.435 604.224 132.091 604.624C132.763 605.008 133.563 605.2 134.491 605.2C135.227 605.2 135.811 605.072 136.243 604.816C136.675 604.56 136.891 604.2 136.891 603.736C136.891 603.432 136.787 603.168 136.579 602.944C136.387 602.704 136.011 602.52 135.451 602.392L132.931 601.864C131.651 601.608 130.739 601.2 130.195 600.64C129.651 600.064 129.379 599.336 129.379 598.456C129.379 597.8 129.571 597.192 129.955 596.632C130.339 596.072 130.899 595.624 131.635 595.288C132.387 594.936 133.283 594.76 134.323 594.76C135.523 594.76 136.547 594.976 137.395 595.408C138.243 595.824 138.891 596.424 139.339 597.208L137.563 598.696C137.259 598.056 136.811 597.584 136.219 597.28C135.627 596.96 135.011 596.8 134.371 596.8C133.859 596.8 133.419 596.864 133.051 596.992C132.683 597.12 132.403 597.296 132.211 597.52C132.019 597.744 131.923 598.008 131.923 598.312C131.923 598.632 132.043 598.912 132.283 599.152C132.523 599.392 132.955 599.576 133.579 599.704L136.315 600.28C137.467 600.504 138.275 600.888 138.739 601.432C139.219 601.96 139.459 602.608 139.459 603.376C139.459 604.144 139.259 604.824 138.859 605.416C138.459 605.992 137.883 606.44 137.131 606.76C136.379 607.08 135.483 607.24 134.443 607.24Z" fill="black"/>
</g>
<defs>
<clipPath id="clip0_11612_3550">
<rect width="592" height="661" fill="white"/>
</clipPath>
</defs>
</svg>
