<svg width="116" height="29" viewBox="0 0 116 29" fill="none" xmlns="http://www.w3.org/2000/svg">
<path d="M6.92199 21.3858C6.00289 21.3858 5.12863 21.305 4.30835 21.1477C3.48351 20.9902 2.71675 20.7562 1.9995 20.4414C1.28663 20.1225 0.618612 19.731 0 19.2587L1.66777 17.4139C2.39407 17.979 3.19644 18.4069 4.07079 18.6894C4.94504 18.972 5.89547 19.1132 6.92217 19.1132C8.30305 19.1132 9.37441 18.883 10.1367 18.423C10.8988 17.9629 11.2798 17.3089 11.2798 16.4653V16.4533C11.2798 15.8559 11.1094 15.3795 10.7643 15.0283C10.4147 14.6772 9.97083 14.4189 9.42382 14.2493C8.87682 14.0797 8.16843 13.9223 7.3033 13.7811C7.27636 13.7729 7.24503 13.769 7.21809 13.769C7.18658 13.769 7.15534 13.7649 7.12831 13.7569L6.9355 13.7246C5.65317 13.5269 4.61314 13.3049 3.81523 13.0547C3.01286 12.8043 2.32684 12.3524 1.75746 11.6944C1.18808 11.0364 0.905674 10.0999 0.905674 8.88493V8.87284C0.905674 7.81124 1.17009 6.90294 1.69919 6.14809C2.22811 5.39727 3.00373 4.82005 4.01708 4.42852C5.03473 4.03288 6.25423 3.83518 7.68435 3.83518C8.36571 3.83518 9.0383 3.90369 9.69728 4.03699C10.3607 4.17021 11.0109 4.37202 11.6565 4.63436C12.2976 4.89677 12.9298 5.23173 13.5529 5.63534L12.0286 7.54874C11.3023 7.06832 10.5806 6.70911 9.85437 6.467C9.13264 6.22893 8.41074 6.10771 7.68444 6.10771C6.37991 6.10771 5.36208 6.34176 4.64026 6.81001C3.91853 7.27827 3.55986 7.94422 3.55986 8.80417V8.81618C3.55986 9.40549 3.74362 9.86979 4.1159 10.2089C4.488 10.5479 4.95408 10.7982 5.51013 10.9597C6.06599 11.1211 6.83704 11.2906 7.82802 11.4642C7.86382 11.4723 7.89533 11.4763 7.92657 11.4803C7.9579 11.4844 7.98932 11.4923 8.02512 11.5005C8.06549 11.5086 8.1149 11.5166 8.16861 11.5247C8.22231 11.5329 8.26716 11.5368 8.31209 11.545C9.46867 11.7589 10.4326 12.0132 11.2082 12.3039C11.9838 12.5946 12.634 13.0667 13.154 13.7167C13.6741 14.3666 13.934 15.2547 13.934 16.385V16.4092C13.934 17.4546 13.6606 18.3509 13.1092 19.0977C12.5533 19.8444 11.7552 20.4096 10.7106 20.8012C9.66147 21.1927 8.40143 21.3858 6.92199 21.3858ZM109.886 24.0586C109.728 24.0586 109.577 24.0447 109.432 24.0171C109.287 23.9894 109.152 23.9479 109.025 23.8933C108.899 23.8386 108.783 23.7722 108.676 23.694L108.962 23.3066C109.089 23.4014 109.23 23.4734 109.388 23.5238C109.545 23.5736 109.711 23.5985 109.886 23.5985C110.105 23.5985 110.274 23.5633 110.395 23.492C110.516 23.4215 110.576 23.3219 110.576 23.1952V23.1931C110.576 23.0943 110.546 23.0188 110.485 22.9663C110.424 22.9136 110.344 22.875 110.245 22.8493C110.146 22.8244 110.039 22.803 109.921 22.7857C109.797 22.7684 109.671 22.7463 109.542 22.72C109.414 22.6937 109.296 22.6522 109.189 22.5962C109.081 22.5402 108.995 22.4599 108.93 22.3554C108.865 22.2503 108.832 22.1112 108.832 21.9369V21.9348C108.832 21.6533 108.935 21.4361 109.141 21.2818C109.348 21.1282 109.639 21.0507 110.016 21.0507C110.193 21.0507 110.37 21.077 110.545 21.1289C110.721 21.1808 110.887 21.2575 111.044 21.3592L110.784 21.7584C110.659 21.6761 110.531 21.6138 110.401 21.573C110.271 21.5315 110.142 21.5107 110.016 21.5107C109.81 21.5107 109.651 21.5453 109.537 21.6131C109.422 21.6816 109.366 21.7777 109.366 21.9023V21.9044C109.366 22.0068 109.399 22.0849 109.466 22.1382C109.532 22.1914 109.62 22.2308 109.728 22.2565C109.836 22.2828 109.952 22.3063 110.075 22.3277C110.198 22.3492 110.321 22.3754 110.443 22.4066C110.565 22.4377 110.676 22.4827 110.778 22.5415C110.879 22.6003 110.96 22.6806 111.02 22.7829C111.08 22.8846 111.11 23.0175 111.11 23.1807V23.1849C111.11 23.4623 111.003 23.6768 110.789 23.8297C110.576 23.9826 110.274 24.0586 109.886 24.0586ZM76.5413 11.0964H79.1549V16.3359H80.585V18.5723H79.1549V21.2203H76.5413V18.5723H68.3056V16.4773L74.7167 4.02426H77.4737L71.2195 16.3359H76.5412L76.5413 11.0964ZM48.9609 4.01225H51.6418V21.2083H48.9609V19.6342C48.6899 20.0885 48.3072 20.4785 47.8132 20.8041C47.1946 21.2158 46.4368 21.4217 45.5357 21.4217C44.5359 21.4217 43.6843 21.2245 42.9805 20.8368C42.2767 20.4453 41.7387 19.876 41.371 19.1252C41.0034 18.3785 40.8195 17.4783 40.8195 16.4288V13.7242C40.8195 12.6665 40.9989 11.7625 41.3575 11.0158C41.7161 10.2649 42.2406 9.69587 42.9266 9.30418C43.6125 8.91668 44.4374 8.71882 45.4013 8.71882C46.2083 8.71882 46.9481 8.90854 47.6161 9.28806C48.1433 9.58755 48.5924 9.98013 48.961 10.4697L48.9609 4.01225ZM48.9609 16.6908V13.389C48.9609 12.8724 48.8578 12.4244 48.6471 12.0529C48.4364 11.6856 48.1316 11.403 47.7325 11.2092C47.3335 11.0154 46.8538 10.9186 46.2845 10.9186C45.3969 10.9186 44.7154 11.1689 44.2267 11.6653C43.7425 12.1617 43.5004 12.86 43.5004 13.7562V16.4284C43.5004 17.3205 43.7425 18.0107 44.2267 18.4951C44.7154 18.9795 45.3969 19.2217 46.2845 19.2217C46.8539 19.2217 47.3337 19.1209 47.7325 18.9189C48.1316 18.7171 48.4364 18.4305 48.6471 18.051C48.8578 17.6717 48.9609 17.2195 48.9609 16.6908ZM34.4757 8.9328H37.1386V21.2081H34.4757V19.5873C34.1944 20.0453 33.8014 20.4401 33.2917 20.7719C32.6597 21.1796 31.8884 21.3855 30.9694 21.3855C29.4632 21.3855 28.2974 20.9495 27.4814 20.0777C26.661 19.2059 26.2531 17.9787 26.2531 16.3964V8.93272H28.9295V16.3964C28.9295 17.2561 29.1763 17.9184 29.6606 18.3866C30.1448 18.8549 30.8308 19.093 31.7184 19.093C32.5926 19.093 33.2696 18.883 33.7537 18.4631C34.2334 18.0473 34.4754 17.4499 34.4754 16.6789L34.4756 16.6817L34.4757 8.9328ZM54.2644 8.9328H56.9993L60.4275 17.6674L63.6029 8.93272H66.3377L60.5319 24.0823C60.3212 24.6434 60.0477 25.0834 59.7026 25.4143C59.3617 25.7412 58.9403 25.9754 58.4427 26.1166C57.9451 26.2578 57.3308 26.3306 56.6045 26.3306H56.0666V24.0096H56.6045C57.1021 24.0096 57.5012 23.9208 57.7926 23.7391C58.0885 23.5574 58.3439 23.2466 58.5593 22.8067L59.2113 21.0132L54.2644 8.9328ZM16.4264 8.9328H17.8339V5.36044H20.5149V8.9328H22.5728V11.1085H20.5149V18.0395C20.5149 18.3382 20.5776 18.5684 20.7077 18.7298C20.8422 18.8912 21.0349 18.972 21.2859 18.972H22.5726V21.2689H21.0258C19.9229 21.2689 19.1117 20.9941 18.6005 20.4453C18.0893 19.8963 17.8339 19.0891 17.8339 18.0153V11.1086H16.4264V8.9328ZM86.3177 15.8761C86.579 16.0567 86.8137 16.2886 87.0132 16.5605C88.2108 16.3464 89.4862 16.2308 90.8092 16.2308C94.378 16.2308 97.5991 17.0709 99.8863 18.4199C97.7122 16.6459 94.186 15.4929 90.2055 15.4929C88.8444 15.4929 87.5366 15.6278 86.3177 15.8761ZM100.169 28.5157C91.4213 28.5157 84.3332 22.1306 84.3332 14.2579C84.3332 11.9272 84.9549 9.72537 86.0554 7.78473C87.2223 5.72763 88.9236 3.95986 90.9986 2.63255C93.4264 1.27058 96.2945 0.481151 99.3652 0.481151C108.112 0.481151 115.2 6.86627 115.2 14.7391C115.2 19.5356 112.57 23.7821 108.535 26.3643C106.107 27.7264 103.239 28.5157 100.169 28.5157ZM90.9948 2.63255C86.5095 5.1521 83.5262 9.63099 83.5262 14.7421C83.5262 22.618 90.6177 29 99.3614 29C102.778 29 105.943 28.0248 108.531 26.3675C113.017 23.851 116 19.3689 116 14.2579C116 6.38197 108.908 0 100.165 0C96.7483 0 93.5833 0.975116 90.9948 2.63255ZM114.011 15.8761C113.749 16.0567 113.515 16.2886 113.315 16.5605C112.117 16.3464 110.842 16.2308 109.519 16.2308C108.556 16.2308 107.618 16.2922 106.716 16.408L106.467 15.8306C107.619 15.6112 108.848 15.4929 110.123 15.4929C111.484 15.4929 112.792 15.6278 114.011 15.8761ZM107.391 17.9681C107.708 17.9485 108.03 17.9385 108.355 17.9385C110.059 17.9385 111.658 18.2115 113.041 18.6894C113.479 18.3109 113.96 18.0145 114.473 17.8165C112.767 17.1213 110.65 16.7094 108.355 16.7094C107.852 16.7094 107.356 16.7293 106.872 16.7678L107.391 17.9681ZM103.429 17.1188C102.319 17.4667 101.313 17.9063 100.442 18.4201C101.226 17.7807 102.185 17.2223 103.278 16.7691L103.429 17.1188ZM96.0874 17.0351L96.0412 17.1563C95.1097 16.9026 94.0987 16.7236 93.0346 16.6331L93.0921 16.4925C93.9997 16.5874 94.8728 16.7377 95.6991 16.937C95.8297 16.9685 95.9593 17.0011 96.0874 17.0351ZM104.182 2.19403H105.226V3.4339H106.603V4.3746H105.226V5.61447H104.182V4.3746H102.805V3.4339H104.182V2.19403ZM95.488 18.6071L93.5466 23.6988H90.1406L92.4308 18.1071C93.5145 18.1682 94.5442 18.3415 95.488 18.6071ZM100.881 20.1505C101.733 19.4914 102.816 18.9475 104.054 18.5641L103.536 17.3665C102.073 17.7935 100.822 18.4093 99.8946 19.1537C98.0568 17.6786 94.953 16.7095 91.4338 16.7095C89.0358 16.7095 86.8306 17.1595 85.0876 17.9128C85.7469 18.0146 86.3706 18.2751 86.9371 18.6649C88.3034 18.2022 89.8765 17.9384 91.5506 17.9384C94.5406 17.9384 97.2085 18.7794 98.9517 20.094C99.1047 20.2094 99.2504 20.3286 99.3888 20.451C99.6058 20.4969 99.8365 20.5216 100.076 20.5216C100.208 20.5216 100.337 20.5141 100.463 20.4997C100.595 20.3799 100.735 20.2635 100.881 20.1505ZM99.51 8.05972L96.2937 16.3356C95.074 15.8389 94.4949 15.7635 93.4338 15.5915L97.9878 4.53934L99.51 8.05972ZM106.753 17.4439L105.033 13.4686L104.924 13.2154L104.668 12.6227L104.601 12.4695L104.284 11.735L104.215 11.5759L103.067 8.9224L100.808 3.69809L101.359 3.50474L103.931 9.44998C103.985 9.57474 104.142 9.6372 104.281 9.58852C104.42 9.53984 104.489 9.39799 104.435 9.27307L101.864 3.32784L101.765 3.09992L101.667 2.87377L101.437 2.95436C101.43 2.95638 101.422 2.95855 101.415 2.96129C101.407 2.96395 101.4 2.96693 101.393 2.97008L100.612 3.24402L100.545 3.09089L100.489 2.96113L100.441 2.84967L100.385 2.71975L100.375 2.69751C100.352 2.64375 100.325 2.59257 100.294 2.54397C100.27 2.50593 100.244 2.46958 100.216 2.43485C100.149 2.35224 100.07 2.27906 99.9839 2.21627C99.9321 2.17872 99.877 2.14487 99.8197 2.11497C99.8038 2.10659 99.7876 2.09853 99.771 2.09087C99.6781 2.04703 99.5796 2.01342 99.4775 1.99085C99.2285 1.93556 98.9594 1.94628 98.7034 2.03598C98.4816 2.11376 98.2968 2.24182 98.159 2.39995C97.8863 2.71322 97.7975 3.14529 97.9688 3.54117L98.0536 3.73718L100.661 9.76631L104.333 18.2558L105.472 20.8902L105.915 21.4141L108.342 24.289L107.964 20.7269L107.895 20.0848L106.753 17.4439Z" fill="white"/>
</svg>
